M48
;Layer_Color=9474304
;FILE_FORMAT=4:4
METRIC,LZ
;TYPE=PLATED
T01F00S00C0.3000
T03F00S00C0.7000
T04F00S00C1.0000
T05F00S00C1.0200
T06F00S00C1.7000
T07F00S00C3.0000
;TYPE=NON_PLATED
T09F00S00C0.6500
T10F00S00C0.9000
%
T01
X00777Y0000675
Y0001625
Y0002575
Y0003525
Y0004475
X00781905Y00056284
X00782924Y00065729
Y00075229
X007825Y000845
X00795501Y00086128
X007955Y000955
X00795576Y00076628
Y00067129
X007965Y000565
X0080275Y000445
Y00035
Y000255
Y00016
Y000065
X0081Y00062
X0081775
X0082525
X0077Y00061
X007625
X0075425
X00214Y000785
X00185Y000875
X001275Y000725
X0011525Y0005175
X00104Y00052
X00092Y00068
X000915Y0008925
X00082Y000835
Y00095
X000725Y0008925
X00074Y0006375
X0006475Y0006125
X000265Y0006175
X00027Y00088
Y00113
Y0014
Y00162
X00091634Y00111178
X000715Y0028125
X00139Y00262
X0017425Y0024325
X001795Y00248
Y0023825
X0019825Y0024175
Y002495
X0020625
Y0024175
X00224Y0024275
X002285Y0025325
X0020975Y002685
X00203Y0026825
X00211Y0031075
X0018825
X0027175Y0031625
X0028483Y0031664
X0029118
X0029753
X0028Y0033
X0027825Y002585
X002715
X0028525Y0025875
X002875Y001875
X00295
X003125
X0032
X0027
X002625
X002525Y0013875
X002375Y0013
Y0011
X0021375Y001105
X002195Y0012
X00208
X0021375Y001295
X002315Y00146
X0021Y0017275
X001875Y001725
X0017425Y0014225
X0016475Y001295
X00159Y0012
X001705
X0016475Y001105
X001865Y0010875
X0018625Y0011675
X0014275Y00123
X0027625Y0013975
X0038825Y0013175
X0043925Y001255
X0048525Y0015725
X0049975Y0015775
Y00145
X00514Y0021125
X005285Y0020275
X00524Y00259
Y0027
Y00281
X0051Y0026
X00495Y0023425
X00455Y00235
X004545Y00296
X00492Y0029575
X0053275Y00314
X005185Y0035225
X0050775Y00352
X0051625Y0037525
X0051475Y004195
X00523Y0041925
X004425Y0041825
X0041925Y004175
X003955Y0041725
Y0037675
X0041925Y00376
X00447991Y00381731
X004745Y0038175
X0047475Y0035025
X00448Y003505
X0039Y0033725
X00343Y00342
Y00349
Y00368
Y00375
Y00393
Y004
X0039975Y004685
X0045Y0046875
X00274Y00459
X0019Y0044
X0021225Y002235
X0034825Y0024625
X0034875Y0027375
X00535Y0027
Y00281
X00546
Y0027
Y00259
X00535
X0053475Y0024575
X0053875Y0022825
X00555Y002275
X00575Y0023
X0058075Y00260162
X00559Y00259
X0055925Y00281
X0055675Y0031375
X00577Y003135
X0058075Y00296
X0053925Y0029675
X005465Y003505
X00547Y0037125
X0057725Y0037525
X00577Y003515
X00579Y0041925
X0057075
X00547Y0041675
X0054425Y0044125
X00555
X00651Y004
X0064475Y0039175
Y003395
X00662454Y0031875
X0065475Y0029925
X006445Y00301
X0064425Y002815
X00662Y002855
X006875Y00279
X0068625Y002595
X00705013Y00254934
Y00264434
X00704525Y00245446
X00704485Y0022708
X00713953Y00226306
X00722993Y00229227
X00723427Y00238717
X00722959Y00248205
X00731515Y00252332
X00740932Y00251075
X00748143Y0024489
X00747866Y00235394
Y00225894
X00743424Y00217497
X00742789Y00208018
X00733388Y00209384
X007235Y002085
X00722116Y00198909
Y00189409
X00723Y0017975
X00732574Y00178116
X00741826Y00180275
X00739861Y0017098
X00739288Y00161497
X00743424Y00152944
X00740825Y00143807
X0072875Y001515
X00719616Y0012983
X00722934Y00120928
X00732429Y00120616
X00741646Y00122918
X00750852Y00120575
X0075925Y0011925
X00759366Y00109661
X0076574Y00102616
X00775174Y00101498
X0079525Y0010475
X00790634Y00112236
X00787854Y0012132
X00789936Y0013059
X00784948Y00138675
X00775453Y00138369
X00765958Y00138675
X00759175Y00145326
X00763459Y00153806
X00772958Y00153938
X00782429Y00154679
X00791922Y00154325
X00801422
X00809649Y00159076
X00809519Y00168575
X00807326Y00177819
X00811352Y00186424
X00820678Y00184616
X0083Y001865
X0082975Y0019825
X0082675Y0021475
Y0022275
X00835873Y00217681
X00845373Y00217694
X00850945Y0021
X00850801Y00200501
X0084075Y001815
X00781Y001865
X00781395Y00268091
X0077925Y00276
X00788112Y00274809
X00762Y0027125
X007535Y002715
X00743Y0027125
X00734723Y00271425
X00726038Y00267576
X0071725Y002785
X007315Y0029325
X0074025Y0032625
X0070825Y0032675
X006985Y0033575
X006865Y003315
X00708641Y00353988
X007045Y004
X007645
X0082575Y0040025
X0083625Y0037775
X0083425Y00335
X00814
X0078175Y003525
X0078125Y0030325
X0084975Y002985
Y002835
X00824Y0026725
X008915Y002615
X0090075Y0028625
X009005Y0031125
X00875Y0033225
X00906Y003775
X009165Y00377
X00906Y00389
X0088525Y0040075
X0088475Y0009875
X0082525Y0009975
X007055Y00099
X0065125Y001
X00645Y001075
X006445Y0016025
X0064525Y0022025
X0068325Y00213
X0068375Y0023625
X006195Y0025975
X006095Y0031075
X00945Y003395
X00946Y003935
X009385Y00401
X00945Y0028
X009455Y0021975
Y0015975
Y001075
X00938Y0009875
T03
X0011Y002125
X001325Y002425
X001535Y00243
T04
X0003Y0032
Y0043
T05
X0054425Y0003885
Y0006425
Y0008965
T06
X0013Y0035
Y004
T07
X0096Y00025
X00025
Y00475
X0096
T09
X005181Y00440975
X005759
T10
X00391Y0048
X00459
M30
