G04*
G04 #@! TF.GenerationSoftware,Altium Limited,Altium Designer,25.4.2 (15)*
G04*
G04 Layer_Color=128*
%FSLAX44Y44*%
%MOMM*%
G71*
G04*
G04 #@! TF.SameCoordinates,69983CE8-C732-48D4-ACAD-208037422C18*
G04*
G04*
G04 #@! TF.FilePolarity,Positive*
G04*
G01*
G75*
%ADD21R,1.6000X5.0000*%
G04:AMPARAMS|DCode=32|XSize=1mm|YSize=1.7mm|CornerRadius=0.125mm|HoleSize=0mm|Usage=FLASHONLY|Rotation=0.000|XOffset=0mm|YOffset=0mm|HoleType=Round|Shape=RoundedRectangle|*
%AMROUNDEDRECTD32*
21,1,1.0000,1.4500,0,0,0.0*
21,1,0.7500,1.7000,0,0,0.0*
1,1,0.2500,0.3750,-0.7250*
1,1,0.2500,-0.3750,-0.7250*
1,1,0.2500,-0.3750,0.7250*
1,1,0.2500,0.3750,0.7250*
%
%ADD32ROUNDEDRECTD32*%
G04:AMPARAMS|DCode=37|XSize=1mm|YSize=1.7mm|CornerRadius=0.125mm|HoleSize=0mm|Usage=FLASHONLY|Rotation=270.000|XOffset=0mm|YOffset=0mm|HoleType=Round|Shape=RoundedRectangle|*
%AMROUNDEDRECTD37*
21,1,1.0000,1.4500,0,0,270.0*
21,1,0.7500,1.7000,0,0,270.0*
1,1,0.2500,-0.7250,-0.3750*
1,1,0.2500,-0.7250,0.3750*
1,1,0.2500,0.7250,0.3750*
1,1,0.2500,0.7250,-0.3750*
%
%ADD37ROUNDEDRECTD37*%
D21*
X761550Y26000D02*
D03*
X816950D02*
D03*
D32*
X590000Y260000D02*
D03*
X609000D02*
D03*
X752500Y301250D02*
D03*
X771500D02*
D03*
X880500Y261250D02*
D03*
X861500D02*
D03*
X880500Y311250D02*
D03*
X861500D02*
D03*
X880500Y286250D02*
D03*
X861500D02*
D03*
X752500Y326250D02*
D03*
X771500D02*
D03*
X752500Y276250D02*
D03*
X771500D02*
D03*
X521000Y217500D02*
D03*
X540000D02*
D03*
X465500Y235000D02*
D03*
X484500D02*
D03*
X574500Y217500D02*
D03*
X555500D02*
D03*
X465500Y260000D02*
D03*
X484500D02*
D03*
X463750Y296250D02*
D03*
X482750D02*
D03*
X609500Y296000D02*
D03*
X590500D02*
D03*
X279140Y272190D02*
D03*
X298140D02*
D03*
X236750Y303750D02*
D03*
X255750D02*
D03*
X255750Y255500D02*
D03*
X236750D02*
D03*
X236750Y279750D02*
D03*
X255750D02*
D03*
D37*
X824000Y237250D02*
D03*
Y256250D02*
D03*
X836500Y365250D02*
D03*
Y346250D02*
D03*
X811500Y365250D02*
D03*
Y346250D02*
D03*
X502500Y341500D02*
D03*
Y322500D02*
D03*
X527500Y341500D02*
D03*
Y322500D02*
D03*
X577500Y341500D02*
D03*
Y322500D02*
D03*
X552500Y341500D02*
D03*
Y322500D02*
D03*
X187500Y162000D02*
D03*
Y143000D02*
D03*
X200000Y78500D02*
D03*
Y97500D02*
D03*
M02*
