G04*
G04 #@! TF.GenerationSoftware,Altium Limited,Altium Designer,25.4.2 (15)*
G04*
G04 Layer_Color=8388736*
%FSLAX44Y44*%
%MOMM*%
G71*
G04*
G04 #@! TF.SameCoordinates,69983CE8-C732-48D4-ACAD-208037422C18*
G04*
G04*
G04 #@! TF.FilePolarity,Negative*
G04*
G01*
G75*
%ADD21R,1.6000X5.0000*%
%ADD22R,1.2000X5.0000*%
%ADD27R,1.0121X1.1587*%
%ADD28R,1.2061X1.0582*%
%ADD29R,0.7000X0.6500*%
%ADD30R,1.1587X1.0121*%
%ADD33R,0.8061X0.8582*%
%ADD36R,0.8582X0.8061*%
%ADD38R,1.4500X1.4500*%
%ADD39R,0.3750X0.3750*%
%ADD40R,0.2500X0.7000*%
%ADD41R,0.7000X0.2500*%
%ADD42R,1.1062X1.3051*%
G04:AMPARAMS|DCode=43|XSize=1.6587mm|YSize=0.6268mm|CornerRadius=0.3134mm|HoleSize=0mm|Usage=FLASHONLY|Rotation=180.000|XOffset=0mm|YOffset=0mm|HoleType=Round|Shape=RoundedRectangle|*
%AMROUNDEDRECTD43*
21,1,1.6587,0.0000,0,0,180.0*
21,1,1.0319,0.6268,0,0,180.0*
1,1,0.6268,-0.5159,0.0000*
1,1,0.6268,0.5159,0.0000*
1,1,0.6268,0.5159,0.0000*
1,1,0.6268,-0.5159,0.0000*
%
%ADD43ROUNDEDRECTD43*%
%ADD44R,1.6587X0.6268*%
%ADD45R,1.2000X1.4000*%
G04:AMPARAMS|DCode=51|XSize=1.5mm|YSize=0.45mm|CornerRadius=0.0495mm|HoleSize=0mm|Usage=FLASHONLY|Rotation=270.000|XOffset=0mm|YOffset=0mm|HoleType=Round|Shape=RoundedRectangle|*
%AMROUNDEDRECTD51*
21,1,1.5000,0.3510,0,0,270.0*
21,1,1.4010,0.4500,0,0,270.0*
1,1,0.0990,-0.1755,-0.7005*
1,1,0.0990,-0.1755,0.7005*
1,1,0.0990,0.1755,0.7005*
1,1,0.0990,0.1755,-0.7005*
%
%ADD51ROUNDEDRECTD51*%
%ADD55R,2.3000X2.5000*%
%ADD56R,0.9800X3.4000*%
%ADD65R,1.2000X2.5000*%
G04:AMPARAMS|DCode=67|XSize=1.8532mm|YSize=2.6032mm|CornerRadius=0.1511mm|HoleSize=0mm|Usage=FLASHONLY|Rotation=0.000|XOffset=0mm|YOffset=0mm|HoleType=Round|Shape=RoundedRectangle|*
%AMROUNDEDRECTD67*
21,1,1.8532,2.3010,0,0,0.0*
21,1,1.5510,2.6032,0,0,0.0*
1,1,0.3022,0.7755,-1.1505*
1,1,0.3022,-0.7755,-1.1505*
1,1,0.3022,-0.7755,1.1505*
1,1,0.3022,0.7755,1.1505*
%
%ADD67ROUNDEDRECTD67*%
G04:AMPARAMS|DCode=68|XSize=0.5032mm|YSize=0.8032mm|CornerRadius=0.1511mm|HoleSize=0mm|Usage=FLASHONLY|Rotation=90.000|XOffset=0mm|YOffset=0mm|HoleType=Round|Shape=RoundedRectangle|*
%AMROUNDEDRECTD68*
21,1,0.5032,0.5010,0,0,90.0*
21,1,0.2010,0.8032,0,0,90.0*
1,1,0.3022,0.2505,0.1005*
1,1,0.3022,0.2505,-0.1005*
1,1,0.3022,-0.2505,-0.1005*
1,1,0.3022,-0.2505,0.1005*
%
%ADD68ROUNDEDRECTD68*%
%ADD69R,1.2032X3.1032*%
%ADD70R,1.2032X3.5032*%
%ADD71R,3.5032X1.2032*%
%ADD72R,3.1032X1.2032*%
%ADD73R,0.5032X1.0532*%
G04:AMPARAMS|DCode=74|XSize=1.2032mm|YSize=1.9032mm|CornerRadius=0.2266mm|HoleSize=0mm|Usage=FLASHONLY|Rotation=0.000|XOffset=0mm|YOffset=0mm|HoleType=Round|Shape=RoundedRectangle|*
%AMROUNDEDRECTD74*
21,1,1.2032,1.4500,0,0,0.0*
21,1,0.7500,1.9032,0,0,0.0*
1,1,0.4532,0.3750,-0.7250*
1,1,0.4532,-0.3750,-0.7250*
1,1,0.4532,-0.3750,0.7250*
1,1,0.4532,0.3750,0.7250*
%
%ADD74ROUNDEDRECTD74*%
%ADD75R,1.0532X1.1032*%
%ADD76R,1.1032X1.0532*%
G04:AMPARAMS|DCode=77|XSize=1.2032mm|YSize=1.9032mm|CornerRadius=0.2266mm|HoleSize=0mm|Usage=FLASHONLY|Rotation=270.000|XOffset=0mm|YOffset=0mm|HoleType=Round|Shape=RoundedRectangle|*
%AMROUNDEDRECTD77*
21,1,1.2032,1.4500,0,0,270.0*
21,1,0.7500,1.9032,0,0,270.0*
1,1,0.4532,-0.7250,-0.3750*
1,1,0.4532,-0.7250,0.3750*
1,1,0.4532,0.7250,0.3750*
1,1,0.4532,0.7250,-0.3750*
%
%ADD77ROUNDEDRECTD77*%
G04:AMPARAMS|DCode=78|XSize=1.0032mm|YSize=1.2032mm|CornerRadius=0.2016mm|HoleSize=0mm|Usage=FLASHONLY|Rotation=180.000|XOffset=0mm|YOffset=0mm|HoleType=Round|Shape=RoundedRectangle|*
%AMROUNDEDRECTD78*
21,1,1.0032,0.8000,0,0,180.0*
21,1,0.6000,1.2032,0,0,180.0*
1,1,0.4032,-0.3000,0.4000*
1,1,0.4032,0.3000,0.4000*
1,1,0.4032,0.3000,-0.4000*
1,1,0.4032,-0.3000,-0.4000*
%
%ADD78ROUNDEDRECTD78*%
%ADD79R,1.0532X0.9532*%
%ADD80R,0.9532X1.0532*%
%ADD81R,1.0532X0.5032*%
%ADD82R,3.7532X3.7532*%
%ADD83R,2.4032X0.8032*%
G04:AMPARAMS|DCode=84|XSize=1.8132mm|YSize=0.7832mm|CornerRadius=0.1741mm|HoleSize=0mm|Usage=FLASHONLY|Rotation=90.000|XOffset=0mm|YOffset=0mm|HoleType=Round|Shape=RoundedRectangle|*
%AMROUNDEDRECTD84*
21,1,1.8132,0.4350,0,0,90.0*
21,1,1.4650,0.7832,0,0,90.0*
1,1,0.3482,0.2175,0.7325*
1,1,0.3482,0.2175,-0.7325*
1,1,0.3482,-0.2175,-0.7325*
1,1,0.3482,-0.2175,0.7325*
%
%ADD84ROUNDEDRECTD84*%
G04:AMPARAMS|DCode=85|XSize=0.4mm|YSize=1.25mm|CornerRadius=0.0875mm|HoleSize=0mm|Usage=FLASHONLY|Rotation=180.000|XOffset=0mm|YOffset=0mm|HoleType=Round|Shape=RoundedRectangle|*
%AMROUNDEDRECTD85*
21,1,0.4000,1.0750,0,0,180.0*
21,1,0.2250,1.2500,0,0,180.0*
1,1,0.1750,-0.1125,0.5375*
1,1,0.1750,0.1125,0.5375*
1,1,0.1750,0.1125,-0.5375*
1,1,0.1750,-0.1125,-0.5375*
%
%ADD85ROUNDEDRECTD85*%
G04:AMPARAMS|DCode=86|XSize=0.7mm|YSize=1.25mm|CornerRadius=0.125mm|HoleSize=0mm|Usage=FLASHONLY|Rotation=180.000|XOffset=0mm|YOffset=0mm|HoleType=Round|Shape=RoundedRectangle|*
%AMROUNDEDRECTD86*
21,1,0.7000,1.0000,0,0,180.0*
21,1,0.4500,1.2500,0,0,180.0*
1,1,0.2500,-0.2250,0.5000*
1,1,0.2500,0.2250,0.5000*
1,1,0.2500,0.2250,-0.5000*
1,1,0.2500,-0.2250,-0.5000*
%
%ADD86ROUNDEDRECTD86*%
%ADD87R,0.8032X1.4032*%
%ADD88R,1.1032X1.7032*%
%ADD89R,3.3032X3.3032*%
%ADD90O,1.2000X0.5000*%
%ADD91O,0.5000X1.2000*%
%ADD92R,1.2532X1.5032*%
%ADD93R,2.7532X2.7532*%
%ADD94C,2.7532*%
%ADD95C,1.7112*%
%ADD96C,1.5700*%
%ADD97R,1.5700X1.5700*%
%ADD98C,5.2032*%
%ADD99O,1.2032X2.3032*%
%ADD100C,0.7500*%
%ADD101O,1.2032X2.0032*%
%ADD102C,0.9000*%
%ADD103C,0.6532*%
%ADD104C,1.2032*%
%ADD105C,0.7032*%
%ADD106C,0.8032*%
G36*
X298700Y386250D02*
X274700D01*
Y394250D01*
X298700D01*
Y386250D01*
D02*
G37*
G36*
X246700D02*
X222700D01*
Y394250D01*
X246700D01*
Y386250D01*
D02*
G37*
G36*
X298700Y373750D02*
X274700D01*
Y381750D01*
X298700D01*
Y373750D01*
D02*
G37*
G36*
X246700D02*
X222700D01*
Y381750D01*
X246700D01*
Y373750D01*
D02*
G37*
G36*
X298700Y360750D02*
X274700D01*
Y368750D01*
X298700D01*
Y360750D01*
D02*
G37*
G36*
X246700D02*
X222700D01*
Y368750D01*
X246700D01*
Y360750D01*
D02*
G37*
G36*
X298700Y348250D02*
X274700D01*
Y356250D01*
X298700D01*
Y348250D01*
D02*
G37*
G36*
X230380Y131990D02*
X230440D01*
X230500Y131970D01*
X230560Y131960D01*
X230620Y131940D01*
X230680Y131920D01*
X230740Y131900D01*
X230790Y131870D01*
X230850Y131840D01*
X230900Y131810D01*
X230960Y131770D01*
X231010Y131730D01*
X231050Y131690D01*
X231100Y131650D01*
X231140Y131600D01*
X231180Y131560D01*
X231220Y131510D01*
X231260Y131450D01*
X231290Y131400D01*
X231320Y131340D01*
X231350Y131290D01*
X231370Y131230D01*
X231390Y131170D01*
X231410Y131110D01*
X231420Y131050D01*
X231440Y130990D01*
Y130930D01*
X231450Y130860D01*
Y130800D01*
Y128700D01*
Y128640D01*
X231440Y128570D01*
Y128510D01*
X231420Y128450D01*
X231410Y128390D01*
X231390Y128330D01*
X231370Y128270D01*
X231350Y128210D01*
X231320Y128160D01*
X231290Y128100D01*
X231260Y128050D01*
X231220Y127990D01*
X231180Y127940D01*
X231140Y127900D01*
X231100Y127850D01*
X231050Y127810D01*
X231010Y127770D01*
X230960Y127730D01*
X230900Y127690D01*
X230850Y127660D01*
X230790Y127630D01*
X230740Y127600D01*
X230680Y127580D01*
X230620Y127560D01*
X230560Y127540D01*
X230500Y127530D01*
X230440Y127510D01*
X230380D01*
X230310Y127500D01*
X225190D01*
X225120Y127510D01*
X225060D01*
X225000Y127530D01*
X224940Y127540D01*
X224880Y127560D01*
X224820Y127580D01*
X224760Y127600D01*
X224710Y127630D01*
X224650Y127660D01*
X224600Y127690D01*
X224540Y127730D01*
X224490Y127770D01*
X224450Y127810D01*
X224400Y127850D01*
X224360Y127900D01*
X224320Y127940D01*
X224280Y127990D01*
X224240Y128050D01*
X224210Y128100D01*
X224180Y128160D01*
X224150Y128210D01*
X224130Y128270D01*
X224110Y128330D01*
X224090Y128390D01*
X224080Y128450D01*
X224060Y128510D01*
Y128570D01*
X224050Y128640D01*
Y128700D01*
Y130800D01*
Y130860D01*
X224060Y130930D01*
Y130990D01*
X224080Y131050D01*
X224090Y131110D01*
X224110Y131170D01*
X224130Y131230D01*
X224150Y131290D01*
X224180Y131340D01*
X224210Y131400D01*
X224240Y131450D01*
X224280Y131510D01*
X224320Y131560D01*
X224360Y131600D01*
X224400Y131650D01*
X224450Y131690D01*
X224490Y131730D01*
X224540Y131770D01*
X224600Y131810D01*
X224650Y131840D01*
X224710Y131870D01*
X224760Y131900D01*
X224820Y131920D01*
X224880Y131940D01*
X224940Y131960D01*
X225000Y131970D01*
X225060Y131990D01*
X225120D01*
X225190Y132000D01*
X230310D01*
X230380Y131990D01*
D02*
G37*
G36*
X202380D02*
X202440D01*
X202500Y131970D01*
X202560Y131960D01*
X202620Y131940D01*
X202680Y131920D01*
X202740Y131900D01*
X202790Y131870D01*
X202850Y131840D01*
X202900Y131810D01*
X202960Y131770D01*
X203010Y131730D01*
X203050Y131690D01*
X203100Y131650D01*
X203140Y131600D01*
X203180Y131560D01*
X203220Y131510D01*
X203260Y131450D01*
X203290Y131400D01*
X203320Y131340D01*
X203350Y131290D01*
X203370Y131230D01*
X203390Y131170D01*
X203410Y131110D01*
X203420Y131050D01*
X203440Y130990D01*
Y130930D01*
X203450Y130860D01*
Y130800D01*
Y128700D01*
Y128640D01*
X203440Y128570D01*
Y128510D01*
X203420Y128450D01*
X203410Y128390D01*
X203390Y128330D01*
X203370Y128270D01*
X203350Y128210D01*
X203320Y128160D01*
X203290Y128100D01*
X203260Y128050D01*
X203220Y127990D01*
X203180Y127940D01*
X203140Y127900D01*
X203100Y127850D01*
X203050Y127810D01*
X203010Y127770D01*
X202960Y127730D01*
X202900Y127690D01*
X202850Y127660D01*
X202790Y127630D01*
X202740Y127600D01*
X202680Y127580D01*
X202620Y127560D01*
X202560Y127540D01*
X202500Y127530D01*
X202440Y127510D01*
X202380D01*
X202310Y127500D01*
X197190D01*
X197120Y127510D01*
X197060D01*
X197000Y127530D01*
X196940Y127540D01*
X196880Y127560D01*
X196820Y127580D01*
X196760Y127600D01*
X196710Y127630D01*
X196650Y127660D01*
X196600Y127690D01*
X196540Y127730D01*
X196490Y127770D01*
X196450Y127810D01*
X196400Y127850D01*
X196360Y127900D01*
X196320Y127940D01*
X196280Y127990D01*
X196240Y128050D01*
X196210Y128100D01*
X196180Y128160D01*
X196150Y128210D01*
X196130Y128270D01*
X196110Y128330D01*
X196090Y128390D01*
X196080Y128450D01*
X196060Y128510D01*
Y128570D01*
X196050Y128640D01*
Y128700D01*
Y130800D01*
Y130860D01*
X196060Y130930D01*
Y130990D01*
X196080Y131050D01*
X196090Y131110D01*
X196110Y131170D01*
X196130Y131230D01*
X196150Y131290D01*
X196180Y131340D01*
X196210Y131400D01*
X196240Y131450D01*
X196280Y131510D01*
X196320Y131560D01*
X196360Y131600D01*
X196400Y131650D01*
X196450Y131690D01*
X196490Y131730D01*
X196540Y131770D01*
X196600Y131810D01*
X196650Y131840D01*
X196710Y131870D01*
X196760Y131900D01*
X196820Y131920D01*
X196880Y131940D01*
X196940Y131960D01*
X197000Y131970D01*
X197060Y131990D01*
X197120D01*
X197190Y132000D01*
X202310D01*
X202380Y131990D01*
D02*
G37*
G36*
X230380Y125490D02*
X230440D01*
X230500Y125470D01*
X230560Y125460D01*
X230620Y125440D01*
X230680Y125420D01*
X230740Y125400D01*
X230790Y125370D01*
X230850Y125340D01*
X230900Y125310D01*
X230960Y125270D01*
X231010Y125230D01*
X231050Y125190D01*
X231100Y125150D01*
X231140Y125100D01*
X231180Y125060D01*
X231220Y125010D01*
X231260Y124950D01*
X231290Y124900D01*
X231320Y124840D01*
X231350Y124790D01*
X231370Y124730D01*
X231390Y124670D01*
X231410Y124610D01*
X231420Y124550D01*
X231440Y124490D01*
Y124430D01*
X231450Y124360D01*
Y124300D01*
Y122200D01*
Y122140D01*
X231440Y122070D01*
Y122010D01*
X231420Y121950D01*
X231410Y121890D01*
X231390Y121830D01*
X231370Y121770D01*
X231350Y121710D01*
X231320Y121660D01*
X231290Y121600D01*
X231260Y121550D01*
X231220Y121490D01*
X231180Y121440D01*
X231140Y121400D01*
X231100Y121350D01*
X231050Y121310D01*
X231010Y121270D01*
X230960Y121230D01*
X230900Y121190D01*
X230850Y121160D01*
X230790Y121130D01*
X230740Y121100D01*
X230680Y121080D01*
X230620Y121060D01*
X230560Y121040D01*
X230500Y121030D01*
X230440Y121010D01*
X230380D01*
X230310Y121000D01*
X225190D01*
X225120Y121010D01*
X225060D01*
X225000Y121030D01*
X224940Y121040D01*
X224880Y121060D01*
X224820Y121080D01*
X224760Y121100D01*
X224710Y121130D01*
X224650Y121160D01*
X224600Y121190D01*
X224540Y121230D01*
X224490Y121270D01*
X224450Y121310D01*
X224400Y121350D01*
X224360Y121400D01*
X224320Y121440D01*
X224280Y121490D01*
X224240Y121550D01*
X224210Y121600D01*
X224180Y121660D01*
X224150Y121710D01*
X224130Y121770D01*
X224110Y121830D01*
X224090Y121890D01*
X224080Y121950D01*
X224060Y122010D01*
Y122070D01*
X224050Y122140D01*
Y122200D01*
Y124300D01*
Y124360D01*
X224060Y124430D01*
Y124490D01*
X224080Y124550D01*
X224090Y124610D01*
X224110Y124670D01*
X224130Y124730D01*
X224150Y124790D01*
X224180Y124840D01*
X224210Y124900D01*
X224240Y124950D01*
X224280Y125010D01*
X224320Y125060D01*
X224360Y125100D01*
X224400Y125150D01*
X224450Y125190D01*
X224490Y125230D01*
X224540Y125270D01*
X224600Y125310D01*
X224650Y125340D01*
X224710Y125370D01*
X224760Y125400D01*
X224820Y125420D01*
X224880Y125440D01*
X224940Y125460D01*
X225000Y125470D01*
X225060Y125490D01*
X225120D01*
X225190Y125500D01*
X230310D01*
X230380Y125490D01*
D02*
G37*
G36*
X202380D02*
X202440D01*
X202500Y125470D01*
X202560Y125460D01*
X202620Y125440D01*
X202680Y125420D01*
X202740Y125400D01*
X202790Y125370D01*
X202850Y125340D01*
X202900Y125310D01*
X202960Y125270D01*
X203010Y125230D01*
X203050Y125190D01*
X203100Y125150D01*
X203140Y125100D01*
X203180Y125060D01*
X203220Y125010D01*
X203260Y124950D01*
X203290Y124900D01*
X203320Y124840D01*
X203350Y124790D01*
X203370Y124730D01*
X203390Y124670D01*
X203410Y124610D01*
X203420Y124550D01*
X203440Y124490D01*
Y124430D01*
X203450Y124360D01*
Y124300D01*
Y122200D01*
Y122140D01*
X203440Y122070D01*
Y122010D01*
X203420Y121950D01*
X203410Y121890D01*
X203390Y121830D01*
X203370Y121770D01*
X203350Y121710D01*
X203320Y121660D01*
X203290Y121600D01*
X203260Y121550D01*
X203220Y121490D01*
X203180Y121440D01*
X203140Y121400D01*
X203100Y121350D01*
X203050Y121310D01*
X203010Y121270D01*
X202960Y121230D01*
X202900Y121190D01*
X202850Y121160D01*
X202790Y121130D01*
X202740Y121100D01*
X202680Y121080D01*
X202620Y121060D01*
X202560Y121040D01*
X202500Y121030D01*
X202440Y121010D01*
X202380D01*
X202310Y121000D01*
X197190D01*
X197120Y121010D01*
X197060D01*
X197000Y121030D01*
X196940Y121040D01*
X196880Y121060D01*
X196820Y121080D01*
X196760Y121100D01*
X196710Y121130D01*
X196650Y121160D01*
X196600Y121190D01*
X196540Y121230D01*
X196490Y121270D01*
X196450Y121310D01*
X196400Y121350D01*
X196360Y121400D01*
X196320Y121440D01*
X196280Y121490D01*
X196240Y121550D01*
X196210Y121600D01*
X196180Y121660D01*
X196150Y121710D01*
X196130Y121770D01*
X196110Y121830D01*
X196090Y121890D01*
X196080Y121950D01*
X196060Y122010D01*
Y122070D01*
X196050Y122140D01*
Y122200D01*
Y124300D01*
Y124360D01*
X196060Y124430D01*
Y124490D01*
X196080Y124550D01*
X196090Y124610D01*
X196110Y124670D01*
X196130Y124730D01*
X196150Y124790D01*
X196180Y124840D01*
X196210Y124900D01*
X196240Y124950D01*
X196280Y125010D01*
X196320Y125060D01*
X196360Y125100D01*
X196400Y125150D01*
X196450Y125190D01*
X196490Y125230D01*
X196540Y125270D01*
X196600Y125310D01*
X196650Y125340D01*
X196710Y125370D01*
X196760Y125400D01*
X196820Y125420D01*
X196880Y125440D01*
X196940Y125460D01*
X197000Y125470D01*
X197060Y125490D01*
X197120D01*
X197190Y125500D01*
X202310D01*
X202380Y125490D01*
D02*
G37*
G36*
X230380Y118990D02*
X230440D01*
X230500Y118970D01*
X230560Y118960D01*
X230620Y118940D01*
X230680Y118920D01*
X230740Y118900D01*
X230790Y118870D01*
X230850Y118840D01*
X230900Y118810D01*
X230960Y118770D01*
X231010Y118730D01*
X231050Y118690D01*
X231100Y118650D01*
X231140Y118600D01*
X231180Y118560D01*
X231220Y118510D01*
X231260Y118450D01*
X231290Y118400D01*
X231320Y118340D01*
X231350Y118290D01*
X231370Y118230D01*
X231390Y118170D01*
X231410Y118110D01*
X231420Y118050D01*
X231440Y117990D01*
Y117930D01*
X231450Y117860D01*
Y117800D01*
Y115700D01*
Y115640D01*
X231440Y115570D01*
Y115510D01*
X231420Y115450D01*
X231410Y115390D01*
X231390Y115330D01*
X231370Y115270D01*
X231350Y115210D01*
X231320Y115160D01*
X231290Y115100D01*
X231260Y115050D01*
X231220Y114990D01*
X231180Y114940D01*
X231140Y114900D01*
X231100Y114850D01*
X231050Y114810D01*
X231010Y114770D01*
X230960Y114730D01*
X230900Y114690D01*
X230850Y114660D01*
X230790Y114630D01*
X230740Y114600D01*
X230680Y114580D01*
X230620Y114560D01*
X230560Y114540D01*
X230500Y114530D01*
X230440Y114510D01*
X230380D01*
X230310Y114500D01*
X225190D01*
X225120Y114510D01*
X225060D01*
X225000Y114530D01*
X224940Y114540D01*
X224880Y114560D01*
X224820Y114580D01*
X224760Y114600D01*
X224710Y114630D01*
X224650Y114660D01*
X224600Y114690D01*
X224540Y114730D01*
X224490Y114770D01*
X224450Y114810D01*
X224400Y114850D01*
X224360Y114900D01*
X224320Y114940D01*
X224280Y114990D01*
X224240Y115050D01*
X224210Y115100D01*
X224180Y115160D01*
X224150Y115210D01*
X224130Y115270D01*
X224110Y115330D01*
X224090Y115390D01*
X224080Y115450D01*
X224060Y115510D01*
Y115570D01*
X224050Y115640D01*
Y115700D01*
Y117800D01*
Y117860D01*
X224060Y117930D01*
Y117990D01*
X224080Y118050D01*
X224090Y118110D01*
X224110Y118170D01*
X224130Y118230D01*
X224150Y118290D01*
X224180Y118340D01*
X224210Y118400D01*
X224240Y118450D01*
X224280Y118510D01*
X224320Y118560D01*
X224360Y118600D01*
X224400Y118650D01*
X224450Y118690D01*
X224490Y118730D01*
X224540Y118770D01*
X224600Y118810D01*
X224650Y118840D01*
X224710Y118870D01*
X224760Y118900D01*
X224820Y118920D01*
X224880Y118940D01*
X224940Y118960D01*
X225000Y118970D01*
X225060Y118990D01*
X225120D01*
X225190Y119000D01*
X230310D01*
X230380Y118990D01*
D02*
G37*
G36*
X202380D02*
X202440D01*
X202500Y118970D01*
X202560Y118960D01*
X202620Y118940D01*
X202680Y118920D01*
X202740Y118900D01*
X202790Y118870D01*
X202850Y118840D01*
X202900Y118810D01*
X202960Y118770D01*
X203010Y118730D01*
X203050Y118690D01*
X203100Y118650D01*
X203140Y118600D01*
X203180Y118560D01*
X203220Y118510D01*
X203260Y118450D01*
X203290Y118400D01*
X203320Y118340D01*
X203350Y118290D01*
X203370Y118230D01*
X203390Y118170D01*
X203410Y118110D01*
X203420Y118050D01*
X203440Y117990D01*
Y117930D01*
X203450Y117860D01*
Y117800D01*
Y115700D01*
Y115640D01*
X203440Y115570D01*
Y115510D01*
X203420Y115450D01*
X203410Y115390D01*
X203390Y115330D01*
X203370Y115270D01*
X203350Y115210D01*
X203320Y115160D01*
X203290Y115100D01*
X203260Y115050D01*
X203220Y114990D01*
X203180Y114940D01*
X203140Y114900D01*
X203100Y114850D01*
X203050Y114810D01*
X203010Y114770D01*
X202960Y114730D01*
X202900Y114690D01*
X202850Y114660D01*
X202790Y114630D01*
X202740Y114600D01*
X202680Y114580D01*
X202620Y114560D01*
X202560Y114540D01*
X202500Y114530D01*
X202440Y114510D01*
X202380D01*
X202310Y114500D01*
X197190D01*
X197120Y114510D01*
X197060D01*
X197000Y114530D01*
X196940Y114540D01*
X196880Y114560D01*
X196820Y114580D01*
X196760Y114600D01*
X196710Y114630D01*
X196650Y114660D01*
X196600Y114690D01*
X196540Y114730D01*
X196490Y114770D01*
X196450Y114810D01*
X196400Y114850D01*
X196360Y114900D01*
X196320Y114940D01*
X196280Y114990D01*
X196240Y115050D01*
X196210Y115100D01*
X196180Y115160D01*
X196150Y115210D01*
X196130Y115270D01*
X196110Y115330D01*
X196090Y115390D01*
X196080Y115450D01*
X196060Y115510D01*
Y115570D01*
X196050Y115640D01*
Y115700D01*
Y117800D01*
Y117860D01*
X196060Y117930D01*
Y117990D01*
X196080Y118050D01*
X196090Y118110D01*
X196110Y118170D01*
X196130Y118230D01*
X196150Y118290D01*
X196180Y118340D01*
X196210Y118400D01*
X196240Y118450D01*
X196280Y118510D01*
X196320Y118560D01*
X196360Y118600D01*
X196400Y118650D01*
X196450Y118690D01*
X196490Y118730D01*
X196540Y118770D01*
X196600Y118810D01*
X196650Y118840D01*
X196710Y118870D01*
X196760Y118900D01*
X196820Y118920D01*
X196880Y118940D01*
X196940Y118960D01*
X197000Y118970D01*
X197060Y118990D01*
X197120D01*
X197190Y119000D01*
X202310D01*
X202380Y118990D01*
D02*
G37*
G36*
X230380Y112490D02*
X230440D01*
X230500Y112470D01*
X230560Y112460D01*
X230620Y112440D01*
X230680Y112420D01*
X230740Y112400D01*
X230790Y112370D01*
X230850Y112340D01*
X230900Y112310D01*
X230960Y112270D01*
X231010Y112230D01*
X231050Y112190D01*
X231100Y112150D01*
X231140Y112100D01*
X231180Y112060D01*
X231220Y112010D01*
X231260Y111950D01*
X231290Y111900D01*
X231320Y111840D01*
X231350Y111790D01*
X231370Y111730D01*
X231390Y111670D01*
X231410Y111610D01*
X231420Y111550D01*
X231440Y111490D01*
Y111430D01*
X231450Y111360D01*
Y111300D01*
Y109200D01*
Y109140D01*
X231440Y109070D01*
Y109010D01*
X231420Y108950D01*
X231410Y108890D01*
X231390Y108830D01*
X231370Y108770D01*
X231350Y108710D01*
X231320Y108660D01*
X231290Y108600D01*
X231260Y108550D01*
X231220Y108490D01*
X231180Y108440D01*
X231140Y108400D01*
X231100Y108350D01*
X231050Y108310D01*
X231010Y108270D01*
X230960Y108230D01*
X230900Y108190D01*
X230850Y108160D01*
X230790Y108130D01*
X230740Y108100D01*
X230680Y108080D01*
X230620Y108060D01*
X230560Y108040D01*
X230500Y108030D01*
X230440Y108010D01*
X230380D01*
X230310Y108000D01*
X225190D01*
X225120Y108010D01*
X225060D01*
X225000Y108030D01*
X224940Y108040D01*
X224880Y108060D01*
X224820Y108080D01*
X224760Y108100D01*
X224710Y108130D01*
X224650Y108160D01*
X224600Y108190D01*
X224540Y108230D01*
X224490Y108270D01*
X224450Y108310D01*
X224400Y108350D01*
X224360Y108400D01*
X224320Y108440D01*
X224280Y108490D01*
X224240Y108550D01*
X224210Y108600D01*
X224180Y108660D01*
X224150Y108710D01*
X224130Y108770D01*
X224110Y108830D01*
X224090Y108890D01*
X224080Y108950D01*
X224060Y109010D01*
Y109070D01*
X224050Y109140D01*
Y109200D01*
Y111300D01*
Y111360D01*
X224060Y111430D01*
Y111490D01*
X224080Y111550D01*
X224090Y111610D01*
X224110Y111670D01*
X224130Y111730D01*
X224150Y111790D01*
X224180Y111840D01*
X224210Y111900D01*
X224240Y111950D01*
X224280Y112010D01*
X224320Y112060D01*
X224360Y112100D01*
X224400Y112150D01*
X224450Y112190D01*
X224490Y112230D01*
X224540Y112270D01*
X224600Y112310D01*
X224650Y112340D01*
X224710Y112370D01*
X224760Y112400D01*
X224820Y112420D01*
X224880Y112440D01*
X224940Y112460D01*
X225000Y112470D01*
X225060Y112490D01*
X225120D01*
X225190Y112500D01*
X230310D01*
X230380Y112490D01*
D02*
G37*
G36*
X202380D02*
X202440D01*
X202500Y112470D01*
X202560Y112460D01*
X202620Y112440D01*
X202680Y112420D01*
X202740Y112400D01*
X202790Y112370D01*
X202850Y112340D01*
X202900Y112310D01*
X202960Y112270D01*
X203010Y112230D01*
X203050Y112190D01*
X203100Y112150D01*
X203140Y112100D01*
X203180Y112060D01*
X203220Y112010D01*
X203260Y111950D01*
X203290Y111900D01*
X203320Y111840D01*
X203350Y111790D01*
X203370Y111730D01*
X203390Y111670D01*
X203410Y111610D01*
X203420Y111550D01*
X203440Y111490D01*
Y111430D01*
X203450Y111360D01*
Y111300D01*
Y109200D01*
Y109140D01*
X203440Y109070D01*
Y109010D01*
X203420Y108950D01*
X203410Y108890D01*
X203390Y108830D01*
X203370Y108770D01*
X203350Y108710D01*
X203320Y108660D01*
X203290Y108600D01*
X203260Y108550D01*
X203220Y108490D01*
X203180Y108440D01*
X203140Y108400D01*
X203100Y108350D01*
X203050Y108310D01*
X203010Y108270D01*
X202960Y108230D01*
X202900Y108190D01*
X202850Y108160D01*
X202790Y108130D01*
X202740Y108100D01*
X202680Y108080D01*
X202620Y108060D01*
X202560Y108040D01*
X202500Y108030D01*
X202440Y108010D01*
X202380D01*
X202310Y108000D01*
X197190D01*
X197120Y108010D01*
X197060D01*
X197000Y108030D01*
X196940Y108040D01*
X196880Y108060D01*
X196820Y108080D01*
X196760Y108100D01*
X196710Y108130D01*
X196650Y108160D01*
X196600Y108190D01*
X196540Y108230D01*
X196490Y108270D01*
X196450Y108310D01*
X196400Y108350D01*
X196360Y108400D01*
X196320Y108440D01*
X196280Y108490D01*
X196240Y108550D01*
X196210Y108600D01*
X196180Y108660D01*
X196150Y108710D01*
X196130Y108770D01*
X196110Y108830D01*
X196090Y108890D01*
X196080Y108950D01*
X196060Y109010D01*
Y109070D01*
X196050Y109140D01*
Y109200D01*
Y111300D01*
Y111360D01*
X196060Y111430D01*
Y111490D01*
X196080Y111550D01*
X196090Y111610D01*
X196110Y111670D01*
X196130Y111730D01*
X196150Y111790D01*
X196180Y111840D01*
X196210Y111900D01*
X196240Y111950D01*
X196280Y112010D01*
X196320Y112060D01*
X196360Y112100D01*
X196400Y112150D01*
X196450Y112190D01*
X196490Y112230D01*
X196540Y112270D01*
X196600Y112310D01*
X196650Y112340D01*
X196710Y112370D01*
X196760Y112400D01*
X196820Y112420D01*
X196880Y112440D01*
X196940Y112460D01*
X197000Y112470D01*
X197060Y112490D01*
X197120D01*
X197190Y112500D01*
X202310D01*
X202380Y112490D01*
D02*
G37*
G36*
X221630Y132690D02*
X221690D01*
X221750Y132670D01*
X221810Y132660D01*
X221870Y132640D01*
X221930Y132620D01*
X221990Y132600D01*
X222040Y132570D01*
X222100Y132540D01*
X222150Y132510D01*
X222210Y132470D01*
X222260Y132430D01*
X222300Y132390D01*
X222350Y132350D01*
X222390Y132300D01*
X222430Y132260D01*
X222470Y132210D01*
X222510Y132150D01*
X222540Y132100D01*
X222570Y132040D01*
X222600Y131990D01*
X222620Y131930D01*
X222640Y131870D01*
X222660Y131810D01*
X222670Y131750D01*
X222690Y131690D01*
Y131630D01*
X222700Y131560D01*
Y131500D01*
Y108500D01*
Y108440D01*
X222690Y108370D01*
Y108310D01*
X222670Y108250D01*
X222660Y108190D01*
X222640Y108130D01*
X222620Y108070D01*
X222600Y108010D01*
X222570Y107960D01*
X222540Y107900D01*
X222510Y107850D01*
X222470Y107790D01*
X222430Y107740D01*
X222390Y107700D01*
X222350Y107650D01*
X222300Y107610D01*
X222260Y107570D01*
X222210Y107530D01*
X222150Y107490D01*
X222100Y107460D01*
X222040Y107430D01*
X221990Y107400D01*
X221930Y107380D01*
X221870Y107360D01*
X221810Y107340D01*
X221750Y107330D01*
X221690Y107310D01*
X221630D01*
X221560Y107300D01*
X205940D01*
X205870Y107310D01*
X205810D01*
X205750Y107330D01*
X205690Y107340D01*
X205630Y107360D01*
X205570Y107380D01*
X205510Y107400D01*
X205460Y107430D01*
X205400Y107460D01*
X205350Y107490D01*
X205290Y107530D01*
X205240Y107570D01*
X205200Y107610D01*
X205150Y107650D01*
X205110Y107700D01*
X205070Y107740D01*
X205030Y107790D01*
X204990Y107850D01*
X204960Y107900D01*
X204930Y107960D01*
X204900Y108010D01*
X204880Y108070D01*
X204860Y108130D01*
X204840Y108190D01*
X204830Y108250D01*
X204810Y108310D01*
Y108370D01*
X204800Y108440D01*
Y108500D01*
Y131500D01*
Y131560D01*
X204810Y131630D01*
Y131690D01*
X204830Y131750D01*
X204840Y131810D01*
X204860Y131870D01*
X204880Y131930D01*
X204900Y131990D01*
X204930Y132040D01*
X204960Y132100D01*
X204990Y132150D01*
X205030Y132210D01*
X205070Y132260D01*
X205110Y132300D01*
X205150Y132350D01*
X205200Y132390D01*
X205240Y132430D01*
X205290Y132470D01*
X205350Y132510D01*
X205400Y132540D01*
X205460Y132570D01*
X205510Y132600D01*
X205570Y132620D01*
X205630Y132640D01*
X205690Y132660D01*
X205750Y132670D01*
X205810Y132690D01*
X205870D01*
X205940Y132700D01*
X221560D01*
X221630Y132690D01*
D02*
G37*
G36*
X92930Y106940D02*
X92990D01*
X93050Y106920D01*
X93110Y106910D01*
X93170Y106890D01*
X93230Y106870D01*
X93290Y106850D01*
X93340Y106820D01*
X93400Y106790D01*
X93450Y106760D01*
X93510Y106720D01*
X93560Y106680D01*
X93600Y106640D01*
X93650Y106600D01*
X93690Y106550D01*
X93730Y106510D01*
X93770Y106460D01*
X93810Y106400D01*
X93840Y106350D01*
X93870Y106290D01*
X93900Y106240D01*
X93920Y106180D01*
X93940Y106120D01*
X93960Y106060D01*
X93970Y106000D01*
X93990Y105940D01*
Y105880D01*
X94000Y105810D01*
Y100690D01*
X93990Y100620D01*
Y100560D01*
X93970Y100500D01*
X93960Y100440D01*
X93940Y100380D01*
X93920Y100320D01*
X93900Y100260D01*
X93870Y100210D01*
X93840Y100150D01*
X93810Y100100D01*
X93770Y100040D01*
X93730Y99990D01*
X93690Y99950D01*
X93650Y99900D01*
X93600Y99860D01*
X93560Y99820D01*
X93510Y99780D01*
X93450Y99740D01*
X93400Y99710D01*
X93340Y99680D01*
X93290Y99650D01*
X93230Y99630D01*
X93170Y99610D01*
X93110Y99590D01*
X93050Y99580D01*
X92990Y99560D01*
X92930D01*
X92860Y99550D01*
X90640D01*
X90570Y99560D01*
X90510D01*
X90450Y99580D01*
X90390Y99590D01*
X90330Y99610D01*
X90270Y99630D01*
X90210Y99650D01*
X90160Y99680D01*
X90100Y99710D01*
X90050Y99740D01*
X89990Y99780D01*
X89940Y99820D01*
X89900Y99860D01*
X89850Y99900D01*
X89810Y99950D01*
X89770Y99990D01*
X89730Y100040D01*
X89690Y100100D01*
X89660Y100150D01*
X89630Y100210D01*
X89600Y100260D01*
X89580Y100320D01*
X89560Y100380D01*
X89540Y100440D01*
X89530Y100500D01*
X89510Y100560D01*
Y100620D01*
X89500Y100690D01*
Y105810D01*
X89510Y105880D01*
Y105940D01*
X89530Y106000D01*
X89540Y106060D01*
X89560Y106120D01*
X89580Y106180D01*
X89600Y106240D01*
X89630Y106290D01*
X89660Y106350D01*
X89690Y106400D01*
X89730Y106460D01*
X89770Y106510D01*
X89810Y106550D01*
X89850Y106600D01*
X89900Y106640D01*
X89940Y106680D01*
X89990Y106720D01*
X90050Y106760D01*
X90100Y106790D01*
X90160Y106820D01*
X90210Y106850D01*
X90270Y106870D01*
X90330Y106890D01*
X90390Y106910D01*
X90450Y106920D01*
X90510Y106940D01*
X90570D01*
X90640Y106950D01*
X92860D01*
X92930Y106940D01*
D02*
G37*
G36*
X86430D02*
X86490D01*
X86550Y106920D01*
X86610Y106910D01*
X86670Y106890D01*
X86730Y106870D01*
X86790Y106850D01*
X86840Y106820D01*
X86900Y106790D01*
X86950Y106760D01*
X87010Y106720D01*
X87060Y106680D01*
X87100Y106640D01*
X87150Y106600D01*
X87190Y106550D01*
X87230Y106510D01*
X87270Y106460D01*
X87310Y106400D01*
X87340Y106350D01*
X87370Y106290D01*
X87400Y106240D01*
X87420Y106180D01*
X87440Y106120D01*
X87460Y106060D01*
X87470Y106000D01*
X87490Y105940D01*
Y105880D01*
X87500Y105810D01*
Y100690D01*
X87490Y100620D01*
Y100560D01*
X87470Y100500D01*
X87460Y100440D01*
X87440Y100380D01*
X87420Y100320D01*
X87400Y100260D01*
X87370Y100210D01*
X87340Y100150D01*
X87310Y100100D01*
X87270Y100040D01*
X87230Y99990D01*
X87190Y99950D01*
X87150Y99900D01*
X87100Y99860D01*
X87060Y99820D01*
X87010Y99780D01*
X86950Y99740D01*
X86900Y99710D01*
X86840Y99680D01*
X86790Y99650D01*
X86730Y99630D01*
X86670Y99610D01*
X86610Y99590D01*
X86550Y99580D01*
X86490Y99560D01*
X86430D01*
X86360Y99550D01*
X84140D01*
X84070Y99560D01*
X84010D01*
X83950Y99580D01*
X83890Y99590D01*
X83830Y99610D01*
X83770Y99630D01*
X83710Y99650D01*
X83660Y99680D01*
X83600Y99710D01*
X83550Y99740D01*
X83490Y99780D01*
X83440Y99820D01*
X83400Y99860D01*
X83350Y99900D01*
X83310Y99950D01*
X83270Y99990D01*
X83230Y100040D01*
X83190Y100100D01*
X83160Y100150D01*
X83130Y100210D01*
X83100Y100260D01*
X83080Y100320D01*
X83060Y100380D01*
X83040Y100440D01*
X83030Y100500D01*
X83010Y100560D01*
Y100620D01*
X83000Y100690D01*
Y105810D01*
X83010Y105880D01*
Y105940D01*
X83030Y106000D01*
X83040Y106060D01*
X83060Y106120D01*
X83080Y106180D01*
X83100Y106240D01*
X83130Y106290D01*
X83160Y106350D01*
X83190Y106400D01*
X83230Y106460D01*
X83270Y106510D01*
X83310Y106550D01*
X83350Y106600D01*
X83400Y106640D01*
X83440Y106680D01*
X83490Y106720D01*
X83550Y106760D01*
X83600Y106790D01*
X83660Y106820D01*
X83710Y106850D01*
X83770Y106870D01*
X83830Y106890D01*
X83890Y106910D01*
X83950Y106920D01*
X84010Y106940D01*
X84070D01*
X84140Y106950D01*
X86360D01*
X86430Y106940D01*
D02*
G37*
G36*
X79930D02*
X79990D01*
X80050Y106920D01*
X80110Y106910D01*
X80170Y106890D01*
X80230Y106870D01*
X80290Y106850D01*
X80340Y106820D01*
X80400Y106790D01*
X80450Y106760D01*
X80510Y106720D01*
X80560Y106680D01*
X80600Y106640D01*
X80650Y106600D01*
X80690Y106550D01*
X80730Y106510D01*
X80770Y106460D01*
X80810Y106400D01*
X80840Y106350D01*
X80870Y106290D01*
X80900Y106240D01*
X80920Y106180D01*
X80940Y106120D01*
X80960Y106060D01*
X80970Y106000D01*
X80990Y105940D01*
Y105880D01*
X81000Y105810D01*
Y100690D01*
X80990Y100620D01*
Y100560D01*
X80970Y100500D01*
X80960Y100440D01*
X80940Y100380D01*
X80920Y100320D01*
X80900Y100260D01*
X80870Y100210D01*
X80840Y100150D01*
X80810Y100100D01*
X80770Y100040D01*
X80730Y99990D01*
X80690Y99950D01*
X80650Y99900D01*
X80600Y99860D01*
X80560Y99820D01*
X80510Y99780D01*
X80450Y99740D01*
X80400Y99710D01*
X80340Y99680D01*
X80290Y99650D01*
X80230Y99630D01*
X80170Y99610D01*
X80110Y99590D01*
X80050Y99580D01*
X79990Y99560D01*
X79930D01*
X79860Y99550D01*
X77640D01*
X77570Y99560D01*
X77510D01*
X77450Y99580D01*
X77390Y99590D01*
X77330Y99610D01*
X77270Y99630D01*
X77210Y99650D01*
X77160Y99680D01*
X77100Y99710D01*
X77050Y99740D01*
X76990Y99780D01*
X76940Y99820D01*
X76900Y99860D01*
X76850Y99900D01*
X76810Y99950D01*
X76770Y99990D01*
X76730Y100040D01*
X76690Y100100D01*
X76660Y100150D01*
X76630Y100210D01*
X76600Y100260D01*
X76580Y100320D01*
X76560Y100380D01*
X76540Y100440D01*
X76530Y100500D01*
X76510Y100560D01*
Y100620D01*
X76500Y100690D01*
Y105810D01*
X76510Y105880D01*
Y105940D01*
X76530Y106000D01*
X76540Y106060D01*
X76560Y106120D01*
X76580Y106180D01*
X76600Y106240D01*
X76630Y106290D01*
X76660Y106350D01*
X76690Y106400D01*
X76730Y106460D01*
X76770Y106510D01*
X76810Y106550D01*
X76850Y106600D01*
X76900Y106640D01*
X76940Y106680D01*
X76990Y106720D01*
X77050Y106760D01*
X77100Y106790D01*
X77160Y106820D01*
X77210Y106850D01*
X77270Y106870D01*
X77330Y106890D01*
X77390Y106910D01*
X77450Y106920D01*
X77510Y106940D01*
X77570D01*
X77640Y106950D01*
X79860D01*
X79930Y106940D01*
D02*
G37*
G36*
X73430D02*
X73490D01*
X73550Y106920D01*
X73610Y106910D01*
X73670Y106890D01*
X73730Y106870D01*
X73790Y106850D01*
X73840Y106820D01*
X73900Y106790D01*
X73950Y106760D01*
X74010Y106720D01*
X74060Y106680D01*
X74100Y106640D01*
X74150Y106600D01*
X74190Y106550D01*
X74230Y106510D01*
X74270Y106460D01*
X74310Y106400D01*
X74340Y106350D01*
X74370Y106290D01*
X74400Y106240D01*
X74420Y106180D01*
X74440Y106120D01*
X74460Y106060D01*
X74470Y106000D01*
X74490Y105940D01*
Y105880D01*
X74500Y105810D01*
Y100690D01*
X74490Y100620D01*
Y100560D01*
X74470Y100500D01*
X74460Y100440D01*
X74440Y100380D01*
X74420Y100320D01*
X74400Y100260D01*
X74370Y100210D01*
X74340Y100150D01*
X74310Y100100D01*
X74270Y100040D01*
X74230Y99990D01*
X74190Y99950D01*
X74150Y99900D01*
X74100Y99860D01*
X74060Y99820D01*
X74010Y99780D01*
X73950Y99740D01*
X73900Y99710D01*
X73840Y99680D01*
X73790Y99650D01*
X73730Y99630D01*
X73670Y99610D01*
X73610Y99590D01*
X73550Y99580D01*
X73490Y99560D01*
X73430D01*
X73360Y99550D01*
X71140D01*
X71070Y99560D01*
X71010D01*
X70950Y99580D01*
X70890Y99590D01*
X70830Y99610D01*
X70770Y99630D01*
X70710Y99650D01*
X70660Y99680D01*
X70600Y99710D01*
X70550Y99740D01*
X70490Y99780D01*
X70440Y99820D01*
X70400Y99860D01*
X70350Y99900D01*
X70310Y99950D01*
X70270Y99990D01*
X70230Y100040D01*
X70190Y100100D01*
X70160Y100150D01*
X70130Y100210D01*
X70100Y100260D01*
X70080Y100320D01*
X70060Y100380D01*
X70040Y100440D01*
X70030Y100500D01*
X70010Y100560D01*
Y100620D01*
X70000Y100690D01*
Y105810D01*
X70010Y105880D01*
Y105940D01*
X70030Y106000D01*
X70040Y106060D01*
X70060Y106120D01*
X70080Y106180D01*
X70100Y106240D01*
X70130Y106290D01*
X70160Y106350D01*
X70190Y106400D01*
X70230Y106460D01*
X70270Y106510D01*
X70310Y106550D01*
X70350Y106600D01*
X70400Y106640D01*
X70440Y106680D01*
X70490Y106720D01*
X70550Y106760D01*
X70600Y106790D01*
X70660Y106820D01*
X70710Y106850D01*
X70770Y106870D01*
X70830Y106890D01*
X70890Y106910D01*
X70950Y106920D01*
X71010Y106940D01*
X71070D01*
X71140Y106950D01*
X73360D01*
X73430Y106940D01*
D02*
G37*
G36*
X93630Y98190D02*
X93690D01*
X93750Y98170D01*
X93810Y98160D01*
X93870Y98140D01*
X93930Y98120D01*
X93990Y98100D01*
X94040Y98070D01*
X94100Y98040D01*
X94150Y98010D01*
X94210Y97970D01*
X94260Y97930D01*
X94300Y97890D01*
X94350Y97850D01*
X94390Y97800D01*
X94430Y97760D01*
X94470Y97710D01*
X94510Y97650D01*
X94540Y97600D01*
X94570Y97540D01*
X94600Y97490D01*
X94620Y97430D01*
X94640Y97370D01*
X94660Y97310D01*
X94670Y97250D01*
X94690Y97190D01*
Y97130D01*
X94700Y97060D01*
Y81440D01*
X94690Y81370D01*
Y81310D01*
X94670Y81250D01*
X94660Y81190D01*
X94640Y81130D01*
X94620Y81070D01*
X94600Y81010D01*
X94570Y80960D01*
X94540Y80900D01*
X94510Y80850D01*
X94470Y80790D01*
X94430Y80740D01*
X94390Y80700D01*
X94350Y80650D01*
X94300Y80610D01*
X94260Y80570D01*
X94210Y80530D01*
X94150Y80490D01*
X94100Y80460D01*
X94040Y80430D01*
X93990Y80400D01*
X93930Y80380D01*
X93870Y80360D01*
X93810Y80340D01*
X93750Y80330D01*
X93690Y80310D01*
X93630D01*
X93560Y80300D01*
X70440D01*
X70370Y80310D01*
X70310D01*
X70250Y80330D01*
X70190Y80340D01*
X70130Y80360D01*
X70070Y80380D01*
X70010Y80400D01*
X69960Y80430D01*
X69900Y80460D01*
X69850Y80490D01*
X69790Y80530D01*
X69740Y80570D01*
X69700Y80610D01*
X69650Y80650D01*
X69610Y80700D01*
X69570Y80740D01*
X69530Y80790D01*
X69490Y80850D01*
X69460Y80900D01*
X69430Y80960D01*
X69400Y81010D01*
X69380Y81070D01*
X69360Y81130D01*
X69340Y81190D01*
X69330Y81250D01*
X69310Y81310D01*
Y81370D01*
X69300Y81440D01*
Y97060D01*
X69310Y97130D01*
Y97190D01*
X69330Y97250D01*
X69340Y97310D01*
X69360Y97370D01*
X69380Y97430D01*
X69400Y97490D01*
X69430Y97540D01*
X69460Y97600D01*
X69490Y97650D01*
X69530Y97710D01*
X69570Y97760D01*
X69610Y97800D01*
X69650Y97850D01*
X69700Y97890D01*
X69740Y97930D01*
X69790Y97970D01*
X69850Y98010D01*
X69900Y98040D01*
X69960Y98070D01*
X70010Y98100D01*
X70070Y98120D01*
X70130Y98140D01*
X70190Y98160D01*
X70250Y98170D01*
X70310Y98190D01*
X70370D01*
X70440Y98200D01*
X93560D01*
X93630Y98190D01*
D02*
G37*
G36*
X92930Y78940D02*
X92990D01*
X93050Y78920D01*
X93110Y78910D01*
X93170Y78890D01*
X93230Y78870D01*
X93290Y78850D01*
X93340Y78820D01*
X93400Y78790D01*
X93450Y78760D01*
X93510Y78720D01*
X93560Y78680D01*
X93600Y78640D01*
X93650Y78600D01*
X93690Y78550D01*
X93730Y78510D01*
X93770Y78460D01*
X93810Y78400D01*
X93840Y78350D01*
X93870Y78290D01*
X93900Y78240D01*
X93920Y78180D01*
X93940Y78120D01*
X93960Y78060D01*
X93970Y78000D01*
X93990Y77940D01*
Y77880D01*
X94000Y77810D01*
Y72690D01*
X93990Y72620D01*
Y72560D01*
X93970Y72500D01*
X93960Y72440D01*
X93940Y72380D01*
X93920Y72320D01*
X93900Y72260D01*
X93870Y72210D01*
X93840Y72150D01*
X93810Y72100D01*
X93770Y72040D01*
X93730Y71990D01*
X93690Y71950D01*
X93650Y71900D01*
X93600Y71860D01*
X93560Y71820D01*
X93510Y71780D01*
X93450Y71740D01*
X93400Y71710D01*
X93340Y71680D01*
X93290Y71650D01*
X93230Y71630D01*
X93170Y71610D01*
X93110Y71590D01*
X93050Y71580D01*
X92990Y71560D01*
X92930D01*
X92860Y71550D01*
X90640D01*
X90570Y71560D01*
X90510D01*
X90450Y71580D01*
X90390Y71590D01*
X90330Y71610D01*
X90270Y71630D01*
X90210Y71650D01*
X90160Y71680D01*
X90100Y71710D01*
X90050Y71740D01*
X89990Y71780D01*
X89940Y71820D01*
X89900Y71860D01*
X89850Y71900D01*
X89810Y71950D01*
X89770Y71990D01*
X89730Y72040D01*
X89690Y72100D01*
X89660Y72150D01*
X89630Y72210D01*
X89600Y72260D01*
X89580Y72320D01*
X89560Y72380D01*
X89540Y72440D01*
X89530Y72500D01*
X89510Y72560D01*
Y72620D01*
X89500Y72690D01*
Y77810D01*
X89510Y77880D01*
Y77940D01*
X89530Y78000D01*
X89540Y78060D01*
X89560Y78120D01*
X89580Y78180D01*
X89600Y78240D01*
X89630Y78290D01*
X89660Y78350D01*
X89690Y78400D01*
X89730Y78460D01*
X89770Y78510D01*
X89810Y78550D01*
X89850Y78600D01*
X89900Y78640D01*
X89940Y78680D01*
X89990Y78720D01*
X90050Y78760D01*
X90100Y78790D01*
X90160Y78820D01*
X90210Y78850D01*
X90270Y78870D01*
X90330Y78890D01*
X90390Y78910D01*
X90450Y78920D01*
X90510Y78940D01*
X90570D01*
X90640Y78950D01*
X92860D01*
X92930Y78940D01*
D02*
G37*
G36*
X86430D02*
X86490D01*
X86550Y78920D01*
X86610Y78910D01*
X86670Y78890D01*
X86730Y78870D01*
X86790Y78850D01*
X86840Y78820D01*
X86900Y78790D01*
X86950Y78760D01*
X87010Y78720D01*
X87060Y78680D01*
X87100Y78640D01*
X87150Y78600D01*
X87190Y78550D01*
X87230Y78510D01*
X87270Y78460D01*
X87310Y78400D01*
X87340Y78350D01*
X87370Y78290D01*
X87400Y78240D01*
X87420Y78180D01*
X87440Y78120D01*
X87460Y78060D01*
X87470Y78000D01*
X87490Y77940D01*
Y77880D01*
X87500Y77810D01*
Y72690D01*
X87490Y72620D01*
Y72560D01*
X87470Y72500D01*
X87460Y72440D01*
X87440Y72380D01*
X87420Y72320D01*
X87400Y72260D01*
X87370Y72210D01*
X87340Y72150D01*
X87310Y72100D01*
X87270Y72040D01*
X87230Y71990D01*
X87190Y71950D01*
X87150Y71900D01*
X87100Y71860D01*
X87060Y71820D01*
X87010Y71780D01*
X86950Y71740D01*
X86900Y71710D01*
X86840Y71680D01*
X86790Y71650D01*
X86730Y71630D01*
X86670Y71610D01*
X86610Y71590D01*
X86550Y71580D01*
X86490Y71560D01*
X86430D01*
X86360Y71550D01*
X84140D01*
X84070Y71560D01*
X84010D01*
X83950Y71580D01*
X83890Y71590D01*
X83830Y71610D01*
X83770Y71630D01*
X83710Y71650D01*
X83660Y71680D01*
X83600Y71710D01*
X83550Y71740D01*
X83490Y71780D01*
X83440Y71820D01*
X83400Y71860D01*
X83350Y71900D01*
X83310Y71950D01*
X83270Y71990D01*
X83230Y72040D01*
X83190Y72100D01*
X83160Y72150D01*
X83130Y72210D01*
X83100Y72260D01*
X83080Y72320D01*
X83060Y72380D01*
X83040Y72440D01*
X83030Y72500D01*
X83010Y72560D01*
Y72620D01*
X83000Y72690D01*
Y77810D01*
X83010Y77880D01*
Y77940D01*
X83030Y78000D01*
X83040Y78060D01*
X83060Y78120D01*
X83080Y78180D01*
X83100Y78240D01*
X83130Y78290D01*
X83160Y78350D01*
X83190Y78400D01*
X83230Y78460D01*
X83270Y78510D01*
X83310Y78550D01*
X83350Y78600D01*
X83400Y78640D01*
X83440Y78680D01*
X83490Y78720D01*
X83550Y78760D01*
X83600Y78790D01*
X83660Y78820D01*
X83710Y78850D01*
X83770Y78870D01*
X83830Y78890D01*
X83890Y78910D01*
X83950Y78920D01*
X84010Y78940D01*
X84070D01*
X84140Y78950D01*
X86360D01*
X86430Y78940D01*
D02*
G37*
G36*
X79930D02*
X79990D01*
X80050Y78920D01*
X80110Y78910D01*
X80170Y78890D01*
X80230Y78870D01*
X80290Y78850D01*
X80340Y78820D01*
X80400Y78790D01*
X80450Y78760D01*
X80510Y78720D01*
X80560Y78680D01*
X80600Y78640D01*
X80650Y78600D01*
X80690Y78550D01*
X80730Y78510D01*
X80770Y78460D01*
X80810Y78400D01*
X80840Y78350D01*
X80870Y78290D01*
X80900Y78240D01*
X80920Y78180D01*
X80940Y78120D01*
X80960Y78060D01*
X80970Y78000D01*
X80990Y77940D01*
Y77880D01*
X81000Y77810D01*
Y72690D01*
X80990Y72620D01*
Y72560D01*
X80970Y72500D01*
X80960Y72440D01*
X80940Y72380D01*
X80920Y72320D01*
X80900Y72260D01*
X80870Y72210D01*
X80840Y72150D01*
X80810Y72100D01*
X80770Y72040D01*
X80730Y71990D01*
X80690Y71950D01*
X80650Y71900D01*
X80600Y71860D01*
X80560Y71820D01*
X80510Y71780D01*
X80450Y71740D01*
X80400Y71710D01*
X80340Y71680D01*
X80290Y71650D01*
X80230Y71630D01*
X80170Y71610D01*
X80110Y71590D01*
X80050Y71580D01*
X79990Y71560D01*
X79930D01*
X79860Y71550D01*
X77640D01*
X77570Y71560D01*
X77510D01*
X77450Y71580D01*
X77390Y71590D01*
X77330Y71610D01*
X77270Y71630D01*
X77210Y71650D01*
X77160Y71680D01*
X77100Y71710D01*
X77050Y71740D01*
X76990Y71780D01*
X76940Y71820D01*
X76900Y71860D01*
X76850Y71900D01*
X76810Y71950D01*
X76770Y71990D01*
X76730Y72040D01*
X76690Y72100D01*
X76660Y72150D01*
X76630Y72210D01*
X76600Y72260D01*
X76580Y72320D01*
X76560Y72380D01*
X76540Y72440D01*
X76530Y72500D01*
X76510Y72560D01*
Y72620D01*
X76500Y72690D01*
Y77810D01*
X76510Y77880D01*
Y77940D01*
X76530Y78000D01*
X76540Y78060D01*
X76560Y78120D01*
X76580Y78180D01*
X76600Y78240D01*
X76630Y78290D01*
X76660Y78350D01*
X76690Y78400D01*
X76730Y78460D01*
X76770Y78510D01*
X76810Y78550D01*
X76850Y78600D01*
X76900Y78640D01*
X76940Y78680D01*
X76990Y78720D01*
X77050Y78760D01*
X77100Y78790D01*
X77160Y78820D01*
X77210Y78850D01*
X77270Y78870D01*
X77330Y78890D01*
X77390Y78910D01*
X77450Y78920D01*
X77510Y78940D01*
X77570D01*
X77640Y78950D01*
X79860D01*
X79930Y78940D01*
D02*
G37*
G36*
X73430D02*
X73490D01*
X73550Y78920D01*
X73610Y78910D01*
X73670Y78890D01*
X73730Y78870D01*
X73790Y78850D01*
X73840Y78820D01*
X73900Y78790D01*
X73950Y78760D01*
X74010Y78720D01*
X74060Y78680D01*
X74100Y78640D01*
X74150Y78600D01*
X74190Y78550D01*
X74230Y78510D01*
X74270Y78460D01*
X74310Y78400D01*
X74340Y78350D01*
X74370Y78290D01*
X74400Y78240D01*
X74420Y78180D01*
X74440Y78120D01*
X74460Y78060D01*
X74470Y78000D01*
X74490Y77940D01*
Y77880D01*
X74500Y77810D01*
Y72690D01*
X74490Y72620D01*
Y72560D01*
X74470Y72500D01*
X74460Y72440D01*
X74440Y72380D01*
X74420Y72320D01*
X74400Y72260D01*
X74370Y72210D01*
X74340Y72150D01*
X74310Y72100D01*
X74270Y72040D01*
X74230Y71990D01*
X74190Y71950D01*
X74150Y71900D01*
X74100Y71860D01*
X74060Y71820D01*
X74010Y71780D01*
X73950Y71740D01*
X73900Y71710D01*
X73840Y71680D01*
X73790Y71650D01*
X73730Y71630D01*
X73670Y71610D01*
X73610Y71590D01*
X73550Y71580D01*
X73490Y71560D01*
X73430D01*
X73360Y71550D01*
X71140D01*
X71070Y71560D01*
X71010D01*
X70950Y71580D01*
X70890Y71590D01*
X70830Y71610D01*
X70770Y71630D01*
X70710Y71650D01*
X70660Y71680D01*
X70600Y71710D01*
X70550Y71740D01*
X70490Y71780D01*
X70440Y71820D01*
X70400Y71860D01*
X70350Y71900D01*
X70310Y71950D01*
X70270Y71990D01*
X70230Y72040D01*
X70190Y72100D01*
X70160Y72150D01*
X70130Y72210D01*
X70100Y72260D01*
X70080Y72320D01*
X70060Y72380D01*
X70040Y72440D01*
X70030Y72500D01*
X70010Y72560D01*
Y72620D01*
X70000Y72690D01*
Y77810D01*
X70010Y77880D01*
Y77940D01*
X70030Y78000D01*
X70040Y78060D01*
X70060Y78120D01*
X70080Y78180D01*
X70100Y78240D01*
X70130Y78290D01*
X70160Y78350D01*
X70190Y78400D01*
X70230Y78460D01*
X70270Y78510D01*
X70310Y78550D01*
X70350Y78600D01*
X70400Y78640D01*
X70440Y78680D01*
X70490Y78720D01*
X70550Y78760D01*
X70600Y78790D01*
X70660Y78820D01*
X70710Y78850D01*
X70770Y78870D01*
X70830Y78890D01*
X70890Y78910D01*
X70950Y78920D01*
X71010Y78940D01*
X71070D01*
X71140Y78950D01*
X73360D01*
X73430Y78940D01*
D02*
G37*
D21*
X761550Y26000D02*
D03*
X816950D02*
D03*
D22*
X789250D02*
D03*
D27*
X801000Y207017D02*
D03*
Y190483D02*
D03*
X841000Y207017D02*
D03*
Y190483D02*
D03*
D28*
X802739Y236250D02*
D03*
X819261D02*
D03*
X740739Y261250D02*
D03*
X757261D02*
D03*
D29*
X821000Y192750D02*
D03*
Y206250D02*
D03*
X781000Y192000D02*
D03*
Y205500D02*
D03*
X74000Y120500D02*
D03*
Y134000D02*
D03*
D30*
X766500Y163750D02*
D03*
X749966D02*
D03*
X712750Y236250D02*
D03*
X696233Y213750D02*
D03*
X712767D02*
D03*
X696216Y236250D02*
D03*
D33*
X781022Y129500D02*
D03*
X768500D02*
D03*
X800761Y163500D02*
D03*
X788239D02*
D03*
D36*
X750000Y129489D02*
D03*
X749750Y200011D02*
D03*
Y187489D02*
D03*
X750000Y142011D02*
D03*
D38*
X202250Y245560D02*
D03*
D39*
X215375Y232435D02*
D03*
X189125D02*
D03*
X215375Y258685D02*
D03*
X189125D02*
D03*
D40*
X194750Y259560D02*
D03*
X199750D02*
D03*
X204750D02*
D03*
X209750D02*
D03*
Y231560D02*
D03*
X204750D02*
D03*
X199750D02*
D03*
X194750D02*
D03*
D41*
X216250Y253060D02*
D03*
Y248060D02*
D03*
Y243060D02*
D03*
Y238060D02*
D03*
X188250D02*
D03*
Y243060D02*
D03*
Y248060D02*
D03*
Y253060D02*
D03*
D42*
X131250Y213744D02*
D03*
Y229756D02*
D03*
X154000Y213744D02*
D03*
Y229756D02*
D03*
D43*
X242043Y449500D02*
D03*
X261577Y458650D02*
D03*
D44*
Y440350D02*
D03*
D45*
X875069Y344795D02*
D03*
Y366795D02*
D03*
X892069D02*
D03*
Y344795D02*
D03*
D51*
X317180Y247210D02*
D03*
X310680D02*
D03*
X304180D02*
D03*
X297680D02*
D03*
X291180D02*
D03*
X284680D02*
D03*
X278180D02*
D03*
X271680D02*
D03*
Y305210D02*
D03*
X278180D02*
D03*
X284680D02*
D03*
X291180D02*
D03*
X297680D02*
D03*
X304180D02*
D03*
X310680D02*
D03*
X317180D02*
D03*
D55*
X200000Y396500D02*
D03*
Y353500D02*
D03*
D56*
X175190Y198530D02*
D03*
X198890D02*
D03*
D65*
X400000Y452500D02*
D03*
X425000D02*
D03*
X450000D02*
D03*
D67*
X164750Y120000D02*
D03*
D68*
X178750Y129750D02*
D03*
Y123250D02*
D03*
Y116750D02*
D03*
Y110250D02*
D03*
X150750D02*
D03*
Y116750D02*
D03*
Y123250D02*
D03*
Y129750D02*
D03*
D69*
X636000Y220000D02*
D03*
Y280000D02*
D03*
Y160000D02*
D03*
Y340000D02*
D03*
X954000Y160000D02*
D03*
Y340000D02*
D03*
Y220000D02*
D03*
Y280000D02*
D03*
D70*
X636000Y102500D02*
D03*
Y397500D02*
D03*
X954000Y102500D02*
D03*
Y397500D02*
D03*
D71*
X647500Y91000D02*
D03*
X942500D02*
D03*
Y409000D02*
D03*
X647500D02*
D03*
D72*
X705000Y91000D02*
D03*
X885000D02*
D03*
X765000D02*
D03*
X825000D02*
D03*
X885000Y409000D02*
D03*
X705000D02*
D03*
X825000D02*
D03*
X765000D02*
D03*
D73*
X814000Y276750D02*
D03*
X809000D02*
D03*
X799000D02*
D03*
X804000D02*
D03*
X834000Y325750D02*
D03*
X829000D02*
D03*
X824000D02*
D03*
X819000D02*
D03*
X814000D02*
D03*
X809000D02*
D03*
X804000D02*
D03*
X799000D02*
D03*
X819000Y276750D02*
D03*
X824000D02*
D03*
X829000D02*
D03*
X834000D02*
D03*
D74*
X715000Y260000D02*
D03*
X281000Y412000D02*
D03*
X262000D02*
D03*
X875000Y389250D02*
D03*
X894000D02*
D03*
X312160Y371250D02*
D03*
X331160D02*
D03*
X312160Y345850D02*
D03*
X331160D02*
D03*
X530000Y145000D02*
D03*
X511000D02*
D03*
X55750Y61750D02*
D03*
X36750D02*
D03*
X74000Y52000D02*
D03*
X93000D02*
D03*
Y27000D02*
D03*
X74000D02*
D03*
X268500Y86500D02*
D03*
X249500D02*
D03*
X809750Y353750D02*
D03*
X790750D02*
D03*
X872000Y286250D02*
D03*
X891000D02*
D03*
X872000Y311250D02*
D03*
X891000D02*
D03*
X56500Y162000D02*
D03*
X37500D02*
D03*
X56500Y89000D02*
D03*
X37500D02*
D03*
X56500Y139000D02*
D03*
X37500D02*
D03*
X56500Y112000D02*
D03*
X37500D02*
D03*
X372750Y201000D02*
D03*
X391750D02*
D03*
X213100Y330610D02*
D03*
X232100D02*
D03*
X250540D02*
D03*
X269540D02*
D03*
X312160Y396650D02*
D03*
X331160D02*
D03*
X155000Y87500D02*
D03*
X174000D02*
D03*
X166720Y262030D02*
D03*
X147720D02*
D03*
X760000Y294000D02*
D03*
X741000D02*
D03*
X696000Y260000D02*
D03*
D75*
X781500Y112000D02*
D03*
X768500D02*
D03*
D76*
X729000Y129750D02*
D03*
X731500Y200250D02*
D03*
X757250Y226250D02*
D03*
X731500Y187250D02*
D03*
X757250Y239250D02*
D03*
X729000Y142750D02*
D03*
D77*
X476250Y252250D02*
D03*
Y233250D02*
D03*
X475500Y267750D02*
D03*
Y286750D02*
D03*
X211250Y279750D02*
D03*
Y298750D02*
D03*
X190000Y469000D02*
D03*
Y450000D02*
D03*
X287370Y440610D02*
D03*
Y459610D02*
D03*
X213950Y468820D02*
D03*
Y449820D02*
D03*
X916750Y346250D02*
D03*
Y365250D02*
D03*
X395250Y406750D02*
D03*
Y387750D02*
D03*
X419500Y406750D02*
D03*
Y387750D02*
D03*
X486000Y189000D02*
D03*
Y170000D02*
D03*
X162593Y365500D02*
D03*
Y384500D02*
D03*
X267050Y216920D02*
D03*
Y197920D02*
D03*
X291180Y216920D02*
D03*
Y197920D02*
D03*
X315310Y216920D02*
D03*
Y197920D02*
D03*
X71470Y231500D02*
D03*
Y212500D02*
D03*
X200000Y145500D02*
D03*
Y164500D02*
D03*
X252500Y110000D02*
D03*
Y129000D02*
D03*
X200000Y97000D02*
D03*
Y78000D02*
D03*
X188310Y279810D02*
D03*
Y298810D02*
D03*
X841500Y250750D02*
D03*
Y231750D02*
D03*
X439500Y174750D02*
D03*
Y193750D02*
D03*
X559000Y339500D02*
D03*
Y358500D02*
D03*
X439250Y156500D02*
D03*
Y137500D02*
D03*
X534500Y339500D02*
D03*
Y358500D02*
D03*
X517000Y403500D02*
D03*
Y384500D02*
D03*
X577000Y403500D02*
D03*
Y384500D02*
D03*
X350000Y159250D02*
D03*
Y178250D02*
D03*
X412750Y174500D02*
D03*
Y193500D02*
D03*
X550000Y170500D02*
D03*
Y189500D02*
D03*
X115000Y23500D02*
D03*
Y42500D02*
D03*
X71470Y249990D02*
D03*
Y268990D02*
D03*
X127500Y102000D02*
D03*
Y83000D02*
D03*
X276750Y110000D02*
D03*
Y129000D02*
D03*
X127500Y136500D02*
D03*
Y117500D02*
D03*
D78*
X440500Y430250D02*
D03*
X425500D02*
D03*
D79*
X869000Y266250D02*
D03*
Y253750D02*
D03*
D80*
X696250Y278500D02*
D03*
X708750D02*
D03*
D81*
X792000Y318750D02*
D03*
Y313750D02*
D03*
Y308750D02*
D03*
Y303750D02*
D03*
Y298750D02*
D03*
Y293750D02*
D03*
Y288750D02*
D03*
Y283750D02*
D03*
X841000D02*
D03*
Y288750D02*
D03*
Y293750D02*
D03*
Y298750D02*
D03*
Y303750D02*
D03*
Y308750D02*
D03*
Y313750D02*
D03*
Y318750D02*
D03*
D82*
X816500Y301250D02*
D03*
D83*
X234700Y352200D02*
D03*
D84*
X442200Y333200D02*
D03*
X454900D02*
D03*
X467600D02*
D03*
X480300D02*
D03*
Y405300D02*
D03*
X467600D02*
D03*
X454900D02*
D03*
X442200D02*
D03*
D85*
X549500Y430225D02*
D03*
X544500D02*
D03*
X539500D02*
D03*
X554500D02*
D03*
X559500D02*
D03*
X564500D02*
D03*
X534500D02*
D03*
X529500D02*
D03*
D86*
X571000D02*
D03*
X579000D02*
D03*
X523000D02*
D03*
X515000D02*
D03*
D87*
X556500Y406500D02*
D03*
X547000D02*
D03*
X537500D02*
D03*
Y381500D02*
D03*
X547000D02*
D03*
X556500D02*
D03*
D88*
X374000Y175500D02*
D03*
X388000D02*
D03*
X374000Y144500D02*
D03*
X388000D02*
D03*
D89*
X535000Y270000D02*
D03*
D90*
X501250Y296000D02*
D03*
Y292000D02*
D03*
Y288000D02*
D03*
Y284000D02*
D03*
Y280000D02*
D03*
Y276000D02*
D03*
Y272000D02*
D03*
Y268000D02*
D03*
Y264000D02*
D03*
Y260000D02*
D03*
Y256000D02*
D03*
Y252000D02*
D03*
Y248000D02*
D03*
Y244000D02*
D03*
X568750D02*
D03*
Y248000D02*
D03*
Y252000D02*
D03*
Y256000D02*
D03*
Y260000D02*
D03*
Y264000D02*
D03*
Y268000D02*
D03*
Y272000D02*
D03*
Y276000D02*
D03*
Y280000D02*
D03*
Y284000D02*
D03*
Y288000D02*
D03*
Y292000D02*
D03*
Y296000D02*
D03*
D91*
X509000Y236250D02*
D03*
X513000D02*
D03*
X517000D02*
D03*
X521000D02*
D03*
X525000D02*
D03*
X529000D02*
D03*
X533000D02*
D03*
X537000D02*
D03*
X541000D02*
D03*
X545000D02*
D03*
X549000D02*
D03*
X553000D02*
D03*
X557000D02*
D03*
X561000D02*
D03*
Y303750D02*
D03*
X557000D02*
D03*
X553000D02*
D03*
X549000D02*
D03*
X545000D02*
D03*
X541000D02*
D03*
X537000D02*
D03*
X533000D02*
D03*
X529000D02*
D03*
X525000D02*
D03*
X521000D02*
D03*
X517000D02*
D03*
X513000D02*
D03*
X509000D02*
D03*
D92*
X528750Y168500D02*
D03*
Y191500D02*
D03*
X511250D02*
D03*
Y168500D02*
D03*
D93*
X130000Y350000D02*
D03*
D94*
Y400000D02*
D03*
D95*
X30000Y430000D02*
D03*
Y320000D02*
D03*
D96*
X544250Y38850D02*
D03*
Y64250D02*
D03*
D97*
Y89650D02*
D03*
D98*
X960000Y25000D02*
D03*
Y475000D02*
D03*
X25000D02*
D03*
Y25000D02*
D03*
D99*
X503800Y435975D02*
D03*
X590200D02*
D03*
D100*
X575900Y440975D02*
D03*
X518100D02*
D03*
D101*
X590200Y477775D02*
D03*
X503800D02*
D03*
D102*
X391000Y480000D02*
D03*
X459000D02*
D03*
D103*
X779250Y276000D02*
D03*
X753500Y271500D02*
D03*
X174250Y142250D02*
D03*
X708641Y353988D02*
D03*
X708250Y326750D02*
D03*
X448000Y350500D02*
D03*
X474500Y381750D02*
D03*
X447991Y381731D02*
D03*
X115250Y51750D02*
D03*
X210000Y172750D02*
D03*
X252500Y138750D02*
D03*
X559000Y259000D02*
D03*
X559250Y281000D02*
D03*
X644500Y160250D02*
D03*
X645250Y220250D02*
D03*
X644250Y281500D02*
D03*
X644750Y339500D02*
D03*
Y391750D02*
D03*
X651000Y400000D02*
D03*
X704500D02*
D03*
X764500D02*
D03*
X825750Y400250D02*
D03*
X885250Y400750D02*
D03*
X938500Y401000D02*
D03*
X946000Y393500D02*
D03*
X945000Y339500D02*
D03*
Y280000D02*
D03*
X945500Y219750D02*
D03*
Y159750D02*
D03*
Y107500D02*
D03*
X938000Y98750D02*
D03*
X884750D02*
D03*
X825250Y99750D02*
D03*
X705500Y99000D02*
D03*
X645000Y107500D02*
D03*
X651250Y100000D02*
D03*
X544250Y441250D02*
D03*
X555000D02*
D03*
X188250Y310750D02*
D03*
X271500Y258500D02*
D03*
X278250D02*
D03*
X285250Y258750D02*
D03*
X802750Y6500D02*
D03*
X770000Y61000D02*
D03*
X762500D02*
D03*
X795500Y95500D02*
D03*
X795250Y104750D02*
D03*
X390000Y337250D02*
D03*
X231500Y146000D02*
D03*
X348750Y273750D02*
D03*
X209750Y268500D02*
D03*
X343000Y342000D02*
D03*
X190000Y440000D02*
D03*
X280000Y330000D02*
D03*
X781750Y352500D02*
D03*
X683750Y236250D02*
D03*
X781000Y186500D02*
D03*
X826750Y222750D02*
D03*
X788112Y274809D02*
D03*
X781395Y268091D02*
D03*
X762000Y271250D02*
D03*
X734723Y271425D02*
D03*
X726038Y267576D02*
D03*
X705013Y264434D02*
D03*
Y254934D02*
D03*
X704525Y245446D02*
D03*
X704485Y227080D02*
D03*
X713953Y226306D02*
D03*
X722993Y229227D02*
D03*
X723427Y238717D02*
D03*
X722959Y248205D02*
D03*
X731515Y252332D02*
D03*
X740932Y251075D02*
D03*
X748143Y244890D02*
D03*
X747866Y235394D02*
D03*
Y225894D02*
D03*
X743424Y217497D02*
D03*
X742789Y208018D02*
D03*
X733388Y209384D02*
D03*
X723500Y208500D02*
D03*
X722116Y198909D02*
D03*
Y189409D02*
D03*
X723000Y179750D02*
D03*
X732574Y178116D02*
D03*
X741826Y180275D02*
D03*
X739861Y170980D02*
D03*
X739288Y161497D02*
D03*
X743424Y152944D02*
D03*
X740825Y143807D02*
D03*
X719616Y129830D02*
D03*
X722934Y120928D02*
D03*
X732429Y120616D02*
D03*
X741646Y122918D02*
D03*
X750852Y120575D02*
D03*
X759250Y119250D02*
D03*
X759366Y109661D02*
D03*
X765740Y102616D02*
D03*
X775174Y101498D02*
D03*
X782500Y84500D02*
D03*
X782924Y75229D02*
D03*
Y65729D02*
D03*
X781905Y56284D02*
D03*
X777000Y44750D02*
D03*
Y35250D02*
D03*
Y25750D02*
D03*
Y16250D02*
D03*
Y6750D02*
D03*
X802750Y16000D02*
D03*
Y25500D02*
D03*
Y35000D02*
D03*
Y44500D02*
D03*
X796500Y56500D02*
D03*
X795576Y67129D02*
D03*
Y76628D02*
D03*
X795501Y86128D02*
D03*
X790634Y112236D02*
D03*
X787854Y121320D02*
D03*
X789936Y130590D02*
D03*
X784948Y138675D02*
D03*
X775453Y138369D02*
D03*
X765958Y138675D02*
D03*
X759175Y145326D02*
D03*
X763459Y153806D02*
D03*
X772958Y153938D02*
D03*
X782429Y154679D02*
D03*
X791922Y154325D02*
D03*
X801422D02*
D03*
X809649Y159076D02*
D03*
X809519Y168575D02*
D03*
X807326Y177819D02*
D03*
X811352Y186424D02*
D03*
X820678Y184616D02*
D03*
X830000Y186500D02*
D03*
X829750Y198250D02*
D03*
X850801Y200501D02*
D03*
X850945Y210000D02*
D03*
X845373Y217694D02*
D03*
X835873Y217681D02*
D03*
X826750Y214750D02*
D03*
X214000Y78500D02*
D03*
X514000Y211250D02*
D03*
X528500Y202750D02*
D03*
X840750Y181500D02*
D03*
X817750Y62000D02*
D03*
X825250D02*
D03*
X810000D02*
D03*
X754250Y61000D02*
D03*
X728750Y151500D02*
D03*
X683250Y213000D02*
D03*
X686250Y259500D02*
D03*
X687500Y279000D02*
D03*
X717250Y278500D02*
D03*
X781250Y303250D02*
D03*
X743000Y271250D02*
D03*
X731500Y293250D02*
D03*
X740250Y326250D02*
D03*
X834250Y335000D02*
D03*
X814000D02*
D03*
X836250Y377750D02*
D03*
X849750Y298500D02*
D03*
X900500Y311250D02*
D03*
X900750Y286250D02*
D03*
X891500Y261500D02*
D03*
X849750Y283500D02*
D03*
X824000Y267250D02*
D03*
X906000Y377500D02*
D03*
Y389000D02*
D03*
X916500Y377000D02*
D03*
X875000Y332250D02*
D03*
X686500Y331500D02*
D03*
X698500Y335750D02*
D03*
X644500Y301000D02*
D03*
X609500Y310750D02*
D03*
X619500Y259750D02*
D03*
X662000Y285500D02*
D03*
X662454Y318750D02*
D03*
X580750Y260162D02*
D03*
X654750Y299250D02*
D03*
X555000Y227500D02*
D03*
X455000Y235000D02*
D03*
X546500Y350500D02*
D03*
X538750Y228250D02*
D03*
X534750Y245750D02*
D03*
X518500Y352250D02*
D03*
X507750Y352000D02*
D03*
X577000Y351500D02*
D03*
X492000Y295750D02*
D03*
X495000Y234250D02*
D03*
X539250Y296750D02*
D03*
X532750Y314000D02*
D03*
X510000Y260000D02*
D03*
X454500Y296000D02*
D03*
X556750Y313750D02*
D03*
X577000Y313500D02*
D03*
X580750Y296000D02*
D03*
X575000Y230000D02*
D03*
X348250Y246250D02*
D03*
X547000Y371250D02*
D03*
Y416750D02*
D03*
X474750Y350250D02*
D03*
X64750Y61250D02*
D03*
X439250Y125500D02*
D03*
X388250Y131750D02*
D03*
X399750Y468500D02*
D03*
X450000Y468750D02*
D03*
X579000Y419250D02*
D03*
X570750D02*
D03*
X523000D02*
D03*
X514750Y419500D02*
D03*
X577250Y375250D02*
D03*
X516250D02*
D03*
X419250Y417500D02*
D03*
X395500Y376750D02*
D03*
X419250Y376000D02*
D03*
X395500Y417250D02*
D03*
X442500Y418250D02*
D03*
X499750Y145000D02*
D03*
Y157750D02*
D03*
X485250Y157250D02*
D03*
X187500Y172500D02*
D03*
X104000Y52000D02*
D03*
X26500Y61750D02*
D03*
X74000Y63750D02*
D03*
X92000Y68000D02*
D03*
X91634Y111178D02*
D03*
X27000Y162000D02*
D03*
Y140000D02*
D03*
Y113000D02*
D03*
Y88000D02*
D03*
X276250Y139750D02*
D03*
X237500Y130000D02*
D03*
Y110000D02*
D03*
X185000Y87500D02*
D03*
X127500Y72500D02*
D03*
X142750Y123000D02*
D03*
X186500Y108750D02*
D03*
X186250Y116750D02*
D03*
X343000Y400000D02*
D03*
Y393000D02*
D03*
Y375000D02*
D03*
Y368000D02*
D03*
Y349000D02*
D03*
X274000Y459000D02*
D03*
X71500Y281250D02*
D03*
X211000Y310750D02*
D03*
X139000Y262000D02*
D03*
X224000Y242750D02*
D03*
X198250Y241750D02*
D03*
X206250D02*
D03*
Y249500D02*
D03*
X228500Y253250D02*
D03*
X179500Y238250D02*
D03*
X174250Y243250D02*
D03*
X179500Y248000D02*
D03*
X212250Y223500D02*
D03*
X198250Y249500D02*
D03*
X203000Y268250D02*
D03*
X320000Y187500D02*
D03*
X287500D02*
D03*
X262500D02*
D03*
X270000D02*
D03*
X295000D02*
D03*
X312500D02*
D03*
X271750Y316250D02*
D03*
X297530Y316640D02*
D03*
X291180D02*
D03*
X284830D02*
D03*
D104*
X110000Y212500D02*
D03*
X132500Y242500D02*
D03*
X153500Y243000D02*
D03*
D105*
X159000Y120000D02*
D03*
X170500D02*
D03*
X164750Y129500D02*
D03*
Y110500D02*
D03*
D106*
X524000Y281000D02*
D03*
X535000D02*
D03*
X546000D02*
D03*
X524000Y270000D02*
D03*
X535000D02*
D03*
X546000D02*
D03*
X524000Y259000D02*
D03*
X535000D02*
D03*
X546000D02*
D03*
M02*
