G04*
G04 #@! TF.GenerationSoftware,Altium Limited,Altium Designer,25.4.2 (15)*
G04*
G04 Layer_Color=16711935*
%FSLAX44Y44*%
%MOMM*%
G71*
G04*
G04 #@! TF.SameCoordinates,69983CE8-C732-48D4-ACAD-208037422C18*
G04*
G04*
G04 #@! TF.FilePolarity,Negative*
G04*
G01*
G75*
%ADD21R,1.6000X5.0000*%
G04:AMPARAMS|DCode=74|XSize=1.2032mm|YSize=1.9032mm|CornerRadius=0.2266mm|HoleSize=0mm|Usage=FLASHONLY|Rotation=0.000|XOffset=0mm|YOffset=0mm|HoleType=Round|Shape=RoundedRectangle|*
%AMROUNDEDRECTD74*
21,1,1.2032,1.4500,0,0,0.0*
21,1,0.7500,1.9032,0,0,0.0*
1,1,0.4532,0.3750,-0.7250*
1,1,0.4532,-0.3750,-0.7250*
1,1,0.4532,-0.3750,0.7250*
1,1,0.4532,0.3750,0.7250*
%
%ADD74ROUNDEDRECTD74*%
G04:AMPARAMS|DCode=77|XSize=1.2032mm|YSize=1.9032mm|CornerRadius=0.2266mm|HoleSize=0mm|Usage=FLASHONLY|Rotation=270.000|XOffset=0mm|YOffset=0mm|HoleType=Round|Shape=RoundedRectangle|*
%AMROUNDEDRECTD77*
21,1,1.2032,1.4500,0,0,270.0*
21,1,0.7500,1.9032,0,0,270.0*
1,1,0.4532,-0.7250,-0.3750*
1,1,0.4532,-0.7250,0.3750*
1,1,0.4532,0.7250,0.3750*
1,1,0.4532,0.7250,-0.3750*
%
%ADD77ROUNDEDRECTD77*%
%ADD93R,2.7532X2.7532*%
%ADD94C,2.7532*%
%ADD95C,1.7112*%
%ADD96C,1.5700*%
%ADD97R,1.5700X1.5700*%
%ADD98C,5.2032*%
%ADD99O,1.2032X2.3032*%
%ADD100C,0.7500*%
%ADD101O,1.2032X2.0032*%
%ADD102C,0.9000*%
%ADD103C,0.6532*%
%ADD104C,1.2032*%
%ADD105C,0.7032*%
%ADD106C,0.8032*%
D21*
X761550Y26000D02*
D03*
X816950D02*
D03*
D74*
X590000Y260000D02*
D03*
X609000D02*
D03*
X752500Y301250D02*
D03*
X771500D02*
D03*
X880500Y261250D02*
D03*
X861500D02*
D03*
X880500Y311250D02*
D03*
X861500D02*
D03*
X880500Y286250D02*
D03*
X861500D02*
D03*
X752500Y326250D02*
D03*
X771500D02*
D03*
X752500Y276250D02*
D03*
X771500D02*
D03*
X521000Y217500D02*
D03*
X540000D02*
D03*
X465500Y235000D02*
D03*
X484500D02*
D03*
X574500Y217500D02*
D03*
X555500D02*
D03*
X465500Y260000D02*
D03*
X484500D02*
D03*
X463750Y296250D02*
D03*
X482750D02*
D03*
X609500Y296000D02*
D03*
X590500D02*
D03*
X279140Y272190D02*
D03*
X298140D02*
D03*
X236750Y303750D02*
D03*
X255750D02*
D03*
X255750Y255500D02*
D03*
X236750D02*
D03*
X236750Y279750D02*
D03*
X255750D02*
D03*
D77*
X824000Y237250D02*
D03*
Y256250D02*
D03*
X836500Y365250D02*
D03*
Y346250D02*
D03*
X811500Y365250D02*
D03*
Y346250D02*
D03*
X502500Y341500D02*
D03*
Y322500D02*
D03*
X527500Y341500D02*
D03*
Y322500D02*
D03*
X577500Y341500D02*
D03*
Y322500D02*
D03*
X552500Y341500D02*
D03*
Y322500D02*
D03*
X187500Y162000D02*
D03*
Y143000D02*
D03*
X200000Y78500D02*
D03*
Y97500D02*
D03*
D93*
X130000Y350000D02*
D03*
D94*
Y400000D02*
D03*
D95*
X30000Y430000D02*
D03*
Y320000D02*
D03*
D96*
X544250Y38850D02*
D03*
Y64250D02*
D03*
D97*
Y89650D02*
D03*
D98*
X960000Y25000D02*
D03*
Y475000D02*
D03*
X25000D02*
D03*
Y25000D02*
D03*
D99*
X503800Y435975D02*
D03*
X590200D02*
D03*
D100*
X575900Y440975D02*
D03*
X518100D02*
D03*
D101*
X590200Y477775D02*
D03*
X503800D02*
D03*
D102*
X391000Y480000D02*
D03*
X459000D02*
D03*
D103*
X779250Y276000D02*
D03*
X753500Y271500D02*
D03*
X174250Y142250D02*
D03*
X708641Y353988D02*
D03*
X708250Y326750D02*
D03*
X448000Y350500D02*
D03*
X474500Y381750D02*
D03*
X447991Y381731D02*
D03*
X115250Y51750D02*
D03*
X210000Y172750D02*
D03*
X252500Y138750D02*
D03*
X559000Y259000D02*
D03*
X559250Y281000D02*
D03*
X644500Y160250D02*
D03*
X645250Y220250D02*
D03*
X644250Y281500D02*
D03*
X644750Y339500D02*
D03*
Y391750D02*
D03*
X651000Y400000D02*
D03*
X704500D02*
D03*
X764500D02*
D03*
X825750Y400250D02*
D03*
X885250Y400750D02*
D03*
X938500Y401000D02*
D03*
X946000Y393500D02*
D03*
X945000Y339500D02*
D03*
Y280000D02*
D03*
X945500Y219750D02*
D03*
Y159750D02*
D03*
Y107500D02*
D03*
X938000Y98750D02*
D03*
X884750D02*
D03*
X825250Y99750D02*
D03*
X705500Y99000D02*
D03*
X645000Y107500D02*
D03*
X651250Y100000D02*
D03*
X544250Y441250D02*
D03*
X555000D02*
D03*
X188250Y310750D02*
D03*
X271500Y258500D02*
D03*
X278250D02*
D03*
X285250Y258750D02*
D03*
X802750Y6500D02*
D03*
X770000Y61000D02*
D03*
X762500D02*
D03*
X795500Y95500D02*
D03*
X795250Y104750D02*
D03*
X390000Y337250D02*
D03*
X231500Y146000D02*
D03*
X348750Y273750D02*
D03*
X209750Y268500D02*
D03*
X343000Y342000D02*
D03*
X190000Y440000D02*
D03*
X280000Y330000D02*
D03*
X781750Y352500D02*
D03*
X683750Y236250D02*
D03*
X781000Y186500D02*
D03*
X826750Y222750D02*
D03*
X788112Y274809D02*
D03*
X781395Y268091D02*
D03*
X762000Y271250D02*
D03*
X734723Y271425D02*
D03*
X726038Y267576D02*
D03*
X705013Y264434D02*
D03*
Y254934D02*
D03*
X704525Y245446D02*
D03*
X704485Y227080D02*
D03*
X713953Y226306D02*
D03*
X722993Y229227D02*
D03*
X723427Y238717D02*
D03*
X722959Y248205D02*
D03*
X731515Y252332D02*
D03*
X740932Y251075D02*
D03*
X748143Y244890D02*
D03*
X747866Y235394D02*
D03*
Y225894D02*
D03*
X743424Y217497D02*
D03*
X742789Y208018D02*
D03*
X733388Y209384D02*
D03*
X723500Y208500D02*
D03*
X722116Y198909D02*
D03*
Y189409D02*
D03*
X723000Y179750D02*
D03*
X732574Y178116D02*
D03*
X741826Y180275D02*
D03*
X739861Y170980D02*
D03*
X739288Y161497D02*
D03*
X743424Y152944D02*
D03*
X740825Y143807D02*
D03*
X719616Y129830D02*
D03*
X722934Y120928D02*
D03*
X732429Y120616D02*
D03*
X741646Y122918D02*
D03*
X750852Y120575D02*
D03*
X759250Y119250D02*
D03*
X759366Y109661D02*
D03*
X765740Y102616D02*
D03*
X775174Y101498D02*
D03*
X782500Y84500D02*
D03*
X782924Y75229D02*
D03*
Y65729D02*
D03*
X781905Y56284D02*
D03*
X777000Y44750D02*
D03*
Y35250D02*
D03*
Y25750D02*
D03*
Y16250D02*
D03*
Y6750D02*
D03*
X802750Y16000D02*
D03*
Y25500D02*
D03*
Y35000D02*
D03*
Y44500D02*
D03*
X796500Y56500D02*
D03*
X795576Y67129D02*
D03*
Y76628D02*
D03*
X795501Y86128D02*
D03*
X790634Y112236D02*
D03*
X787854Y121320D02*
D03*
X789936Y130590D02*
D03*
X784948Y138675D02*
D03*
X775453Y138369D02*
D03*
X765958Y138675D02*
D03*
X759175Y145326D02*
D03*
X763459Y153806D02*
D03*
X772958Y153938D02*
D03*
X782429Y154679D02*
D03*
X791922Y154325D02*
D03*
X801422D02*
D03*
X809649Y159076D02*
D03*
X809519Y168575D02*
D03*
X807326Y177819D02*
D03*
X811352Y186424D02*
D03*
X820678Y184616D02*
D03*
X830000Y186500D02*
D03*
X829750Y198250D02*
D03*
X850801Y200501D02*
D03*
X850945Y210000D02*
D03*
X845373Y217694D02*
D03*
X835873Y217681D02*
D03*
X826750Y214750D02*
D03*
X214000Y78500D02*
D03*
X514000Y211250D02*
D03*
X528500Y202750D02*
D03*
X840750Y181500D02*
D03*
X817750Y62000D02*
D03*
X825250D02*
D03*
X810000D02*
D03*
X754250Y61000D02*
D03*
X728750Y151500D02*
D03*
X683250Y213000D02*
D03*
X686250Y259500D02*
D03*
X687500Y279000D02*
D03*
X717250Y278500D02*
D03*
X781250Y303250D02*
D03*
X743000Y271250D02*
D03*
X731500Y293250D02*
D03*
X740250Y326250D02*
D03*
X834250Y335000D02*
D03*
X814000D02*
D03*
X836250Y377750D02*
D03*
X849750Y298500D02*
D03*
X900500Y311250D02*
D03*
X900750Y286250D02*
D03*
X891500Y261500D02*
D03*
X849750Y283500D02*
D03*
X824000Y267250D02*
D03*
X906000Y377500D02*
D03*
Y389000D02*
D03*
X916500Y377000D02*
D03*
X875000Y332250D02*
D03*
X686500Y331500D02*
D03*
X698500Y335750D02*
D03*
X644500Y301000D02*
D03*
X609500Y310750D02*
D03*
X619500Y259750D02*
D03*
X662000Y285500D02*
D03*
X662454Y318750D02*
D03*
X580750Y260162D02*
D03*
X654750Y299250D02*
D03*
X555000Y227500D02*
D03*
X455000Y235000D02*
D03*
X546500Y350500D02*
D03*
X538750Y228250D02*
D03*
X534750Y245750D02*
D03*
X518500Y352250D02*
D03*
X507750Y352000D02*
D03*
X577000Y351500D02*
D03*
X492000Y295750D02*
D03*
X495000Y234250D02*
D03*
X539250Y296750D02*
D03*
X532750Y314000D02*
D03*
X510000Y260000D02*
D03*
X454500Y296000D02*
D03*
X556750Y313750D02*
D03*
X577000Y313500D02*
D03*
X580750Y296000D02*
D03*
X575000Y230000D02*
D03*
X348250Y246250D02*
D03*
X547000Y371250D02*
D03*
Y416750D02*
D03*
X474750Y350250D02*
D03*
X64750Y61250D02*
D03*
X439250Y125500D02*
D03*
X388250Y131750D02*
D03*
X399750Y468500D02*
D03*
X450000Y468750D02*
D03*
X579000Y419250D02*
D03*
X570750D02*
D03*
X523000D02*
D03*
X514750Y419500D02*
D03*
X577250Y375250D02*
D03*
X516250D02*
D03*
X419250Y417500D02*
D03*
X395500Y376750D02*
D03*
X419250Y376000D02*
D03*
X395500Y417250D02*
D03*
X442500Y418250D02*
D03*
X499750Y145000D02*
D03*
Y157750D02*
D03*
X485250Y157250D02*
D03*
X187500Y172500D02*
D03*
X104000Y52000D02*
D03*
X26500Y61750D02*
D03*
X74000Y63750D02*
D03*
X92000Y68000D02*
D03*
X91634Y111178D02*
D03*
X27000Y162000D02*
D03*
Y140000D02*
D03*
Y113000D02*
D03*
Y88000D02*
D03*
X276250Y139750D02*
D03*
X237500Y130000D02*
D03*
Y110000D02*
D03*
X185000Y87500D02*
D03*
X127500Y72500D02*
D03*
X142750Y123000D02*
D03*
X186500Y108750D02*
D03*
X186250Y116750D02*
D03*
X343000Y400000D02*
D03*
Y393000D02*
D03*
Y375000D02*
D03*
Y368000D02*
D03*
Y349000D02*
D03*
X274000Y459000D02*
D03*
X71500Y281250D02*
D03*
X211000Y310750D02*
D03*
X139000Y262000D02*
D03*
X224000Y242750D02*
D03*
X198250Y241750D02*
D03*
X206250D02*
D03*
Y249500D02*
D03*
X228500Y253250D02*
D03*
X179500Y238250D02*
D03*
X174250Y243250D02*
D03*
X179500Y248000D02*
D03*
X212250Y223500D02*
D03*
X198250Y249500D02*
D03*
X203000Y268250D02*
D03*
X320000Y187500D02*
D03*
X287500D02*
D03*
X262500D02*
D03*
X270000D02*
D03*
X295000D02*
D03*
X312500D02*
D03*
X271750Y316250D02*
D03*
X297530Y316640D02*
D03*
X291180D02*
D03*
X284830D02*
D03*
D104*
X110000Y212500D02*
D03*
X132500Y242500D02*
D03*
X153500Y243000D02*
D03*
D105*
X159000Y120000D02*
D03*
X170500D02*
D03*
X164750Y129500D02*
D03*
Y110500D02*
D03*
D106*
X524000Y281000D02*
D03*
X535000D02*
D03*
X546000D02*
D03*
X524000Y270000D02*
D03*
X535000D02*
D03*
X546000D02*
D03*
X524000Y259000D02*
D03*
X535000D02*
D03*
X546000D02*
D03*
M02*
