G04*
G04 #@! TF.GenerationSoftware,Altium Limited,Altium Designer,25.4.2 (15)*
G04*
G04 Layer_Physical_Order=4*
G04 Layer_Color=16711680*
%FSLAX44Y44*%
%MOMM*%
G71*
G04*
G04 #@! TF.SameCoordinates,69983CE8-C732-48D4-ACAD-208037422C18*
G04*
G04*
G04 #@! TF.FilePolarity,Positive*
G04*
G01*
G75*
%ADD21R,1.6000X5.0000*%
G04:AMPARAMS|DCode=32|XSize=1mm|YSize=1.7mm|CornerRadius=0.125mm|HoleSize=0mm|Usage=FLASHONLY|Rotation=0.000|XOffset=0mm|YOffset=0mm|HoleType=Round|Shape=RoundedRectangle|*
%AMROUNDEDRECTD32*
21,1,1.0000,1.4500,0,0,0.0*
21,1,0.7500,1.7000,0,0,0.0*
1,1,0.2500,0.3750,-0.7250*
1,1,0.2500,-0.3750,-0.7250*
1,1,0.2500,-0.3750,0.7250*
1,1,0.2500,0.3750,0.7250*
%
%ADD32ROUNDEDRECTD32*%
G04:AMPARAMS|DCode=37|XSize=1mm|YSize=1.7mm|CornerRadius=0.125mm|HoleSize=0mm|Usage=FLASHONLY|Rotation=270.000|XOffset=0mm|YOffset=0mm|HoleType=Round|Shape=RoundedRectangle|*
%AMROUNDEDRECTD37*
21,1,1.0000,1.4500,0,0,270.0*
21,1,0.7500,1.7000,0,0,270.0*
1,1,0.2500,-0.7250,-0.3750*
1,1,0.2500,-0.7250,0.3750*
1,1,0.2500,0.7250,0.3750*
1,1,0.2500,0.7250,-0.3750*
%
%ADD37ROUNDEDRECTD37*%
%ADD96C,1.5700*%
%ADD97R,1.5700X1.5700*%
%ADD102C,0.9000*%
%ADD107C,0.2540*%
%ADD110C,0.3810*%
%ADD112R,2.5500X2.5500*%
%ADD113C,2.5500*%
%ADD114C,1.5080*%
%ADD115C,0.4500*%
%ADD116C,5.0000*%
%ADD117O,1.0000X2.1000*%
%ADD118C,0.6500*%
%ADD119O,1.0000X1.8000*%
%ADD120C,1.0000*%
%ADD121C,0.5000*%
%ADD122C,0.6000*%
%ADD123C,0.5000*%
G36*
X959600Y500000D02*
X959600Y500000D01*
X962102Y500000D01*
X967009Y499024D01*
X971631Y497109D01*
X975791Y494329D01*
X979329Y490792D01*
X982109Y486631D01*
X984024Y482009D01*
X985000Y477102D01*
X985000Y474600D01*
X985000Y25400D01*
X985000Y25400D01*
X985000Y22898D01*
X984024Y17991D01*
X982109Y13369D01*
X979329Y9208D01*
X975791Y5670D01*
X971631Y2891D01*
X967009Y976D01*
X962102Y0D01*
X959600Y0D01*
X55000Y0D01*
X22898D01*
X17991Y976D01*
X13369Y2891D01*
X9208Y5670D01*
X5670Y9208D01*
X2891Y13369D01*
X976Y17991D01*
X0Y22898D01*
Y25400D01*
Y474600D01*
Y477102D01*
X976Y482009D01*
X2891Y486631D01*
X5670Y490792D01*
X9208Y494329D01*
X13369Y497109D01*
X17991Y499024D01*
X22898Y500000D01*
X959600D01*
X959600Y500000D01*
D02*
G37*
%LPC*%
G36*
X460072Y485389D02*
X457928D01*
X455947Y484569D01*
X454431Y483053D01*
X453611Y481072D01*
Y478928D01*
X454431Y476947D01*
X455947Y475431D01*
X457928Y474611D01*
X460072D01*
X462053Y475431D01*
X463569Y476947D01*
X464389Y478928D01*
Y481072D01*
X463569Y483053D01*
X462053Y484569D01*
X460072Y485389D01*
D02*
G37*
G36*
X392072D02*
X389928D01*
X387947Y484569D01*
X386431Y483053D01*
X385611Y481072D01*
Y478928D01*
X386431Y476947D01*
X387947Y475431D01*
X389928Y474611D01*
X392072D01*
X394053Y475431D01*
X395569Y476947D01*
X396389Y478928D01*
Y481072D01*
X395569Y483053D01*
X394053Y484569D01*
X392072Y485389D01*
D02*
G37*
G36*
X450624Y471889D02*
X449376D01*
X448222Y471411D01*
X447339Y470528D01*
X446861Y469374D01*
Y468126D01*
X447339Y466972D01*
X448222Y466089D01*
X449376Y465611D01*
X450624D01*
X451778Y466089D01*
X452661Y466972D01*
X453139Y468126D01*
Y469374D01*
X452661Y470528D01*
X451778Y471411D01*
X450624Y471889D01*
D02*
G37*
G36*
X555624Y444389D02*
X554376D01*
X553675Y444099D01*
X545575D01*
X544874Y444389D01*
X543626D01*
X542472Y443911D01*
X541589Y443028D01*
X541111Y441874D01*
Y440626D01*
X541589Y439472D01*
X542472Y438589D01*
X543626Y438111D01*
X544874D01*
X545575Y438401D01*
X553675D01*
X554376Y438111D01*
X555624D01*
X556778Y438589D01*
X557661Y439472D01*
X558139Y440626D01*
Y441874D01*
X557661Y443028D01*
X556778Y443911D01*
X555624Y444389D01*
D02*
G37*
G36*
X190624Y443139D02*
X189376D01*
X188222Y442661D01*
X187339Y441778D01*
X186861Y440624D01*
Y439376D01*
X187339Y438222D01*
X188222Y437339D01*
X189376Y436861D01*
X190624D01*
X191778Y437339D01*
X192661Y438222D01*
X193139Y439376D01*
Y440624D01*
X192661Y441778D01*
X191778Y442661D01*
X190624Y443139D01*
D02*
G37*
G36*
X576723Y445114D02*
X575077D01*
X573555Y444484D01*
X572391Y443320D01*
X571761Y441798D01*
Y440152D01*
X572391Y438630D01*
X573555Y437466D01*
X575077Y436836D01*
X576723D01*
X578245Y437466D01*
X579409Y438630D01*
X580039Y440152D01*
Y441798D01*
X579409Y443320D01*
X578245Y444484D01*
X576723Y445114D01*
D02*
G37*
G36*
X518923D02*
X517277D01*
X515755Y444484D01*
X514591Y443320D01*
X513961Y441798D01*
Y440152D01*
X514591Y438630D01*
X515755Y437466D01*
X517277Y436836D01*
X518923D01*
X520444Y437466D01*
X521609Y438630D01*
X522239Y440152D01*
Y441798D01*
X521609Y443320D01*
X520444Y444484D01*
X518923Y445114D01*
D02*
G37*
G36*
X31110Y438429D02*
X28890D01*
X26746Y437855D01*
X24825Y436745D01*
X23255Y435176D01*
X22145Y433254D01*
X21571Y431110D01*
Y428890D01*
X22145Y426746D01*
X23255Y424824D01*
X24825Y423255D01*
X26746Y422145D01*
X28890Y421571D01*
X31110D01*
X33254Y422145D01*
X35175Y423255D01*
X36745Y424824D01*
X37855Y426746D01*
X38429Y428890D01*
Y431110D01*
X37855Y433254D01*
X36745Y435176D01*
X35175Y436745D01*
X33254Y437855D01*
X31110Y438429D01*
D02*
G37*
G36*
X571374Y422389D02*
X570126D01*
X568972Y421911D01*
X568089Y421028D01*
X567611Y419874D01*
Y418626D01*
X568089Y417472D01*
X568972Y416589D01*
X570126Y416111D01*
X571374D01*
X572528Y416589D01*
X573411Y417472D01*
X573889Y418626D01*
Y419874D01*
X573411Y421028D01*
X572528Y421911D01*
X571374Y422389D01*
D02*
G37*
G36*
X523624D02*
X522376D01*
X521222Y421911D01*
X520339Y421028D01*
X519861Y419874D01*
Y418626D01*
X520339Y417472D01*
X521222Y416589D01*
X522376Y416111D01*
X523624D01*
X524778Y416589D01*
X525661Y417472D01*
X526139Y418626D01*
Y419874D01*
X525661Y421028D01*
X524778Y421911D01*
X523624Y422389D01*
D02*
G37*
G36*
X443124Y421389D02*
X441876D01*
X440722Y420911D01*
X439839Y420028D01*
X439361Y418874D01*
Y417626D01*
X439839Y416472D01*
X440722Y415589D01*
X441876Y415111D01*
X443124D01*
X444278Y415589D01*
X445161Y416472D01*
X445639Y417626D01*
Y418874D01*
X445161Y420028D01*
X444278Y420911D01*
X443124Y421389D01*
D02*
G37*
G36*
X419874Y420639D02*
X418626D01*
X417472Y420161D01*
X416589Y419278D01*
X416111Y418124D01*
Y416876D01*
X416589Y415722D01*
X417472Y414839D01*
X418626Y414361D01*
X419874D01*
X421028Y414839D01*
X421911Y415722D01*
X422389Y416876D01*
Y418124D01*
X421911Y419278D01*
X421028Y420161D01*
X419874Y420639D01*
D02*
G37*
G36*
X396124Y420389D02*
X394876D01*
X393722Y419911D01*
X392839Y419028D01*
X392361Y417874D01*
Y416626D01*
X392839Y415472D01*
X393722Y414589D01*
X394876Y414111D01*
X396124D01*
X397278Y414589D01*
X398161Y415472D01*
X398639Y416626D01*
Y417874D01*
X398161Y419028D01*
X397278Y419911D01*
X396124Y420389D01*
D02*
G37*
G36*
X143639Y363639D02*
X116361D01*
Y336361D01*
X143639D01*
Y363639D01*
D02*
G37*
G36*
X547624Y374389D02*
X546376D01*
X545222Y373911D01*
X544339Y373028D01*
X543861Y371874D01*
Y371224D01*
X536588Y363951D01*
X414500D01*
X413658Y363784D01*
X412943Y363307D01*
X390026Y340389D01*
X389376D01*
X388222Y339911D01*
X387339Y339028D01*
X386861Y337874D01*
Y336626D01*
X387339Y335472D01*
X388222Y334589D01*
X389376Y334111D01*
X390624D01*
X391778Y334589D01*
X392661Y335472D01*
X393139Y336626D01*
Y337276D01*
X415412Y359549D01*
X537500D01*
X538342Y359716D01*
X539057Y360193D01*
X546974Y368111D01*
X547624D01*
X548778Y368589D01*
X549661Y369472D01*
X550139Y370626D01*
Y371874D01*
X549661Y373028D01*
X548778Y373911D01*
X547624Y374389D01*
D02*
G37*
G36*
X699124Y338889D02*
X697876D01*
X696722Y338411D01*
X695839Y337528D01*
X695361Y336374D01*
Y335724D01*
X692057Y332420D01*
X691836Y332393D01*
X689209Y333164D01*
X689161Y333278D01*
X688278Y334161D01*
X687124Y334639D01*
X685876D01*
X684722Y334161D01*
X683839Y333278D01*
X683361Y332124D01*
Y331224D01*
X654526Y302389D01*
X654126D01*
X652972Y301911D01*
X652089Y301028D01*
X651611Y299874D01*
Y298626D01*
X652089Y297472D01*
X652972Y296589D01*
X654126Y296111D01*
X655374D01*
X656528Y296589D01*
X657259Y297320D01*
X658000Y297257D01*
X659799Y296599D01*
Y287738D01*
X659339Y287278D01*
X658861Y286124D01*
Y284876D01*
X659339Y283722D01*
X660222Y282839D01*
X661376Y282361D01*
X662624D01*
X663778Y282839D01*
X664661Y283722D01*
X665139Y284876D01*
Y286124D01*
X664661Y287278D01*
X664201Y287738D01*
Y298338D01*
X698474Y332611D01*
X699124D01*
X700278Y333089D01*
X701161Y333972D01*
X701639Y335126D01*
Y336374D01*
X701161Y337528D01*
X700278Y338411D01*
X699124Y338889D01*
D02*
G37*
G36*
X843750Y352181D02*
X829250D01*
X828415Y352015D01*
X827708Y351542D01*
X827235Y350835D01*
X827069Y350000D01*
Y342500D01*
X827235Y341665D01*
X827708Y340958D01*
X828415Y340485D01*
X829250Y340319D01*
X832049D01*
Y337238D01*
X831589Y336778D01*
X831111Y335624D01*
Y334376D01*
X831589Y333222D01*
X832472Y332339D01*
X833626Y331861D01*
X834874D01*
X836028Y332339D01*
X836911Y333222D01*
X837389Y334376D01*
Y335624D01*
X836911Y336778D01*
X836451Y337238D01*
Y340319D01*
X843750D01*
X844585Y340485D01*
X845292Y340958D01*
X845765Y341665D01*
X845931Y342500D01*
Y350000D01*
X845765Y350835D01*
X845292Y351542D01*
X844585Y352015D01*
X843750Y352181D01*
D02*
G37*
G36*
X818750D02*
X804250D01*
X803415Y352015D01*
X802708Y351542D01*
X802235Y350835D01*
X802069Y350000D01*
Y342500D01*
X802235Y341665D01*
X802708Y340958D01*
X803415Y340485D01*
X804250Y340319D01*
X811799D01*
Y337238D01*
X811339Y336778D01*
X810861Y335624D01*
Y334376D01*
X811339Y333222D01*
X812222Y332339D01*
X813376Y331861D01*
X814624D01*
X815778Y332339D01*
X816661Y333222D01*
X817139Y334376D01*
Y335624D01*
X816661Y336778D01*
X816201Y337238D01*
Y340319D01*
X818750D01*
X819585Y340485D01*
X820292Y340958D01*
X820765Y341665D01*
X820931Y342500D01*
Y350000D01*
X820765Y350835D01*
X820292Y351542D01*
X819585Y352015D01*
X818750Y352181D01*
D02*
G37*
G36*
X534750Y328431D02*
X520250D01*
X519415Y328265D01*
X518708Y327792D01*
X518235Y327085D01*
X518069Y326250D01*
Y324701D01*
X511931D01*
Y326250D01*
X511765Y327085D01*
X511292Y327792D01*
X510585Y328265D01*
X509750Y328431D01*
X495250D01*
X494415Y328265D01*
X493708Y327792D01*
X493235Y327085D01*
X493069Y326250D01*
Y318750D01*
X493235Y317915D01*
X493708Y317208D01*
X494415Y316735D01*
X495250Y316569D01*
X509750D01*
X510585Y316735D01*
X511292Y317208D01*
X511765Y317915D01*
X511931Y318750D01*
Y320299D01*
X518069D01*
Y318750D01*
X518235Y317915D01*
X518708Y317208D01*
X519415Y316735D01*
X520250Y316569D01*
X527068D01*
X529611Y314026D01*
Y313376D01*
X530089Y312222D01*
X530972Y311339D01*
X532126Y310861D01*
X533374D01*
X534528Y311339D01*
X535411Y312222D01*
X535889Y313376D01*
Y314624D01*
X535663Y316188D01*
X536292Y317208D01*
X536765Y317915D01*
X536931Y318750D01*
Y326250D01*
X536765Y327085D01*
X536292Y327792D01*
X535585Y328265D01*
X534750Y328431D01*
D02*
G37*
G36*
X31110Y328429D02*
X28890D01*
X26746Y327855D01*
X24825Y326745D01*
X23255Y325176D01*
X22145Y323254D01*
X21571Y321110D01*
Y318890D01*
X22145Y316747D01*
X23255Y314825D01*
X24825Y313255D01*
X26746Y312146D01*
X28890Y311571D01*
X31110D01*
X33254Y312146D01*
X35175Y313255D01*
X36745Y314825D01*
X37855Y316747D01*
X38429Y318890D01*
Y321110D01*
X37855Y323254D01*
X36745Y325176D01*
X35175Y326745D01*
X33254Y327855D01*
X31110Y328429D01*
D02*
G37*
G36*
X559750Y328431D02*
X545250D01*
X544415Y328265D01*
X543708Y327792D01*
X543235Y327085D01*
X543069Y326250D01*
Y318750D01*
X543235Y317915D01*
X543708Y317208D01*
X544415Y316735D01*
X545250Y316569D01*
X551811D01*
X553611Y314374D01*
Y313126D01*
X554089Y311972D01*
X554972Y311089D01*
X556126Y310611D01*
X557374D01*
X558528Y311089D01*
X559411Y311972D01*
X559889Y313126D01*
Y314374D01*
X560523Y316525D01*
X561263Y317189D01*
X561292Y317208D01*
X561765Y317915D01*
X561931Y318750D01*
Y326250D01*
X561765Y327085D01*
X561292Y327792D01*
X560585Y328265D01*
X559750Y328431D01*
D02*
G37*
G36*
X584750D02*
X570250D01*
X569415Y328265D01*
X568708Y327792D01*
X568235Y327085D01*
X568069Y326250D01*
Y318750D01*
X568235Y317915D01*
X568708Y317208D01*
X569415Y316735D01*
X570250Y316569D01*
X572311D01*
X573861Y314124D01*
Y312876D01*
X574339Y311722D01*
X575222Y310839D01*
X576376Y310361D01*
X577624D01*
X578778Y310839D01*
X579661Y311722D01*
X580139Y312876D01*
Y314124D01*
X581632Y316569D01*
X584750D01*
X585585Y316735D01*
X586292Y317208D01*
X586765Y317915D01*
X586931Y318750D01*
Y326250D01*
X586765Y327085D01*
X586292Y327792D01*
X585585Y328265D01*
X584750Y328431D01*
D02*
G37*
G36*
X865250Y320681D02*
X857750D01*
X856915Y320515D01*
X856208Y320042D01*
X855735Y319335D01*
X855569Y318500D01*
Y307432D01*
X849776Y301639D01*
X849126D01*
X847972Y301161D01*
X847089Y300278D01*
X846611Y299124D01*
Y297876D01*
X847089Y296722D01*
X847972Y295839D01*
X849126Y295361D01*
X850374D01*
X851528Y295839D01*
X852411Y296722D01*
X852889Y297876D01*
Y298526D01*
X856575Y302212D01*
X856915Y301985D01*
X857750Y301819D01*
X865250D01*
X866085Y301985D01*
X866792Y302458D01*
X867265Y303165D01*
X867431Y304000D01*
Y318500D01*
X867265Y319335D01*
X866792Y320042D01*
X866085Y320515D01*
X865250Y320681D01*
D02*
G37*
G36*
X775250Y335681D02*
X767750D01*
X766915Y335515D01*
X766208Y335042D01*
X765735Y334335D01*
X765569Y333500D01*
Y319000D01*
X765735Y318165D01*
X766208Y317458D01*
X766915Y316985D01*
X767750Y316819D01*
X769299D01*
Y310681D01*
X767750D01*
X766915Y310515D01*
X766208Y310042D01*
X765735Y309335D01*
X765569Y308500D01*
Y294000D01*
X765735Y293165D01*
X766208Y292458D01*
X766915Y291985D01*
X767750Y291819D01*
X775250D01*
X776085Y291985D01*
X776792Y292458D01*
X777265Y293165D01*
X777431Y294000D01*
Y299038D01*
X778239Y299652D01*
X779971Y300382D01*
X780626Y300111D01*
X781874D01*
X783028Y300589D01*
X783911Y301472D01*
X784389Y302626D01*
Y303874D01*
X783911Y305028D01*
X783028Y305911D01*
X781874Y306389D01*
X780626D01*
X779971Y306118D01*
X778239Y306848D01*
X777431Y307462D01*
Y308500D01*
X777265Y309335D01*
X776792Y310042D01*
X776085Y310515D01*
X775250Y310681D01*
X773701D01*
Y316819D01*
X775250D01*
X776085Y316985D01*
X776792Y317458D01*
X777265Y318165D01*
X777431Y319000D01*
Y333500D01*
X777265Y334335D01*
X776792Y335042D01*
X776085Y335515D01*
X775250Y335681D01*
D02*
G37*
G36*
X594250Y305431D02*
X586750D01*
X585915Y305265D01*
X585208Y304792D01*
X584735Y304085D01*
X584569Y303250D01*
Y300212D01*
X583761Y299598D01*
X582029Y298868D01*
X581374Y299139D01*
X580126D01*
X578972Y298661D01*
X578089Y297778D01*
X577611Y296624D01*
Y295376D01*
X578089Y294222D01*
X578972Y293339D01*
X580126Y292861D01*
X581374D01*
X582029Y293132D01*
X583761Y292402D01*
X584569Y291788D01*
Y288750D01*
X584735Y287915D01*
X585208Y287208D01*
X585915Y286735D01*
X586750Y286569D01*
X594250D01*
X595085Y286735D01*
X595792Y287208D01*
X596265Y287915D01*
X596431Y288750D01*
Y303250D01*
X596265Y304085D01*
X595792Y304792D01*
X595085Y305265D01*
X594250Y305431D01*
D02*
G37*
G36*
X663078Y321889D02*
X661829D01*
X660676Y321411D01*
X659793Y320528D01*
X659315Y319374D01*
Y319223D01*
X644231Y304139D01*
X643876D01*
X642722Y303661D01*
X641839Y302778D01*
X641361Y301624D01*
Y300376D01*
X641839Y299222D01*
X642722Y298339D01*
X643876Y297861D01*
X645124D01*
X646278Y298339D01*
X647161Y299222D01*
X647639Y300376D01*
Y301321D01*
X661929Y315611D01*
X663078D01*
X664232Y316089D01*
X665115Y316972D01*
X665593Y318126D01*
Y319374D01*
X665115Y320528D01*
X664232Y321411D01*
X663078Y321889D01*
D02*
G37*
G36*
X539874Y299889D02*
X538626D01*
X537472Y299411D01*
X536589Y298528D01*
X536111Y297374D01*
Y296126D01*
X536589Y294972D01*
X537472Y294089D01*
X538626Y293611D01*
X539874D01*
X541028Y294089D01*
X541911Y294972D01*
X542389Y296126D01*
Y297374D01*
X541911Y298528D01*
X541028Y299411D01*
X539874Y299889D01*
D02*
G37*
G36*
X486500Y305681D02*
X479000D01*
X478165Y305515D01*
X477458Y305042D01*
X476985Y304335D01*
X476819Y303500D01*
Y289000D01*
X476985Y288165D01*
X477458Y287458D01*
X478165Y286985D01*
X479000Y286819D01*
X486500D01*
X487335Y286985D01*
X488042Y287458D01*
X488515Y288165D01*
X488681Y289000D01*
Y291187D01*
X488859Y291407D01*
X491221Y292675D01*
X491376Y292611D01*
X492624D01*
X493778Y293089D01*
X494661Y293972D01*
X495139Y295126D01*
Y296374D01*
X494661Y297528D01*
X493778Y298411D01*
X492624Y298889D01*
X491376D01*
X491221Y298825D01*
X488859Y300093D01*
X488681Y300313D01*
Y303500D01*
X488515Y304335D01*
X488042Y305042D01*
X487335Y305515D01*
X486500Y305681D01*
D02*
G37*
G36*
X865250Y295681D02*
X857750D01*
X856915Y295515D01*
X856208Y295042D01*
X855735Y294335D01*
X855569Y293500D01*
Y285701D01*
X851988D01*
X851528Y286161D01*
X850374Y286639D01*
X849126D01*
X847972Y286161D01*
X847089Y285278D01*
X846611Y284124D01*
Y282876D01*
X847089Y281722D01*
X847972Y280839D01*
X849126Y280361D01*
X850374D01*
X851528Y280839D01*
X851988Y281299D01*
X855569D01*
Y279000D01*
X855735Y278165D01*
X856208Y277458D01*
X856915Y276985D01*
X857750Y276819D01*
X859299D01*
Y270681D01*
X857750D01*
X856915Y270515D01*
X856208Y270042D01*
X855735Y269335D01*
X855569Y268500D01*
Y254000D01*
X855735Y253165D01*
X856208Y252458D01*
X856915Y251985D01*
X857750Y251819D01*
X865250D01*
X866085Y251985D01*
X866792Y252458D01*
X867265Y253165D01*
X867431Y254000D01*
Y268500D01*
X867265Y269335D01*
X866792Y270042D01*
X866085Y270515D01*
X865250Y270681D01*
X863701D01*
Y276819D01*
X865250D01*
X866085Y276985D01*
X866792Y277458D01*
X867265Y278165D01*
X867431Y279000D01*
Y293500D01*
X867265Y294335D01*
X866792Y295042D01*
X866085Y295515D01*
X865250Y295681D01*
D02*
G37*
G36*
X688124Y282139D02*
X686876D01*
X685722Y281661D01*
X684839Y280778D01*
X684361Y279624D01*
Y278376D01*
X684839Y277222D01*
X685722Y276339D01*
X686876Y275861D01*
X688124D01*
X689278Y276339D01*
X690161Y277222D01*
X690639Y278376D01*
Y279624D01*
X690161Y280778D01*
X689278Y281661D01*
X688124Y282139D01*
D02*
G37*
G36*
X272374Y319389D02*
X271126D01*
X269972Y318911D01*
X269089Y318028D01*
X268611Y316874D01*
Y315626D01*
X269089Y314472D01*
X269549Y314012D01*
Y311000D01*
X269716Y310158D01*
X270194Y309443D01*
X277943Y301693D01*
X278658Y301216D01*
X279500Y301049D01*
X318338D01*
X345611Y273776D01*
Y273126D01*
X346089Y271972D01*
X346972Y271089D01*
X348126Y270611D01*
X349374D01*
X350528Y271089D01*
X351411Y271972D01*
X351889Y273126D01*
Y274374D01*
X351411Y275528D01*
X350528Y276411D01*
X349374Y276889D01*
X348724D01*
X320807Y304806D01*
X320092Y305284D01*
X319250Y305451D01*
X280412D01*
X273951Y311912D01*
Y314012D01*
X274411Y314472D01*
X274889Y315626D01*
Y316874D01*
X274411Y318028D01*
X273528Y318911D01*
X272374Y319389D01*
D02*
G37*
G36*
X775250Y285681D02*
X767750D01*
X766915Y285515D01*
X766208Y285042D01*
X765735Y284335D01*
X765569Y283500D01*
Y269000D01*
X765735Y268165D01*
X766208Y267458D01*
X766915Y266985D01*
X767750Y266819D01*
X775250D01*
X776085Y266985D01*
X776792Y267458D01*
X777265Y268165D01*
X777431Y269000D01*
Y270607D01*
X778626Y272861D01*
X779874D01*
X781028Y273339D01*
X781911Y274222D01*
X782389Y275376D01*
Y276624D01*
X781911Y277778D01*
X781028Y278661D01*
X779874Y279139D01*
X778626D01*
X777431Y281393D01*
Y283500D01*
X777265Y284335D01*
X776792Y285042D01*
X776085Y285515D01*
X775250Y285681D01*
D02*
G37*
G36*
X593750Y269431D02*
X586250D01*
X585415Y269265D01*
X584708Y268792D01*
X584235Y268085D01*
X584069Y267250D01*
Y264725D01*
X583891Y264505D01*
X581529Y263237D01*
X581374Y263301D01*
X580126D01*
X578972Y262823D01*
X578089Y261940D01*
X577611Y260786D01*
Y259538D01*
X578089Y258384D01*
X578972Y257501D01*
X580126Y257023D01*
X581374D01*
X581529Y257087D01*
X583891Y255819D01*
X584069Y255599D01*
Y252750D01*
X584235Y251915D01*
X584708Y251208D01*
X585415Y250735D01*
X586250Y250569D01*
X593750D01*
X594585Y250735D01*
X595292Y251208D01*
X595765Y251915D01*
X595931Y252750D01*
Y267250D01*
X595765Y268085D01*
X595292Y268792D01*
X594585Y269265D01*
X593750Y269431D01*
D02*
G37*
G36*
X282890Y281621D02*
X275390D01*
X274555Y281455D01*
X273848Y280982D01*
X273375Y280275D01*
X273209Y279440D01*
Y264940D01*
X273375Y264105D01*
X273592Y263780D01*
X272871Y262309D01*
X272230Y261595D01*
X272124Y261639D01*
X270876D01*
X269722Y261161D01*
X268839Y260278D01*
X268361Y259124D01*
Y257876D01*
X268839Y256722D01*
X269359Y256202D01*
Y252440D01*
X269526Y251598D01*
X270004Y250883D01*
X276194Y244693D01*
X276908Y244216D01*
X277750Y244049D01*
X346012D01*
X346472Y243589D01*
X347626Y243111D01*
X348874D01*
X350028Y243589D01*
X350911Y244472D01*
X351389Y245626D01*
Y246874D01*
X350911Y248028D01*
X350028Y248911D01*
X348874Y249389D01*
X347626D01*
X346472Y248911D01*
X346012Y248451D01*
X278662D01*
X274469Y252644D01*
X274677Y254134D01*
X275044Y254483D01*
X277264Y255511D01*
X277626Y255361D01*
X278874D01*
X280028Y255839D01*
X280911Y256722D01*
X281389Y257876D01*
Y259124D01*
X281144Y259715D01*
X281146Y259725D01*
Y262759D01*
X282890D01*
X283725Y262925D01*
X284432Y263398D01*
X284905Y264105D01*
X285071Y264940D01*
Y279440D01*
X284905Y280275D01*
X284432Y280982D01*
X283725Y281455D01*
X282890Y281621D01*
D02*
G37*
G36*
X488250Y269431D02*
X480750D01*
X479915Y269265D01*
X479208Y268792D01*
X478735Y268085D01*
X478569Y267250D01*
Y252750D01*
X478735Y251915D01*
X479208Y251208D01*
X479915Y250735D01*
X480750Y250569D01*
X488250D01*
X489085Y250735D01*
X489792Y251208D01*
X490265Y251915D01*
X490431Y252750D01*
Y257799D01*
X507762D01*
X508222Y257339D01*
X509376Y256861D01*
X510624D01*
X511778Y257339D01*
X512661Y258222D01*
X513139Y259376D01*
Y260624D01*
X512661Y261778D01*
X511778Y262661D01*
X510624Y263139D01*
X509376D01*
X508222Y262661D01*
X507762Y262201D01*
X490431D01*
Y267250D01*
X490265Y268085D01*
X489792Y268792D01*
X489085Y269265D01*
X488250Y269431D01*
D02*
G37*
G36*
X686874Y262639D02*
X685626D01*
X684472Y262161D01*
X683589Y261278D01*
X683111Y260124D01*
Y258876D01*
X683589Y257722D01*
X684472Y256839D01*
X685626Y256361D01*
X686874D01*
X688028Y256839D01*
X688911Y257722D01*
X689389Y258876D01*
Y260124D01*
X688911Y261278D01*
X688028Y262161D01*
X686874Y262639D01*
D02*
G37*
G36*
X240500Y264931D02*
X233000D01*
X232165Y264765D01*
X231458Y264292D01*
X230985Y263585D01*
X230819Y262750D01*
Y258436D01*
X229124Y256389D01*
X227876D01*
X226722Y255911D01*
X225839Y255028D01*
X223088Y255025D01*
X222648Y255466D01*
X221933Y255943D01*
X221091Y256110D01*
X185409D01*
X184567Y255943D01*
X183853Y255466D01*
X179526Y251139D01*
X178876D01*
X177722Y250661D01*
X176839Y249778D01*
X176361Y248624D01*
Y247376D01*
X176839Y246222D01*
X177722Y245339D01*
X178876Y244861D01*
X180124D01*
X181278Y245339D01*
X182161Y246222D01*
X182639Y247376D01*
Y248026D01*
X186321Y251708D01*
X220179D01*
X221799Y250088D01*
Y244988D01*
X221339Y244528D01*
X220861Y243374D01*
Y242126D01*
X221339Y240972D01*
X222222Y240089D01*
X223376Y239611D01*
X224624D01*
X226299Y237555D01*
Y169412D01*
X212088Y155201D01*
X105750D01*
X104908Y155034D01*
X104193Y154557D01*
X90194Y140556D01*
X89716Y139842D01*
X89549Y139000D01*
Y113531D01*
X88973Y112956D01*
X88495Y111802D01*
Y110553D01*
X88973Y109400D01*
X89856Y108517D01*
X91010Y108039D01*
X92259D01*
X93413Y108517D01*
X94296Y109400D01*
X94773Y110553D01*
Y111802D01*
X94296Y112956D01*
X93951Y113300D01*
Y138088D01*
X106662Y150799D01*
X177887D01*
X178708Y148292D01*
X178235Y147585D01*
X178069Y146750D01*
Y145201D01*
X175530D01*
X175393Y145174D01*
X174874Y145389D01*
X173626D01*
X172472Y144911D01*
X171589Y144028D01*
X171111Y142874D01*
Y141626D01*
X171589Y140472D01*
X172472Y139589D01*
X173626Y139111D01*
X174874D01*
X175529Y139382D01*
X175975Y139359D01*
X177884Y138602D01*
X178151Y138460D01*
X178320Y138288D01*
X178708Y137708D01*
X179415Y137235D01*
X180250Y137069D01*
X194750D01*
X195585Y137235D01*
X196292Y137708D01*
X196765Y138415D01*
X196931Y139250D01*
Y146750D01*
X196765Y147585D01*
X196292Y148292D01*
X197113Y150799D01*
X213000D01*
X213842Y150966D01*
X214557Y151444D01*
X230056Y166943D01*
X230534Y167658D01*
X230701Y168500D01*
Y244158D01*
X231039Y244638D01*
X233000Y246069D01*
X240500D01*
X241335Y246235D01*
X242042Y246708D01*
X242515Y247415D01*
X242681Y248250D01*
Y262750D01*
X242515Y263585D01*
X242042Y264292D01*
X241335Y264765D01*
X240500Y264931D01*
D02*
G37*
G36*
X824624Y270389D02*
X823376D01*
X822222Y269911D01*
X821339Y269028D01*
X820861Y267874D01*
Y266626D01*
X821339Y265472D01*
X821799Y265012D01*
Y262181D01*
X816750D01*
X815915Y262015D01*
X815208Y261542D01*
X814735Y260835D01*
X814569Y260000D01*
Y252500D01*
X814735Y251665D01*
X815208Y250958D01*
X815915Y250485D01*
X816750Y250319D01*
X831250D01*
X832085Y250485D01*
X832792Y250958D01*
X833265Y251665D01*
X833431Y252500D01*
Y260000D01*
X833265Y260835D01*
X832792Y261542D01*
X832085Y262015D01*
X831250Y262181D01*
X826201D01*
Y265012D01*
X826661Y265472D01*
X827139Y266626D01*
Y267874D01*
X826661Y269028D01*
X825778Y269911D01*
X824624Y270389D01*
D02*
G37*
G36*
X250321Y320955D02*
X152500D01*
X151178Y320692D01*
X150057Y319943D01*
X107557Y277443D01*
X106808Y276322D01*
X106545Y275000D01*
Y217373D01*
X105008Y215836D01*
X104111Y213671D01*
Y211329D01*
X105008Y209164D01*
X106664Y207508D01*
X108829Y206611D01*
X111171D01*
X113336Y207508D01*
X114993Y209164D01*
X115889Y211329D01*
Y213671D01*
X114993Y215836D01*
X113455Y217373D01*
Y273569D01*
X153931Y314045D01*
X229483D01*
X230637Y312347D01*
X230919Y311505D01*
X230819Y311000D01*
Y296500D01*
X230985Y295665D01*
X231458Y294958D01*
X232165Y294485D01*
X233000Y294319D01*
X234549D01*
Y289181D01*
X233000D01*
X232165Y289015D01*
X231458Y288542D01*
X230985Y287835D01*
X230819Y287000D01*
Y276932D01*
X224588Y270701D01*
X211988D01*
X211528Y271161D01*
X210374Y271639D01*
X209126D01*
X207972Y271161D01*
X207089Y270278D01*
X206611Y269124D01*
Y267876D01*
X207089Y266722D01*
X207972Y265839D01*
X209126Y265361D01*
X210374D01*
X211528Y265839D01*
X211988Y266299D01*
X225500D01*
X226342Y266466D01*
X227057Y266943D01*
X231106Y270993D01*
X231458Y270958D01*
X232165Y270485D01*
X233000Y270319D01*
X240500D01*
X241335Y270485D01*
X242042Y270958D01*
X242515Y271665D01*
X242681Y272500D01*
Y287000D01*
X242515Y287835D01*
X242042Y288542D01*
X241335Y289015D01*
X240500Y289181D01*
X238951D01*
Y294319D01*
X240500D01*
X241335Y294485D01*
X242042Y294958D01*
X242515Y295665D01*
X242681Y296500D01*
Y311000D01*
X242581Y311505D01*
X242863Y312347D01*
X244017Y314045D01*
X248890D01*
X249795Y313140D01*
Y306250D01*
X249819Y306127D01*
Y296500D01*
X249985Y295665D01*
X250458Y294958D01*
X251165Y294485D01*
X252000Y294319D01*
X252295D01*
Y289181D01*
X252000D01*
X251165Y289015D01*
X250458Y288542D01*
X249985Y287835D01*
X249819Y287000D01*
Y272500D01*
X249985Y271665D01*
X250458Y270958D01*
X251165Y270485D01*
X252000Y270319D01*
X252295D01*
Y264931D01*
X252000D01*
X251165Y264765D01*
X250458Y264292D01*
X249985Y263585D01*
X249819Y262750D01*
Y248250D01*
X249985Y247415D01*
X250458Y246708D01*
X251165Y246235D01*
X252000Y246069D01*
X259500D01*
X260335Y246235D01*
X261042Y246708D01*
X261515Y247415D01*
X261681Y248250D01*
Y262750D01*
X261515Y263585D01*
X261042Y264292D01*
X260335Y264765D01*
X259500Y264931D01*
X259205D01*
Y270319D01*
X259500D01*
X260335Y270485D01*
X261042Y270958D01*
X261515Y271665D01*
X261681Y272500D01*
Y287000D01*
X261515Y287835D01*
X261042Y288542D01*
X260335Y289015D01*
X259500Y289181D01*
X259205D01*
Y294319D01*
X259500D01*
X260335Y294485D01*
X261042Y294958D01*
X261515Y295665D01*
X261681Y296500D01*
Y311000D01*
X261515Y311835D01*
X261042Y312542D01*
X260335Y313015D01*
X259500Y313181D01*
X256705D01*
Y314571D01*
X256442Y315893D01*
X255693Y317014D01*
X252764Y319943D01*
X251643Y320692D01*
X250321Y320955D01*
D02*
G37*
G36*
X535374Y248889D02*
X534126D01*
X532972Y248411D01*
X532089Y247528D01*
X531611Y246374D01*
Y245126D01*
X532089Y243972D01*
X532972Y243089D01*
X534126Y242611D01*
X535374D01*
X536528Y243089D01*
X537411Y243972D01*
X537889Y245126D01*
Y246374D01*
X537411Y247528D01*
X536528Y248411D01*
X535374Y248889D01*
D02*
G37*
G36*
X684374Y239389D02*
X683126D01*
X681972Y238911D01*
X681089Y238028D01*
X680611Y236874D01*
Y235626D01*
X681089Y234472D01*
X681972Y233589D01*
X683126Y233111D01*
X684374D01*
X685528Y233589D01*
X686411Y234472D01*
X686889Y235626D01*
Y236874D01*
X686411Y238028D01*
X685528Y238911D01*
X684374Y239389D01*
D02*
G37*
G36*
X488250Y244431D02*
X480750D01*
X479915Y244265D01*
X479208Y243792D01*
X478735Y243085D01*
X478569Y242250D01*
Y227750D01*
X478735Y226915D01*
X479208Y226208D01*
X479915Y225735D01*
X480750Y225569D01*
X488250D01*
X489085Y225735D01*
X489792Y226208D01*
X490265Y226915D01*
X490431Y227750D01*
Y230946D01*
X492971Y231840D01*
X493222Y231589D01*
X494376Y231111D01*
X495624D01*
X496778Y231589D01*
X497661Y232472D01*
X498139Y233626D01*
Y234874D01*
X497661Y236028D01*
X496778Y236911D01*
X495624Y237389D01*
X494376D01*
X493923Y237201D01*
X490431D01*
Y242250D01*
X490265Y243085D01*
X489792Y243792D01*
X489085Y244265D01*
X488250Y244431D01*
D02*
G37*
G36*
X683874Y216139D02*
X682626D01*
X681472Y215661D01*
X680589Y214778D01*
X680111Y213624D01*
Y212376D01*
X680589Y211222D01*
X681472Y210339D01*
X682626Y209861D01*
X683874D01*
X685028Y210339D01*
X685911Y211222D01*
X686389Y212376D01*
Y213624D01*
X685911Y214778D01*
X685028Y215661D01*
X683874Y216139D01*
D02*
G37*
G36*
X555624Y230639D02*
X554376D01*
X553222Y230161D01*
X552339Y229278D01*
X551861Y228124D01*
Y226931D01*
X551750D01*
X550915Y226765D01*
X550208Y226292D01*
X549735Y225585D01*
X549569Y224750D01*
Y210250D01*
X549735Y209415D01*
X550208Y208708D01*
X550915Y208235D01*
X551750Y208069D01*
X559250D01*
X560085Y208235D01*
X560792Y208708D01*
X561265Y209415D01*
X561431Y210250D01*
Y224750D01*
X561265Y225585D01*
X560792Y226292D01*
X560085Y226765D01*
X559250Y226931D01*
X558139D01*
Y228124D01*
X557661Y229278D01*
X556778Y230161D01*
X555624Y230639D01*
D02*
G37*
G36*
X539374Y231389D02*
X538126D01*
X536972Y230911D01*
X536089Y230028D01*
X535611Y228874D01*
Y227626D01*
X535727Y227347D01*
X535415Y226765D01*
X534708Y226292D01*
X534235Y225585D01*
X534069Y224750D01*
Y210250D01*
X534235Y209415D01*
X534708Y208708D01*
X535415Y208235D01*
X536250Y208069D01*
X543750D01*
X544585Y208235D01*
X545292Y208708D01*
X545765Y209415D01*
X545931Y210250D01*
Y224750D01*
X545765Y225585D01*
X545292Y226292D01*
X544585Y226765D01*
X544236Y226834D01*
X541889Y227626D01*
Y228874D01*
X541411Y230028D01*
X540528Y230911D01*
X539374Y231389D01*
D02*
G37*
G36*
X232124Y149139D02*
X230876D01*
X229722Y148661D01*
X229262Y148201D01*
X215500D01*
X214658Y148034D01*
X213944Y147556D01*
X186276Y119889D01*
X185626D01*
X184472Y119411D01*
X183589Y118528D01*
X183111Y117374D01*
Y116126D01*
X183589Y114972D01*
X184472Y114089D01*
X185626Y113611D01*
X186874D01*
X187865Y114022D01*
X195916Y105971D01*
X194864Y103431D01*
X192750D01*
X191915Y103265D01*
X191208Y102792D01*
X190735Y102085D01*
X190569Y101250D01*
Y93750D01*
X190735Y92915D01*
X191208Y92208D01*
X191915Y91735D01*
X192750Y91569D01*
X207250D01*
X208085Y91735D01*
X208792Y92208D01*
X209265Y92915D01*
X209431Y93750D01*
Y101250D01*
X209265Y102085D01*
X208792Y102792D01*
X208085Y103265D01*
X207250Y103431D01*
X202201D01*
Y105000D01*
X202034Y105842D01*
X201556Y106557D01*
X190363Y117750D01*
X216412Y143799D01*
X229262D01*
X229722Y143339D01*
X230876Y142861D01*
X232124D01*
X233278Y143339D01*
X234161Y144222D01*
X234639Y145376D01*
Y146624D01*
X234161Y147778D01*
X233278Y148661D01*
X232124Y149139D01*
D02*
G37*
G36*
X388874Y134889D02*
X387626D01*
X386472Y134411D01*
X385589Y133528D01*
X385111Y132374D01*
Y131126D01*
X385589Y129972D01*
X386472Y129089D01*
X387626Y128611D01*
X388874D01*
X390028Y129089D01*
X390911Y129972D01*
X391389Y131126D01*
Y132374D01*
X390911Y133528D01*
X390028Y134411D01*
X388874Y134889D01*
D02*
G37*
G36*
X439874Y128639D02*
X438626D01*
X437472Y128161D01*
X436589Y127278D01*
X436111Y126124D01*
Y124876D01*
X436589Y123722D01*
X437472Y122839D01*
X438626Y122361D01*
X439874D01*
X441028Y122839D01*
X441911Y123722D01*
X442389Y124876D01*
Y126124D01*
X441911Y127278D01*
X441028Y128161D01*
X439874Y128639D01*
D02*
G37*
G36*
X238124Y113139D02*
X236876D01*
X235722Y112661D01*
X234839Y111778D01*
X234361Y110624D01*
Y109376D01*
X234839Y108222D01*
X235722Y107339D01*
X236876Y106861D01*
X238124D01*
X239278Y107339D01*
X240161Y108222D01*
X240639Y109376D01*
Y110624D01*
X240161Y111778D01*
X239278Y112661D01*
X238124Y113139D01*
D02*
G37*
G36*
X552989Y98389D02*
X535511D01*
Y80911D01*
X552989D01*
Y98389D01*
D02*
G37*
G36*
X74624Y66889D02*
X73376D01*
X72222Y66411D01*
X71339Y65528D01*
X70861Y64374D01*
Y63126D01*
X71339Y61972D01*
X72222Y61089D01*
X73376Y60611D01*
X74624D01*
X75778Y61089D01*
X76661Y61972D01*
X77139Y63126D01*
Y64374D01*
X76661Y65528D01*
X75778Y66411D01*
X74624Y66889D01*
D02*
G37*
G36*
X65374Y64389D02*
X64126D01*
X62972Y63911D01*
X62089Y63028D01*
X61611Y61874D01*
Y60626D01*
X62089Y59472D01*
X62972Y58589D01*
X64126Y58111D01*
X65374D01*
X66528Y58589D01*
X67411Y59472D01*
X67889Y60626D01*
Y61874D01*
X67411Y63028D01*
X66528Y63911D01*
X65374Y64389D01*
D02*
G37*
G36*
X545401Y72989D02*
X543100D01*
X540877Y72393D01*
X538884Y71243D01*
X537257Y69616D01*
X536107Y67623D01*
X535511Y65401D01*
Y63099D01*
X536107Y60877D01*
X537257Y58884D01*
X538884Y57257D01*
X540877Y56107D01*
X543100Y55511D01*
X545401D01*
X547623Y56107D01*
X549616Y57257D01*
X551243Y58884D01*
X552393Y60877D01*
X552989Y63099D01*
Y65401D01*
X552393Y67623D01*
X551243Y69616D01*
X549616Y71243D01*
X547623Y72393D01*
X545401Y72989D01*
D02*
G37*
%LPD*%
D21*
X761550Y26000D02*
D03*
X816950D02*
D03*
D32*
X590000Y260000D02*
D03*
X609000D02*
D03*
X752500Y301250D02*
D03*
X771500D02*
D03*
X880500Y261250D02*
D03*
X861500D02*
D03*
X880500Y311250D02*
D03*
X861500D02*
D03*
X880500Y286250D02*
D03*
X861500D02*
D03*
X752500Y326250D02*
D03*
X771500D02*
D03*
X752500Y276250D02*
D03*
X771500D02*
D03*
X521000Y217500D02*
D03*
X540000D02*
D03*
X465500Y235000D02*
D03*
X484500D02*
D03*
X574500Y217500D02*
D03*
X555500D02*
D03*
X465500Y260000D02*
D03*
X484500D02*
D03*
X463750Y296250D02*
D03*
X482750D02*
D03*
X609500Y296000D02*
D03*
X590500D02*
D03*
X279140Y272190D02*
D03*
X298140D02*
D03*
X236750Y303750D02*
D03*
X255750D02*
D03*
X255750Y255500D02*
D03*
X236750D02*
D03*
X236750Y279750D02*
D03*
X255750D02*
D03*
D37*
X824000Y237250D02*
D03*
Y256250D02*
D03*
X836500Y365250D02*
D03*
Y346250D02*
D03*
X811500Y365250D02*
D03*
Y346250D02*
D03*
X502500Y341500D02*
D03*
Y322500D02*
D03*
X527500Y341500D02*
D03*
Y322500D02*
D03*
X577500Y341500D02*
D03*
Y322500D02*
D03*
X552500Y341500D02*
D03*
Y322500D02*
D03*
X187500Y162000D02*
D03*
Y143000D02*
D03*
X200000Y78500D02*
D03*
Y97500D02*
D03*
D96*
X544250Y38850D02*
D03*
Y64250D02*
D03*
D97*
Y89650D02*
D03*
D102*
X391000Y480000D02*
D03*
X459000D02*
D03*
D107*
X771750Y276000D02*
X779250D01*
X771500Y276250D02*
X771750Y276000D01*
X175530Y143000D02*
X187500D01*
X174250Y142250D02*
X174780D01*
X175530Y143000D01*
X271560Y252440D02*
Y258440D01*
X271500Y258500D02*
X271560Y258440D01*
Y252440D02*
X277750Y246250D01*
X278250Y259030D02*
X278945Y259725D01*
Y271995D01*
X278250Y258500D02*
Y259030D01*
X278945Y271995D02*
X279140Y272190D01*
X537500Y361750D02*
X547000Y371250D01*
X414500Y361750D02*
X537500D01*
X390000Y337250D02*
X414500Y361750D01*
X215500Y146000D02*
X231500D01*
X186250Y116750D02*
X215500Y146000D01*
X319250Y303250D02*
X348750Y273750D01*
X279500Y303250D02*
X319250D01*
X209750Y268500D02*
X225500D01*
X236750Y279750D01*
X773500Y303250D02*
X781250D01*
X771500Y301250D02*
X773500Y303250D01*
X771500Y301250D02*
Y326250D01*
X811500Y346250D02*
X814000Y343750D01*
Y335000D02*
Y343750D01*
X834250Y344000D02*
X836500Y346250D01*
X834250Y335000D02*
Y344000D01*
X861500Y310250D02*
Y311250D01*
X849750Y298500D02*
X861500Y310250D01*
Y261250D02*
Y286250D01*
X858750Y283500D02*
X861500Y286250D01*
X849750Y283500D02*
X858750D01*
X824000Y256250D02*
X824000Y256250D01*
X824000Y256250D02*
Y267250D01*
X662000Y299250D02*
X698500Y335750D01*
X662000Y285500D02*
Y299250D01*
X654750Y299250D02*
Y299500D01*
X686500Y331250D02*
Y331500D01*
X654750Y299500D02*
X686500Y331250D01*
X644500Y301295D02*
X661955Y318750D01*
X644500Y301000D02*
Y301295D01*
X661955Y318750D02*
X662454D01*
X589838Y260162D02*
X590000Y260000D01*
X580750Y260162D02*
X589838D01*
X555250Y217750D02*
X555500Y217500D01*
X555000Y227500D02*
X555250Y227250D01*
Y217750D02*
Y227250D01*
X484500Y260000D02*
X510000D01*
X539125Y218375D02*
X540000Y217500D01*
X538750Y228250D02*
X539125Y227875D01*
Y218375D02*
Y227875D01*
X483250Y295750D02*
X492000D01*
X482750Y296250D02*
X483250Y295750D01*
X494250Y235000D02*
X495000Y234250D01*
X484500Y235000D02*
X494250D01*
X580750Y296000D02*
X590500D01*
X527500Y319250D02*
X532750Y314000D01*
X502500Y322500D02*
X524250D01*
X527500Y319250D01*
Y322500D01*
X556750Y313750D02*
Y318250D01*
X552500Y322500D02*
X556750Y318250D01*
X577000Y313500D02*
X577500Y314000D01*
Y322500D01*
X277750Y246250D02*
X348250D01*
X271750Y311000D02*
Y316250D01*
Y311000D02*
X279500Y303250D01*
X91750Y111062D02*
Y139000D01*
X105750Y153000D02*
X213000D01*
X91750Y139000D02*
X105750Y153000D01*
X213000D02*
X228500Y168500D01*
Y253250D01*
X186250Y116750D02*
X188250D01*
X200000Y105000D01*
Y97500D02*
Y105000D01*
X236750Y279750D02*
Y303750D01*
X224000Y242750D02*
Y251000D01*
X221091Y253909D02*
X224000Y251000D01*
X185409Y253909D02*
X221091D01*
X179500Y248000D02*
X185409Y253909D01*
X228500Y253250D02*
X234500D01*
X236750Y255500D01*
D110*
X544250Y441250D02*
X555000D01*
D112*
X130000Y350000D02*
D03*
D113*
Y400000D02*
D03*
D114*
X30000Y430000D02*
D03*
Y320000D02*
D03*
D115*
X72500Y89250D02*
D03*
X82000Y83500D02*
D03*
Y95000D02*
D03*
X91500Y89250D02*
D03*
X213750Y110500D02*
D03*
X219500Y120000D02*
D03*
X208000D02*
D03*
X213750Y129500D02*
D03*
X779250Y276000D02*
D03*
X753500Y271500D02*
D03*
X174250Y142250D02*
D03*
X708641Y353988D02*
D03*
X708250Y326750D02*
D03*
X448000Y350500D02*
D03*
X474500Y381750D02*
D03*
X447991Y381731D02*
D03*
X115250Y51750D02*
D03*
X210000Y172750D02*
D03*
X252500Y138750D02*
D03*
X559000Y259000D02*
D03*
X559250Y281000D02*
D03*
X644500Y160250D02*
D03*
X645250Y220250D02*
D03*
X644250Y281500D02*
D03*
X644750Y339500D02*
D03*
Y391750D02*
D03*
X651000Y400000D02*
D03*
X704500D02*
D03*
X764500D02*
D03*
X825750Y400250D02*
D03*
X885250Y400750D02*
D03*
X938500Y401000D02*
D03*
X946000Y393500D02*
D03*
X945000Y339500D02*
D03*
Y280000D02*
D03*
X945500Y219750D02*
D03*
Y159750D02*
D03*
Y107500D02*
D03*
X938000Y98750D02*
D03*
X884750D02*
D03*
X825250Y99750D02*
D03*
X705500Y99000D02*
D03*
X645000Y107500D02*
D03*
X651250Y100000D02*
D03*
X544250Y441250D02*
D03*
X555000D02*
D03*
X188250Y310750D02*
D03*
X271500Y258500D02*
D03*
X278250D02*
D03*
X285250Y258750D02*
D03*
X802750Y6500D02*
D03*
X770000Y61000D02*
D03*
X762500D02*
D03*
X795500Y95500D02*
D03*
X795250Y104750D02*
D03*
X390000Y337250D02*
D03*
X231500Y146000D02*
D03*
X348750Y273750D02*
D03*
X209750Y268500D02*
D03*
X343000Y342000D02*
D03*
X190000Y440000D02*
D03*
X280000Y330000D02*
D03*
X781750Y352500D02*
D03*
X683750Y236250D02*
D03*
X781000Y186500D02*
D03*
X826750Y222750D02*
D03*
X788112Y274809D02*
D03*
X781395Y268091D02*
D03*
X762000Y271250D02*
D03*
X734723Y271425D02*
D03*
X726038Y267576D02*
D03*
X705013Y264434D02*
D03*
Y254934D02*
D03*
X704525Y245446D02*
D03*
X704485Y227080D02*
D03*
X713953Y226306D02*
D03*
X722993Y229227D02*
D03*
X723427Y238717D02*
D03*
X722959Y248205D02*
D03*
X731515Y252332D02*
D03*
X740932Y251075D02*
D03*
X748143Y244890D02*
D03*
X747866Y235394D02*
D03*
Y225894D02*
D03*
X743424Y217497D02*
D03*
X742789Y208018D02*
D03*
X733388Y209384D02*
D03*
X723500Y208500D02*
D03*
X722116Y198909D02*
D03*
Y189409D02*
D03*
X723000Y179750D02*
D03*
X732574Y178116D02*
D03*
X741826Y180275D02*
D03*
X739861Y170980D02*
D03*
X739288Y161497D02*
D03*
X743424Y152944D02*
D03*
X740825Y143807D02*
D03*
X719616Y129830D02*
D03*
X722934Y120928D02*
D03*
X732429Y120616D02*
D03*
X741646Y122918D02*
D03*
X750852Y120575D02*
D03*
X759250Y119250D02*
D03*
X759366Y109661D02*
D03*
X765740Y102616D02*
D03*
X775174Y101498D02*
D03*
X782500Y84500D02*
D03*
X782924Y75229D02*
D03*
Y65729D02*
D03*
X781905Y56284D02*
D03*
X777000Y44750D02*
D03*
Y35250D02*
D03*
Y25750D02*
D03*
Y16250D02*
D03*
Y6750D02*
D03*
X802750Y16000D02*
D03*
Y25500D02*
D03*
Y35000D02*
D03*
Y44500D02*
D03*
X796500Y56500D02*
D03*
X795576Y67129D02*
D03*
Y76628D02*
D03*
X795501Y86128D02*
D03*
X790634Y112236D02*
D03*
X787854Y121320D02*
D03*
X789936Y130590D02*
D03*
X784948Y138675D02*
D03*
X775453Y138369D02*
D03*
X765958Y138675D02*
D03*
X759175Y145326D02*
D03*
X763459Y153806D02*
D03*
X772958Y153938D02*
D03*
X782429Y154679D02*
D03*
X791922Y154325D02*
D03*
X801422D02*
D03*
X809649Y159076D02*
D03*
X809519Y168575D02*
D03*
X807326Y177819D02*
D03*
X811352Y186424D02*
D03*
X820678Y184616D02*
D03*
X830000Y186500D02*
D03*
X829750Y198250D02*
D03*
X850801Y200501D02*
D03*
X850945Y210000D02*
D03*
X845373Y217694D02*
D03*
X835873Y217681D02*
D03*
X826750Y214750D02*
D03*
X214000Y78500D02*
D03*
X514000Y211250D02*
D03*
X528500Y202750D02*
D03*
X840750Y181500D02*
D03*
X817750Y62000D02*
D03*
X825250D02*
D03*
X810000D02*
D03*
X754250Y61000D02*
D03*
X728750Y151500D02*
D03*
X683250Y213000D02*
D03*
X686250Y259500D02*
D03*
X687500Y279000D02*
D03*
X717250Y278500D02*
D03*
X781250Y303250D02*
D03*
X743000Y271250D02*
D03*
X731500Y293250D02*
D03*
X740250Y326250D02*
D03*
X834250Y335000D02*
D03*
X814000D02*
D03*
X836250Y377750D02*
D03*
X849750Y298500D02*
D03*
X900500Y311250D02*
D03*
X900750Y286250D02*
D03*
X891500Y261500D02*
D03*
X849750Y283500D02*
D03*
X824000Y267250D02*
D03*
X906000Y377500D02*
D03*
Y389000D02*
D03*
X916500Y377000D02*
D03*
X875000Y332250D02*
D03*
X686500Y331500D02*
D03*
X698500Y335750D02*
D03*
X644500Y301000D02*
D03*
X609500Y310750D02*
D03*
X619500Y259750D02*
D03*
X662000Y285500D02*
D03*
X662454Y318750D02*
D03*
X580750Y260162D02*
D03*
X654750Y299250D02*
D03*
X555000Y227500D02*
D03*
X455000Y235000D02*
D03*
X546500Y350500D02*
D03*
X538750Y228250D02*
D03*
X534750Y245750D02*
D03*
X518500Y352250D02*
D03*
X507750Y352000D02*
D03*
X577000Y351500D02*
D03*
X492000Y295750D02*
D03*
X495000Y234250D02*
D03*
X539250Y296750D02*
D03*
X532750Y314000D02*
D03*
X510000Y260000D02*
D03*
X454500Y296000D02*
D03*
X556750Y313750D02*
D03*
X577000Y313500D02*
D03*
X580750Y296000D02*
D03*
X575000Y230000D02*
D03*
X348250Y246250D02*
D03*
X547000Y371250D02*
D03*
Y416750D02*
D03*
X474750Y350250D02*
D03*
X64750Y61250D02*
D03*
X439250Y125500D02*
D03*
X388250Y131750D02*
D03*
X399750Y468500D02*
D03*
X450000Y468750D02*
D03*
X579000Y419250D02*
D03*
X570750D02*
D03*
X523000D02*
D03*
X514750Y419500D02*
D03*
X577250Y375250D02*
D03*
X516250D02*
D03*
X419250Y417500D02*
D03*
X395500Y376750D02*
D03*
X419250Y376000D02*
D03*
X395500Y417250D02*
D03*
X442500Y418250D02*
D03*
X499750Y145000D02*
D03*
Y157750D02*
D03*
X485250Y157250D02*
D03*
X187500Y172500D02*
D03*
X104000Y52000D02*
D03*
X26500Y61750D02*
D03*
X74000Y63750D02*
D03*
X92000Y68000D02*
D03*
X91634Y111178D02*
D03*
X27000Y162000D02*
D03*
Y140000D02*
D03*
Y113000D02*
D03*
Y88000D02*
D03*
X276250Y139750D02*
D03*
X237500Y130000D02*
D03*
Y110000D02*
D03*
X185000Y87500D02*
D03*
X127500Y72500D02*
D03*
X142750Y123000D02*
D03*
X186500Y108750D02*
D03*
X186250Y116750D02*
D03*
X343000Y400000D02*
D03*
Y393000D02*
D03*
Y375000D02*
D03*
Y368000D02*
D03*
Y349000D02*
D03*
X274000Y459000D02*
D03*
X71500Y281250D02*
D03*
X211000Y310750D02*
D03*
X139000Y262000D02*
D03*
X224000Y242750D02*
D03*
X198250Y241750D02*
D03*
X206250D02*
D03*
Y249500D02*
D03*
X228500Y253250D02*
D03*
X179500Y238250D02*
D03*
X174250Y243250D02*
D03*
X179500Y248000D02*
D03*
X212250Y223500D02*
D03*
X198250Y249500D02*
D03*
X203000Y268250D02*
D03*
X320000Y187500D02*
D03*
X287500D02*
D03*
X262500D02*
D03*
X270000D02*
D03*
X295000D02*
D03*
X312500D02*
D03*
X271750Y316250D02*
D03*
X297530Y316640D02*
D03*
X291180D02*
D03*
X284830D02*
D03*
D116*
X960000Y25000D02*
D03*
Y475000D02*
D03*
X25000D02*
D03*
Y25000D02*
D03*
D117*
X503800Y435975D02*
D03*
X590200D02*
D03*
D118*
X575900Y440975D02*
D03*
X518100D02*
D03*
D119*
X590200Y477775D02*
D03*
X503800D02*
D03*
D120*
X110000Y212500D02*
D03*
X132500Y242500D02*
D03*
X153500Y243000D02*
D03*
D121*
X159000Y120000D02*
D03*
X170500D02*
D03*
X164750Y129500D02*
D03*
Y110500D02*
D03*
D122*
X524000Y281000D02*
D03*
X535000D02*
D03*
X546000D02*
D03*
X524000Y270000D02*
D03*
X535000D02*
D03*
X546000D02*
D03*
X524000Y259000D02*
D03*
X535000D02*
D03*
X546000D02*
D03*
D123*
X253250Y306250D02*
Y314571D01*
X250321Y317500D02*
X253250Y314571D01*
X152500Y317500D02*
X250321D01*
X253250Y306250D02*
X255750Y303750D01*
X110000Y212500D02*
Y275000D01*
X152500Y317500D01*
X255750Y279750D02*
Y303750D01*
Y255500D02*
X255750Y255500D01*
X255750Y255500D02*
Y279750D01*
M02*
