G04*
G04 #@! TF.GenerationSoftware,Altium Limited,Altium Designer,25.4.2 (15)*
G04*
G04 Layer_Physical_Order=2*
G04 Layer_Color=36540*
%FSLAX44Y44*%
%MOMM*%
G71*
G04*
G04 #@! TF.SameCoordinates,69983CE8-C732-48D4-ACAD-208037422C18*
G04*
G04*
G04 #@! TF.FilePolarity,Positive*
G04*
G01*
G75*
%ADD96C,1.5700*%
%ADD97R,1.5700X1.5700*%
%ADD102C,0.9000*%
%ADD113C,2.5500*%
%ADD114C,1.5080*%
%ADD115C,0.4500*%
%ADD116C,5.0000*%
%ADD117O,1.0000X2.1000*%
%ADD118C,0.6500*%
%ADD119O,1.0000X1.8000*%
%ADD120C,1.0000*%
%ADD121C,0.5000*%
%ADD122C,0.6000*%
G36*
X959600Y500000D02*
X962102Y500000D01*
X967009Y499024D01*
X971631Y497109D01*
X975791Y494329D01*
X979330Y490792D01*
X982109Y486631D01*
X984024Y482009D01*
X985000Y477102D01*
X985000Y474600D01*
X985000D01*
X985000Y474600D01*
X985000Y25400D01*
X985000Y22898D01*
X984024Y17991D01*
X982109Y13369D01*
X979330Y9208D01*
X975791Y5670D01*
X971631Y2891D01*
X967009Y976D01*
X962102Y-0D01*
X959600Y0D01*
X959600Y0D01*
X959600Y0D01*
X25400Y0D01*
X22898D01*
X17991Y976D01*
X13369Y2891D01*
X9208Y5671D01*
X5671Y9208D01*
X2891Y13369D01*
X976Y17991D01*
X0Y22898D01*
Y25400D01*
X0D01*
X0Y474600D01*
Y477102D01*
X976Y482009D01*
X2891Y486631D01*
X5671Y490792D01*
X9208Y494329D01*
X13369Y497109D01*
X17991Y499024D01*
X22898Y500000D01*
X25400D01*
Y500000D01*
X959600Y500000D01*
D02*
G37*
%LPC*%
G36*
X460072Y485389D02*
X457928D01*
X455947Y484569D01*
X454431Y483053D01*
X453611Y481072D01*
Y478928D01*
X454431Y476947D01*
X455947Y475431D01*
X457928Y474611D01*
X460072D01*
X462053Y475431D01*
X463569Y476947D01*
X464389Y478928D01*
Y481072D01*
X463569Y483053D01*
X462053Y484569D01*
X460072Y485389D01*
D02*
G37*
G36*
X392072D02*
X389928D01*
X387947Y484569D01*
X386431Y483053D01*
X385611Y481072D01*
Y478928D01*
X386431Y476947D01*
X387947Y475431D01*
X389928Y474611D01*
X392072D01*
X394053Y475431D01*
X395569Y476947D01*
X396389Y478928D01*
Y481072D01*
X395569Y483053D01*
X394053Y484569D01*
X392072Y485389D01*
D02*
G37*
G36*
X450624Y471889D02*
X449376D01*
X448222Y471411D01*
X447339Y470528D01*
X446861Y469374D01*
Y468126D01*
X447339Y466972D01*
X448222Y466089D01*
X449376Y465611D01*
X450624D01*
X451778Y466089D01*
X452661Y466972D01*
X453139Y468126D01*
Y469374D01*
X452661Y470528D01*
X451778Y471411D01*
X450624Y471889D01*
D02*
G37*
G36*
X555624Y444389D02*
X554376D01*
X553222Y443911D01*
X552339Y443028D01*
X551861Y441874D01*
Y440626D01*
X552339Y439472D01*
X553222Y438589D01*
X554376Y438111D01*
X555624D01*
X556778Y438589D01*
X557661Y439472D01*
X558139Y440626D01*
Y441874D01*
X557661Y443028D01*
X556778Y443911D01*
X555624Y444389D01*
D02*
G37*
G36*
X544874D02*
X543626D01*
X542472Y443911D01*
X541589Y443028D01*
X541111Y441874D01*
Y440626D01*
X541589Y439472D01*
X542472Y438589D01*
X543626Y438111D01*
X544874D01*
X546028Y438589D01*
X546911Y439472D01*
X547389Y440626D01*
Y441874D01*
X546911Y443028D01*
X546028Y443911D01*
X544874Y444389D01*
D02*
G37*
G36*
X190624Y443139D02*
X189376D01*
X188222Y442661D01*
X187339Y441778D01*
X186861Y440624D01*
Y439376D01*
X187339Y438222D01*
X188222Y437339D01*
X189376Y436861D01*
X190624D01*
X191778Y437339D01*
X192661Y438222D01*
X193139Y439376D01*
Y440624D01*
X192661Y441778D01*
X191778Y442661D01*
X190624Y443139D01*
D02*
G37*
G36*
X576723Y445114D02*
X575077D01*
X573555Y444484D01*
X572391Y443320D01*
X571761Y441798D01*
Y440152D01*
X572391Y438630D01*
X573555Y437466D01*
X575077Y436836D01*
X576723D01*
X578245Y437466D01*
X579409Y438630D01*
X580039Y440152D01*
Y441798D01*
X579409Y443320D01*
X578245Y444484D01*
X576723Y445114D01*
D02*
G37*
G36*
X518923D02*
X517277D01*
X515755Y444484D01*
X514591Y443320D01*
X513961Y441798D01*
Y440152D01*
X514591Y438630D01*
X515755Y437466D01*
X517277Y436836D01*
X518923D01*
X520444Y437466D01*
X521609Y438630D01*
X522239Y440152D01*
Y441798D01*
X521609Y443320D01*
X520444Y444484D01*
X518923Y445114D01*
D02*
G37*
G36*
X31110Y438429D02*
X28890D01*
X26746Y437855D01*
X24825Y436745D01*
X23255Y435176D01*
X22145Y433254D01*
X21571Y431110D01*
Y428890D01*
X22145Y426746D01*
X23255Y424824D01*
X24825Y423255D01*
X26746Y422145D01*
X28890Y421571D01*
X31110D01*
X33254Y422145D01*
X35175Y423255D01*
X36745Y424824D01*
X37855Y426746D01*
X38429Y428890D01*
Y431110D01*
X37855Y433254D01*
X36745Y435176D01*
X35175Y436745D01*
X33254Y437855D01*
X31110Y438429D01*
D02*
G37*
G36*
X571374Y422389D02*
X570126D01*
X568972Y421911D01*
X568089Y421028D01*
X567611Y419874D01*
Y418626D01*
X568089Y417472D01*
X568972Y416589D01*
X570126Y416111D01*
X571374D01*
X572528Y416589D01*
X573411Y417472D01*
X573889Y418626D01*
Y419874D01*
X573411Y421028D01*
X572528Y421911D01*
X571374Y422389D01*
D02*
G37*
G36*
X523624D02*
X522376D01*
X521222Y421911D01*
X520339Y421028D01*
X519861Y419874D01*
Y418626D01*
X520339Y417472D01*
X521222Y416589D01*
X522376Y416111D01*
X523624D01*
X524778Y416589D01*
X525661Y417472D01*
X526139Y418626D01*
Y419874D01*
X525661Y421028D01*
X524778Y421911D01*
X523624Y422389D01*
D02*
G37*
G36*
X443124Y421389D02*
X441876D01*
X440722Y420911D01*
X439839Y420028D01*
X439361Y418874D01*
Y417626D01*
X439839Y416472D01*
X440722Y415589D01*
X441876Y415111D01*
X443124D01*
X444278Y415589D01*
X445161Y416472D01*
X445639Y417626D01*
Y418874D01*
X445161Y420028D01*
X444278Y420911D01*
X443124Y421389D01*
D02*
G37*
G36*
X419874Y420639D02*
X418626D01*
X417472Y420161D01*
X416589Y419278D01*
X416111Y418124D01*
Y416876D01*
X416589Y415722D01*
X417472Y414839D01*
X418626Y414361D01*
X419874D01*
X421028Y414839D01*
X421911Y415722D01*
X422389Y416876D01*
Y418124D01*
X421911Y419278D01*
X421028Y420161D01*
X419874Y420639D01*
D02*
G37*
G36*
X396124Y420389D02*
X394876D01*
X393722Y419911D01*
X392839Y419028D01*
X392361Y417874D01*
Y416626D01*
X392839Y415472D01*
X393722Y414589D01*
X394876Y414111D01*
X396124D01*
X397278Y414589D01*
X398161Y415472D01*
X398639Y416626D01*
Y417874D01*
X398161Y419028D01*
X397278Y419911D01*
X396124Y420389D01*
D02*
G37*
G36*
X547624Y374389D02*
X546376D01*
X545222Y373911D01*
X544339Y373028D01*
X543861Y371874D01*
Y370626D01*
X544339Y369472D01*
X545222Y368589D01*
X546376Y368111D01*
X547624D01*
X548778Y368589D01*
X549661Y369472D01*
X550139Y370626D01*
Y371874D01*
X549661Y373028D01*
X548778Y373911D01*
X547624Y374389D01*
D02*
G37*
G36*
X131796Y363639D02*
X128204D01*
X124736Y362710D01*
X121625Y360914D01*
X119086Y358374D01*
X117290Y355265D01*
X116361Y351796D01*
Y348204D01*
X117290Y344736D01*
X119086Y341626D01*
X121625Y339086D01*
X124736Y337290D01*
X128204Y336361D01*
X131796D01*
X135265Y337290D01*
X138375Y339086D01*
X140914Y341626D01*
X142710Y344736D01*
X143639Y348204D01*
Y351796D01*
X142710Y355265D01*
X140914Y358374D01*
X138375Y360914D01*
X135265Y362710D01*
X131796Y363639D01*
D02*
G37*
G36*
X390624Y340389D02*
X389376D01*
X388222Y339911D01*
X387339Y339028D01*
X386861Y337874D01*
Y336626D01*
X387339Y335472D01*
X388222Y334589D01*
X389376Y334111D01*
X390624D01*
X391778Y334589D01*
X392661Y335472D01*
X393139Y336626D01*
Y337874D01*
X392661Y339028D01*
X391778Y339911D01*
X390624Y340389D01*
D02*
G37*
G36*
X699124Y338889D02*
X697876D01*
X696722Y338411D01*
X695839Y337528D01*
X695361Y336374D01*
Y335126D01*
X695839Y333972D01*
X696722Y333089D01*
X697876Y332611D01*
X699124D01*
X700278Y333089D01*
X701161Y333972D01*
X701639Y335126D01*
Y336374D01*
X701161Y337528D01*
X700278Y338411D01*
X699124Y338889D01*
D02*
G37*
G36*
X834874Y338139D02*
X833626D01*
X832472Y337661D01*
X831589Y336778D01*
X831111Y335624D01*
Y334376D01*
X831589Y333222D01*
X832472Y332339D01*
X833626Y331861D01*
X834874D01*
X836028Y332339D01*
X836911Y333222D01*
X837389Y334376D01*
Y335624D01*
X836911Y336778D01*
X836028Y337661D01*
X834874Y338139D01*
D02*
G37*
G36*
X814624D02*
X813376D01*
X812222Y337661D01*
X811339Y336778D01*
X810861Y335624D01*
Y334376D01*
X811339Y333222D01*
X812222Y332339D01*
X813376Y331861D01*
X814624D01*
X815778Y332339D01*
X816661Y333222D01*
X817139Y334376D01*
Y335624D01*
X816661Y336778D01*
X815778Y337661D01*
X814624Y338139D01*
D02*
G37*
G36*
X687124Y334639D02*
X685876D01*
X684722Y334161D01*
X683839Y333278D01*
X683361Y332124D01*
Y330876D01*
X683839Y329722D01*
X684722Y328839D01*
X685876Y328361D01*
X687124D01*
X688278Y328839D01*
X689161Y329722D01*
X689639Y330876D01*
Y332124D01*
X689161Y333278D01*
X688278Y334161D01*
X687124Y334639D01*
D02*
G37*
G36*
X663078Y321889D02*
X661829D01*
X660676Y321411D01*
X659793Y320528D01*
X659315Y319374D01*
Y318126D01*
X659793Y316972D01*
X660676Y316089D01*
X661829Y315611D01*
X663078D01*
X664232Y316089D01*
X665115Y316972D01*
X665593Y318126D01*
Y319374D01*
X665115Y320528D01*
X664232Y321411D01*
X663078Y321889D01*
D02*
G37*
G36*
X272374Y319389D02*
X271126D01*
X269972Y318911D01*
X269089Y318028D01*
X268611Y316874D01*
Y315626D01*
X269089Y314472D01*
X269972Y313589D01*
X271126Y313111D01*
X272374D01*
X273528Y313589D01*
X274411Y314472D01*
X274889Y315626D01*
Y316874D01*
X274411Y318028D01*
X273528Y318911D01*
X272374Y319389D01*
D02*
G37*
G36*
X31110Y328429D02*
X28890D01*
X26746Y327855D01*
X24825Y326745D01*
X23255Y325176D01*
X22145Y323254D01*
X21571Y321110D01*
Y318890D01*
X22145Y316747D01*
X23255Y314825D01*
X24825Y313255D01*
X26746Y312146D01*
X28890Y311571D01*
X31110D01*
X33254Y312146D01*
X35175Y313255D01*
X36745Y314825D01*
X37855Y316747D01*
X38429Y318890D01*
Y321110D01*
X37855Y323254D01*
X36745Y325176D01*
X35175Y326745D01*
X33254Y327855D01*
X31110Y328429D01*
D02*
G37*
G36*
X533374Y317139D02*
X532126D01*
X530972Y316661D01*
X530089Y315778D01*
X529611Y314624D01*
Y313376D01*
X530089Y312222D01*
X530972Y311339D01*
X532126Y310861D01*
X533374D01*
X534528Y311339D01*
X535411Y312222D01*
X535889Y313376D01*
Y314624D01*
X535411Y315778D01*
X534528Y316661D01*
X533374Y317139D01*
D02*
G37*
G36*
X557374Y316889D02*
X556126D01*
X554972Y316411D01*
X554089Y315528D01*
X553611Y314374D01*
Y313126D01*
X554089Y311972D01*
X554972Y311089D01*
X556126Y310611D01*
X557374D01*
X558528Y311089D01*
X559411Y311972D01*
X559889Y313126D01*
Y314374D01*
X559411Y315528D01*
X558528Y316411D01*
X557374Y316889D01*
D02*
G37*
G36*
X577624Y316639D02*
X576376D01*
X575222Y316161D01*
X574339Y315278D01*
X573861Y314124D01*
Y312876D01*
X574339Y311722D01*
X575222Y310839D01*
X576376Y310361D01*
X577624D01*
X578778Y310839D01*
X579661Y311722D01*
X580139Y312876D01*
Y314124D01*
X579661Y315278D01*
X578778Y316161D01*
X577624Y316639D01*
D02*
G37*
G36*
X781874Y306389D02*
X780626D01*
X779472Y305911D01*
X778589Y305028D01*
X778111Y303874D01*
Y302626D01*
X778589Y301472D01*
X779472Y300589D01*
X780626Y300111D01*
X781874D01*
X783028Y300589D01*
X783911Y301472D01*
X784389Y302626D01*
Y303874D01*
X783911Y305028D01*
X783028Y305911D01*
X781874Y306389D01*
D02*
G37*
G36*
X645124Y304139D02*
X643876D01*
X642722Y303661D01*
X641839Y302778D01*
X641361Y301624D01*
Y300376D01*
X641839Y299222D01*
X642722Y298339D01*
X643876Y297861D01*
X645124D01*
X646278Y298339D01*
X647161Y299222D01*
X647639Y300376D01*
Y301624D01*
X647161Y302778D01*
X646278Y303661D01*
X645124Y304139D01*
D02*
G37*
G36*
X655374Y302389D02*
X654126D01*
X652972Y301911D01*
X652089Y301028D01*
X651611Y299874D01*
Y298626D01*
X652089Y297472D01*
X652972Y296589D01*
X654126Y296111D01*
X655374D01*
X656528Y296589D01*
X657411Y297472D01*
X657889Y298626D01*
Y299874D01*
X657411Y301028D01*
X656528Y301911D01*
X655374Y302389D01*
D02*
G37*
G36*
X850374Y301639D02*
X849126D01*
X847972Y301161D01*
X847089Y300278D01*
X846611Y299124D01*
Y297876D01*
X847089Y296722D01*
X847972Y295839D01*
X849126Y295361D01*
X850374D01*
X851528Y295839D01*
X852411Y296722D01*
X852889Y297876D01*
Y299124D01*
X852411Y300278D01*
X851528Y301161D01*
X850374Y301639D01*
D02*
G37*
G36*
X539874Y299889D02*
X538626D01*
X537472Y299411D01*
X536589Y298528D01*
X536111Y297374D01*
Y296126D01*
X536589Y294972D01*
X537472Y294089D01*
X538626Y293611D01*
X539874D01*
X541028Y294089D01*
X541911Y294972D01*
X542389Y296126D01*
Y297374D01*
X541911Y298528D01*
X541028Y299411D01*
X539874Y299889D01*
D02*
G37*
G36*
X581374Y299139D02*
X580126D01*
X578972Y298661D01*
X578089Y297778D01*
X577611Y296624D01*
Y295376D01*
X578089Y294222D01*
X578972Y293339D01*
X580126Y292861D01*
X581374D01*
X582528Y293339D01*
X583411Y294222D01*
X583889Y295376D01*
Y296624D01*
X583411Y297778D01*
X582528Y298661D01*
X581374Y299139D01*
D02*
G37*
G36*
X492624Y298889D02*
X491376D01*
X490222Y298411D01*
X489339Y297528D01*
X488861Y296374D01*
Y295126D01*
X489339Y293972D01*
X490222Y293089D01*
X491376Y292611D01*
X492624D01*
X493778Y293089D01*
X494661Y293972D01*
X495139Y295126D01*
Y296374D01*
X494661Y297528D01*
X493778Y298411D01*
X492624Y298889D01*
D02*
G37*
G36*
X662624Y288639D02*
X661376D01*
X660222Y288161D01*
X659339Y287278D01*
X658861Y286124D01*
Y284876D01*
X659339Y283722D01*
X660222Y282839D01*
X661376Y282361D01*
X662624D01*
X663778Y282839D01*
X664661Y283722D01*
X665139Y284876D01*
Y286124D01*
X664661Y287278D01*
X663778Y288161D01*
X662624Y288639D01*
D02*
G37*
G36*
X850374Y286639D02*
X849126D01*
X847972Y286161D01*
X847089Y285278D01*
X846611Y284124D01*
Y282876D01*
X847089Y281722D01*
X847972Y280839D01*
X849126Y280361D01*
X850374D01*
X851528Y280839D01*
X852411Y281722D01*
X852889Y282876D01*
Y284124D01*
X852411Y285278D01*
X851528Y286161D01*
X850374Y286639D01*
D02*
G37*
G36*
X688124Y282139D02*
X686876D01*
X685722Y281661D01*
X684839Y280778D01*
X684361Y279624D01*
Y278376D01*
X684839Y277222D01*
X685722Y276339D01*
X686876Y275861D01*
X688124D01*
X689278Y276339D01*
X690161Y277222D01*
X690639Y278376D01*
Y279624D01*
X690161Y280778D01*
X689278Y281661D01*
X688124Y282139D01*
D02*
G37*
G36*
X779874Y279139D02*
X778626D01*
X777472Y278661D01*
X776589Y277778D01*
X776111Y276624D01*
Y275376D01*
X776589Y274222D01*
X777472Y273339D01*
X778626Y272861D01*
X779874D01*
X781028Y273339D01*
X781911Y274222D01*
X782389Y275376D01*
Y276624D01*
X781911Y277778D01*
X781028Y278661D01*
X779874Y279139D01*
D02*
G37*
G36*
X349374Y276889D02*
X348126D01*
X346972Y276411D01*
X346089Y275528D01*
X345611Y274374D01*
Y273126D01*
X346089Y271972D01*
X346972Y271089D01*
X348126Y270611D01*
X349374D01*
X350528Y271089D01*
X351411Y271972D01*
X351889Y273126D01*
Y274374D01*
X351411Y275528D01*
X350528Y276411D01*
X349374Y276889D01*
D02*
G37*
G36*
X210374Y271639D02*
X209126D01*
X207972Y271161D01*
X207089Y270278D01*
X206611Y269124D01*
Y267876D01*
X207089Y266722D01*
X207972Y265839D01*
X209126Y265361D01*
X210374D01*
X211528Y265839D01*
X212411Y266722D01*
X212889Y267876D01*
Y269124D01*
X212411Y270278D01*
X211528Y271161D01*
X210374Y271639D01*
D02*
G37*
G36*
X824624Y270389D02*
X823376D01*
X822222Y269911D01*
X821339Y269028D01*
X820861Y267874D01*
Y266626D01*
X821339Y265472D01*
X822222Y264589D01*
X823376Y264111D01*
X824624D01*
X825778Y264589D01*
X826661Y265472D01*
X827139Y266626D01*
Y267874D01*
X826661Y269028D01*
X825778Y269911D01*
X824624Y270389D01*
D02*
G37*
G36*
X278874Y261639D02*
X277626D01*
X276534Y261187D01*
X276472Y261161D01*
X274875Y260551D01*
X273278Y261161D01*
X273216Y261187D01*
X272124Y261639D01*
X270876D01*
X269722Y261161D01*
X268839Y260278D01*
X268361Y259124D01*
Y257876D01*
X268839Y256722D01*
X269722Y255839D01*
X270876Y255361D01*
X272124D01*
X273216Y255813D01*
X273278Y255839D01*
X274875Y256449D01*
X276472Y255839D01*
X276534Y255813D01*
X277626Y255361D01*
X278874D01*
X280028Y255839D01*
X280911Y256722D01*
X281389Y257876D01*
Y259124D01*
X280911Y260278D01*
X280028Y261161D01*
X278874Y261639D01*
D02*
G37*
G36*
X581374Y263301D02*
X580126D01*
X578972Y262823D01*
X578089Y261940D01*
X577611Y260786D01*
Y259538D01*
X578089Y258384D01*
X578972Y257501D01*
X580126Y257023D01*
X581374D01*
X582528Y257501D01*
X583411Y258384D01*
X583889Y259538D01*
Y260786D01*
X583411Y261940D01*
X582528Y262823D01*
X581374Y263301D01*
D02*
G37*
G36*
X510624Y263139D02*
X509376D01*
X508222Y262661D01*
X507339Y261778D01*
X506861Y260624D01*
Y259376D01*
X507339Y258222D01*
X508222Y257339D01*
X509376Y256861D01*
X510624D01*
X511778Y257339D01*
X512661Y258222D01*
X513139Y259376D01*
Y260624D01*
X512661Y261778D01*
X511778Y262661D01*
X510624Y263139D01*
D02*
G37*
G36*
X686874Y262639D02*
X685626D01*
X684472Y262161D01*
X683589Y261278D01*
X683111Y260124D01*
Y258876D01*
X683589Y257722D01*
X684472Y256839D01*
X685626Y256361D01*
X686874D01*
X688028Y256839D01*
X688911Y257722D01*
X689389Y258876D01*
Y260124D01*
X688911Y261278D01*
X688028Y262161D01*
X686874Y262639D01*
D02*
G37*
G36*
X229124Y256389D02*
X227876D01*
X226722Y255911D01*
X225839Y255028D01*
X225361Y253874D01*
Y252626D01*
X225839Y251472D01*
X226722Y250589D01*
X227876Y250111D01*
X229124D01*
X230278Y250589D01*
X231161Y251472D01*
X231639Y252626D01*
Y253874D01*
X231161Y255028D01*
X230278Y255911D01*
X229124Y256389D01*
D02*
G37*
G36*
X180124Y251139D02*
X178876D01*
X177722Y250661D01*
X176839Y249778D01*
X176361Y248624D01*
Y247376D01*
X176839Y246222D01*
X177722Y245339D01*
X178876Y244861D01*
X180124D01*
X181278Y245339D01*
X182161Y246222D01*
X182639Y247376D01*
Y248624D01*
X182161Y249778D01*
X181278Y250661D01*
X180124Y251139D01*
D02*
G37*
G36*
X348874Y249389D02*
X347626D01*
X346472Y248911D01*
X345589Y248028D01*
X345111Y246874D01*
Y245626D01*
X345589Y244472D01*
X346472Y243589D01*
X347626Y243111D01*
X348874D01*
X350028Y243589D01*
X350911Y244472D01*
X351389Y245626D01*
Y246874D01*
X350911Y248028D01*
X350028Y248911D01*
X348874Y249389D01*
D02*
G37*
G36*
X535374Y248889D02*
X534126D01*
X532972Y248411D01*
X532089Y247528D01*
X531611Y246374D01*
Y245126D01*
X532089Y243972D01*
X532972Y243089D01*
X534126Y242611D01*
X535374D01*
X536528Y243089D01*
X537411Y243972D01*
X537889Y245126D01*
Y246374D01*
X537411Y247528D01*
X536528Y248411D01*
X535374Y248889D01*
D02*
G37*
G36*
X224624Y245889D02*
X223376D01*
X222222Y245411D01*
X221339Y244528D01*
X220861Y243374D01*
Y242126D01*
X221339Y240972D01*
X222222Y240089D01*
X223376Y239611D01*
X224624D01*
X225778Y240089D01*
X226661Y240972D01*
X227139Y242126D01*
Y243374D01*
X226661Y244528D01*
X225778Y245411D01*
X224624Y245889D01*
D02*
G37*
G36*
X684374Y239389D02*
X683126D01*
X681972Y238911D01*
X681089Y238028D01*
X680611Y236874D01*
Y235626D01*
X681089Y234472D01*
X681972Y233589D01*
X683126Y233111D01*
X684374D01*
X685528Y233589D01*
X686411Y234472D01*
X686889Y235626D01*
Y236874D01*
X686411Y238028D01*
X685528Y238911D01*
X684374Y239389D01*
D02*
G37*
G36*
X495624Y237389D02*
X494376D01*
X493222Y236911D01*
X492339Y236028D01*
X491861Y234874D01*
Y233626D01*
X492339Y232472D01*
X493222Y231589D01*
X494376Y231111D01*
X495624D01*
X496778Y231589D01*
X497661Y232472D01*
X498139Y233626D01*
Y234874D01*
X497661Y236028D01*
X496778Y236911D01*
X495624Y237389D01*
D02*
G37*
G36*
X539374Y231389D02*
X538126D01*
X536972Y230911D01*
X536089Y230028D01*
X535611Y228874D01*
Y227626D01*
X536089Y226472D01*
X536972Y225589D01*
X538126Y225111D01*
X539374D01*
X540528Y225589D01*
X541411Y226472D01*
X541889Y227626D01*
Y228874D01*
X541411Y230028D01*
X540528Y230911D01*
X539374Y231389D01*
D02*
G37*
G36*
X555624Y230639D02*
X554376D01*
X553222Y230161D01*
X552339Y229278D01*
X551861Y228124D01*
Y226876D01*
X552339Y225722D01*
X553222Y224839D01*
X554376Y224361D01*
X555624D01*
X556778Y224839D01*
X557661Y225722D01*
X558139Y226876D01*
Y228124D01*
X557661Y229278D01*
X556778Y230161D01*
X555624Y230639D01*
D02*
G37*
G36*
X683874Y216139D02*
X682626D01*
X681472Y215661D01*
X680589Y214778D01*
X680111Y213624D01*
Y212376D01*
X680589Y211222D01*
X681472Y210339D01*
X682626Y209861D01*
X683874D01*
X685028Y210339D01*
X685911Y211222D01*
X686389Y212376D01*
Y213624D01*
X685911Y214778D01*
X685028Y215661D01*
X683874Y216139D01*
D02*
G37*
G36*
X111171Y218389D02*
X108829D01*
X106664Y217493D01*
X105008Y215836D01*
X104111Y213671D01*
Y211329D01*
X105008Y209164D01*
X106664Y207508D01*
X108829Y206611D01*
X111171D01*
X113336Y207508D01*
X114993Y209164D01*
X115889Y211329D01*
Y213671D01*
X114993Y215836D01*
X113336Y217493D01*
X111171Y218389D01*
D02*
G37*
G36*
X232124Y149139D02*
X230876D01*
X229722Y148661D01*
X228839Y147778D01*
X228361Y146624D01*
Y145376D01*
X228839Y144222D01*
X229722Y143339D01*
X230876Y142861D01*
X232124D01*
X233278Y143339D01*
X234161Y144222D01*
X234639Y145376D01*
Y146624D01*
X234161Y147778D01*
X233278Y148661D01*
X232124Y149139D01*
D02*
G37*
G36*
X174874Y145389D02*
X173626D01*
X172472Y144911D01*
X171589Y144028D01*
X171111Y142874D01*
Y141626D01*
X171589Y140472D01*
X172472Y139589D01*
X173626Y139111D01*
X174874D01*
X176028Y139589D01*
X176911Y140472D01*
X177389Y141626D01*
Y142874D01*
X176911Y144028D01*
X176028Y144911D01*
X174874Y145389D01*
D02*
G37*
G36*
X388874Y134889D02*
X387626D01*
X386472Y134411D01*
X385589Y133528D01*
X385111Y132374D01*
Y131126D01*
X385589Y129972D01*
X386472Y129089D01*
X387626Y128611D01*
X388874D01*
X390028Y129089D01*
X390911Y129972D01*
X391389Y131126D01*
Y132374D01*
X390911Y133528D01*
X390028Y134411D01*
X388874Y134889D01*
D02*
G37*
G36*
X439874Y128639D02*
X438626D01*
X437472Y128161D01*
X436589Y127278D01*
X436111Y126124D01*
Y124876D01*
X436589Y123722D01*
X437472Y122839D01*
X438626Y122361D01*
X439874D01*
X441028Y122839D01*
X441911Y123722D01*
X442389Y124876D01*
Y126124D01*
X441911Y127278D01*
X441028Y128161D01*
X439874Y128639D01*
D02*
G37*
G36*
X186874Y119889D02*
X185626D01*
X184472Y119411D01*
X183589Y118528D01*
X183111Y117374D01*
Y116126D01*
X183589Y114972D01*
X184472Y114089D01*
X185626Y113611D01*
X186874D01*
X188028Y114089D01*
X188911Y114972D01*
X189389Y116126D01*
Y117374D01*
X188911Y118528D01*
X188028Y119411D01*
X186874Y119889D01*
D02*
G37*
G36*
X92259Y114317D02*
X91010D01*
X89856Y113839D01*
X88973Y112956D01*
X88495Y111802D01*
Y110553D01*
X88973Y109400D01*
X89856Y108517D01*
X91010Y108039D01*
X92259D01*
X93413Y108517D01*
X94296Y109400D01*
X94773Y110553D01*
Y111802D01*
X94296Y112956D01*
X93413Y113839D01*
X92259Y114317D01*
D02*
G37*
G36*
X238124Y113139D02*
X236876D01*
X235722Y112661D01*
X234839Y111778D01*
X234361Y110624D01*
Y109376D01*
X234839Y108222D01*
X235722Y107339D01*
X236876Y106861D01*
X238124D01*
X239278Y107339D01*
X240161Y108222D01*
X240639Y109376D01*
Y110624D01*
X240161Y111778D01*
X239278Y112661D01*
X238124Y113139D01*
D02*
G37*
G36*
X552989Y98389D02*
X535511D01*
Y80911D01*
X552989D01*
Y98389D01*
D02*
G37*
G36*
X74624Y66889D02*
X73376D01*
X72222Y66411D01*
X71339Y65528D01*
X70861Y64374D01*
Y63126D01*
X71339Y61972D01*
X72222Y61089D01*
X73376Y60611D01*
X74624D01*
X75778Y61089D01*
X76661Y61972D01*
X77139Y63126D01*
Y64374D01*
X76661Y65528D01*
X75778Y66411D01*
X74624Y66889D01*
D02*
G37*
G36*
X65374Y64389D02*
X64126D01*
X62972Y63911D01*
X62089Y63028D01*
X61611Y61874D01*
Y60626D01*
X62089Y59472D01*
X62972Y58589D01*
X64126Y58111D01*
X65374D01*
X66528Y58589D01*
X67411Y59472D01*
X67889Y60626D01*
Y61874D01*
X67411Y63028D01*
X66528Y63911D01*
X65374Y64389D01*
D02*
G37*
G36*
X545401Y72989D02*
X543100D01*
X540877Y72393D01*
X538884Y71243D01*
X537257Y69616D01*
X536107Y67623D01*
X535511Y65401D01*
Y63099D01*
X536107Y60877D01*
X537257Y58884D01*
X538884Y57257D01*
X540877Y56107D01*
X543100Y55511D01*
X545401D01*
X547623Y56107D01*
X549616Y57257D01*
X551243Y58884D01*
X552393Y60877D01*
X552989Y63099D01*
Y65401D01*
X552393Y67623D01*
X551243Y69616D01*
X549616Y71243D01*
X547623Y72393D01*
X545401Y72989D01*
D02*
G37*
%LPD*%
D96*
X544250Y38850D02*
D03*
Y64250D02*
D03*
D97*
Y89650D02*
D03*
D102*
X391000Y480000D02*
D03*
X459000D02*
D03*
D113*
X130000Y350000D02*
D03*
Y400000D02*
D03*
D114*
X30000Y430000D02*
D03*
Y320000D02*
D03*
D115*
X72500Y89250D02*
D03*
X82000Y83500D02*
D03*
Y95000D02*
D03*
X91500Y89250D02*
D03*
X213750Y110500D02*
D03*
X219500Y120000D02*
D03*
X208000D02*
D03*
X213750Y129500D02*
D03*
X779250Y276000D02*
D03*
X753500Y271500D02*
D03*
X174250Y142250D02*
D03*
X708641Y353988D02*
D03*
X708250Y326750D02*
D03*
X448000Y350500D02*
D03*
X474500Y381750D02*
D03*
X447991Y381731D02*
D03*
X115250Y51750D02*
D03*
X210000Y172750D02*
D03*
X252500Y138750D02*
D03*
X559000Y259000D02*
D03*
X559250Y281000D02*
D03*
X644500Y160250D02*
D03*
X645250Y220250D02*
D03*
X644250Y281500D02*
D03*
X644750Y339500D02*
D03*
Y391750D02*
D03*
X651000Y400000D02*
D03*
X704500D02*
D03*
X764500D02*
D03*
X825750Y400250D02*
D03*
X885250Y400750D02*
D03*
X938500Y401000D02*
D03*
X946000Y393500D02*
D03*
X945000Y339500D02*
D03*
Y280000D02*
D03*
X945500Y219750D02*
D03*
Y159750D02*
D03*
Y107500D02*
D03*
X938000Y98750D02*
D03*
X884750D02*
D03*
X825250Y99750D02*
D03*
X705500Y99000D02*
D03*
X645000Y107500D02*
D03*
X651250Y100000D02*
D03*
X544250Y441250D02*
D03*
X555000D02*
D03*
X188250Y310750D02*
D03*
X271500Y258500D02*
D03*
X278250D02*
D03*
X285250Y258750D02*
D03*
X802750Y6500D02*
D03*
X770000Y61000D02*
D03*
X762500D02*
D03*
X795500Y95500D02*
D03*
X795250Y104750D02*
D03*
X390000Y337250D02*
D03*
X231500Y146000D02*
D03*
X348750Y273750D02*
D03*
X209750Y268500D02*
D03*
X343000Y342000D02*
D03*
X190000Y440000D02*
D03*
X280000Y330000D02*
D03*
X781750Y352500D02*
D03*
X683750Y236250D02*
D03*
X781000Y186500D02*
D03*
X826750Y222750D02*
D03*
X788112Y274809D02*
D03*
X781395Y268091D02*
D03*
X762000Y271250D02*
D03*
X734723Y271425D02*
D03*
X726038Y267576D02*
D03*
X705013Y264434D02*
D03*
Y254934D02*
D03*
X704525Y245446D02*
D03*
X704485Y227080D02*
D03*
X713953Y226306D02*
D03*
X722993Y229227D02*
D03*
X723427Y238717D02*
D03*
X722959Y248205D02*
D03*
X731515Y252332D02*
D03*
X740932Y251075D02*
D03*
X748143Y244890D02*
D03*
X747866Y235394D02*
D03*
Y225894D02*
D03*
X743424Y217497D02*
D03*
X742789Y208018D02*
D03*
X733388Y209384D02*
D03*
X723500Y208500D02*
D03*
X722116Y198909D02*
D03*
Y189409D02*
D03*
X723000Y179750D02*
D03*
X732574Y178116D02*
D03*
X741826Y180275D02*
D03*
X739861Y170980D02*
D03*
X739288Y161497D02*
D03*
X743424Y152944D02*
D03*
X740825Y143807D02*
D03*
X719616Y129830D02*
D03*
X722934Y120928D02*
D03*
X732429Y120616D02*
D03*
X741646Y122918D02*
D03*
X750852Y120575D02*
D03*
X759250Y119250D02*
D03*
X759366Y109661D02*
D03*
X765740Y102616D02*
D03*
X775174Y101498D02*
D03*
X782500Y84500D02*
D03*
X782924Y75229D02*
D03*
Y65729D02*
D03*
X781905Y56284D02*
D03*
X777000Y44750D02*
D03*
Y35250D02*
D03*
Y25750D02*
D03*
Y16250D02*
D03*
Y6750D02*
D03*
X802750Y16000D02*
D03*
Y25500D02*
D03*
Y35000D02*
D03*
Y44500D02*
D03*
X796500Y56500D02*
D03*
X795576Y67129D02*
D03*
Y76628D02*
D03*
X795501Y86128D02*
D03*
X790634Y112236D02*
D03*
X787854Y121320D02*
D03*
X789936Y130590D02*
D03*
X784948Y138675D02*
D03*
X775453Y138369D02*
D03*
X765958Y138675D02*
D03*
X759175Y145326D02*
D03*
X763459Y153806D02*
D03*
X772958Y153938D02*
D03*
X782429Y154679D02*
D03*
X791922Y154325D02*
D03*
X801422D02*
D03*
X809649Y159076D02*
D03*
X809519Y168575D02*
D03*
X807326Y177819D02*
D03*
X811352Y186424D02*
D03*
X820678Y184616D02*
D03*
X830000Y186500D02*
D03*
X829750Y198250D02*
D03*
X850801Y200501D02*
D03*
X850945Y210000D02*
D03*
X845373Y217694D02*
D03*
X835873Y217681D02*
D03*
X826750Y214750D02*
D03*
X214000Y78500D02*
D03*
X514000Y211250D02*
D03*
X528500Y202750D02*
D03*
X840750Y181500D02*
D03*
X817750Y62000D02*
D03*
X825250D02*
D03*
X810000D02*
D03*
X754250Y61000D02*
D03*
X728750Y151500D02*
D03*
X683250Y213000D02*
D03*
X686250Y259500D02*
D03*
X687500Y279000D02*
D03*
X717250Y278500D02*
D03*
X781250Y303250D02*
D03*
X743000Y271250D02*
D03*
X731500Y293250D02*
D03*
X740250Y326250D02*
D03*
X834250Y335000D02*
D03*
X814000D02*
D03*
X836250Y377750D02*
D03*
X849750Y298500D02*
D03*
X900500Y311250D02*
D03*
X900750Y286250D02*
D03*
X891500Y261500D02*
D03*
X849750Y283500D02*
D03*
X824000Y267250D02*
D03*
X906000Y377500D02*
D03*
Y389000D02*
D03*
X916500Y377000D02*
D03*
X875000Y332250D02*
D03*
X686500Y331500D02*
D03*
X698500Y335750D02*
D03*
X644500Y301000D02*
D03*
X609500Y310750D02*
D03*
X619500Y259750D02*
D03*
X662000Y285500D02*
D03*
X662454Y318750D02*
D03*
X580750Y260162D02*
D03*
X654750Y299250D02*
D03*
X555000Y227500D02*
D03*
X455000Y235000D02*
D03*
X546500Y350500D02*
D03*
X538750Y228250D02*
D03*
X534750Y245750D02*
D03*
X518500Y352250D02*
D03*
X507750Y352000D02*
D03*
X577000Y351500D02*
D03*
X492000Y295750D02*
D03*
X495000Y234250D02*
D03*
X539250Y296750D02*
D03*
X532750Y314000D02*
D03*
X510000Y260000D02*
D03*
X454500Y296000D02*
D03*
X556750Y313750D02*
D03*
X577000Y313500D02*
D03*
X580750Y296000D02*
D03*
X575000Y230000D02*
D03*
X348250Y246250D02*
D03*
X547000Y371250D02*
D03*
Y416750D02*
D03*
X474750Y350250D02*
D03*
X64750Y61250D02*
D03*
X439250Y125500D02*
D03*
X388250Y131750D02*
D03*
X399750Y468500D02*
D03*
X450000Y468750D02*
D03*
X579000Y419250D02*
D03*
X570750D02*
D03*
X523000D02*
D03*
X514750Y419500D02*
D03*
X577250Y375250D02*
D03*
X516250D02*
D03*
X419250Y417500D02*
D03*
X395500Y376750D02*
D03*
X419250Y376000D02*
D03*
X395500Y417250D02*
D03*
X442500Y418250D02*
D03*
X499750Y145000D02*
D03*
Y157750D02*
D03*
X485250Y157250D02*
D03*
X187500Y172500D02*
D03*
X104000Y52000D02*
D03*
X26500Y61750D02*
D03*
X74000Y63750D02*
D03*
X92000Y68000D02*
D03*
X91634Y111178D02*
D03*
X27000Y162000D02*
D03*
Y140000D02*
D03*
Y113000D02*
D03*
Y88000D02*
D03*
X276250Y139750D02*
D03*
X237500Y130000D02*
D03*
Y110000D02*
D03*
X185000Y87500D02*
D03*
X127500Y72500D02*
D03*
X142750Y123000D02*
D03*
X186500Y108750D02*
D03*
X186250Y116750D02*
D03*
X343000Y400000D02*
D03*
Y393000D02*
D03*
Y375000D02*
D03*
Y368000D02*
D03*
Y349000D02*
D03*
X274000Y459000D02*
D03*
X71500Y281250D02*
D03*
X211000Y310750D02*
D03*
X139000Y262000D02*
D03*
X224000Y242750D02*
D03*
X198250Y241750D02*
D03*
X206250D02*
D03*
Y249500D02*
D03*
X228500Y253250D02*
D03*
X179500Y238250D02*
D03*
X174250Y243250D02*
D03*
X179500Y248000D02*
D03*
X212250Y223500D02*
D03*
X198250Y249500D02*
D03*
X203000Y268250D02*
D03*
X320000Y187500D02*
D03*
X287500D02*
D03*
X262500D02*
D03*
X270000D02*
D03*
X295000D02*
D03*
X312500D02*
D03*
X271750Y316250D02*
D03*
X297530Y316640D02*
D03*
X291180D02*
D03*
X284830D02*
D03*
D116*
X960000Y25000D02*
D03*
Y475000D02*
D03*
X25000D02*
D03*
Y25000D02*
D03*
D117*
X503800Y435975D02*
D03*
X590200D02*
D03*
D118*
X575900Y440975D02*
D03*
X518100D02*
D03*
D119*
X590200Y477775D02*
D03*
X503800D02*
D03*
D120*
X110000Y212500D02*
D03*
X132500Y242500D02*
D03*
X153500Y243000D02*
D03*
D121*
X159000Y120000D02*
D03*
X170500D02*
D03*
X164750Y129500D02*
D03*
Y110500D02*
D03*
D122*
X524000Y281000D02*
D03*
X535000D02*
D03*
X546000D02*
D03*
X524000Y270000D02*
D03*
X535000D02*
D03*
X546000D02*
D03*
X524000Y259000D02*
D03*
X535000D02*
D03*
X546000D02*
D03*
M02*
