G04*
G04 #@! TF.GenerationSoftware,Altium Limited,Altium Designer,25.4.2 (15)*
G04*
G04 Layer_Physical_Order=3*
G04 Layer_Color=16440176*
%FSLAX44Y44*%
%MOMM*%
G71*
G04*
G04 #@! TF.SameCoordinates,69983CE8-C732-48D4-ACAD-208037422C18*
G04*
G04*
G04 #@! TF.FilePolarity,Positive*
G04*
G01*
G75*
%ADD96C,1.5700*%
%ADD97R,1.5700X1.5700*%
%ADD102C,0.9000*%
%ADD107C,0.2540*%
%ADD113C,2.5500*%
%ADD114C,1.5080*%
%ADD115C,0.4500*%
%ADD116C,5.0000*%
%ADD117O,1.0000X2.1000*%
%ADD118C,0.6500*%
%ADD119O,1.0000X1.8000*%
%ADD120C,1.0000*%
%ADD121C,0.5000*%
%ADD122C,0.6000*%
G36*
X620000Y486000D02*
Y262889D01*
X618876D01*
X617722Y262411D01*
X616839Y261528D01*
X616361Y260374D01*
Y259126D01*
X616839Y257972D01*
X617722Y257089D01*
X618876Y256611D01*
X620000D01*
Y183000D01*
X539000Y102000D01*
X22000D01*
X0Y124000D01*
Y461244D01*
X2540Y462015D01*
X4891Y458497D01*
X8497Y454891D01*
X12737Y452057D01*
X17449Y450106D01*
X22450Y449111D01*
X27550D01*
X32552Y450106D01*
X37263Y452057D01*
X41503Y454891D01*
X45109Y458497D01*
X47943Y462737D01*
X49894Y467448D01*
X50889Y472450D01*
Y477550D01*
X49894Y482551D01*
X47943Y487263D01*
X45109Y491503D01*
X41503Y495109D01*
X37985Y497460D01*
X38756Y500000D01*
X606000D01*
X620000Y486000D01*
D02*
G37*
G36*
X947015Y497460D02*
X943497Y495109D01*
X939891Y491503D01*
X937057Y487263D01*
X935106Y482551D01*
X934111Y477550D01*
Y472450D01*
X935106Y467448D01*
X937057Y462737D01*
X939891Y458497D01*
X943497Y454891D01*
X947737Y452057D01*
X952449Y450106D01*
X957450Y449111D01*
X962550D01*
X967552Y450106D01*
X972263Y452057D01*
X976503Y454891D01*
X980109Y458497D01*
X982460Y462015D01*
X985000Y461244D01*
Y38756D01*
X982460Y37985D01*
X980109Y41503D01*
X976503Y45109D01*
X972263Y47943D01*
X967552Y49894D01*
X962550Y50889D01*
X957450D01*
X952449Y49894D01*
X947737Y47943D01*
X943497Y45109D01*
X939891Y41503D01*
X937057Y37263D01*
X935106Y32552D01*
X934111Y27550D01*
Y22450D01*
X935106Y17449D01*
X937057Y12737D01*
X939891Y8497D01*
X943497Y4891D01*
X947015Y2540D01*
X946244Y0D01*
X62000D01*
X50000Y12000D01*
Y17981D01*
X50889Y22450D01*
Y27550D01*
X50000Y32019D01*
Y84000D01*
X64000Y98000D01*
X77242D01*
X78861Y95624D01*
Y94376D01*
X79339Y93222D01*
X80222Y92339D01*
X81376Y91861D01*
X82624D01*
X83778Y92339D01*
X84661Y93222D01*
X85139Y94376D01*
Y95624D01*
X86758Y98000D01*
X535511D01*
Y80911D01*
X552989D01*
Y98389D01*
X544708D01*
X543736Y100736D01*
X624000Y181000D01*
Y486000D01*
X638000Y500000D01*
X885000Y500000D01*
X946244D01*
X947015Y497460D01*
D02*
G37*
%LPC*%
G36*
X460072Y485389D02*
X457928D01*
X455947Y484569D01*
X454431Y483053D01*
X453611Y481072D01*
Y478928D01*
X454431Y476947D01*
X455947Y475431D01*
X457928Y474611D01*
X460072D01*
X462053Y475431D01*
X463569Y476947D01*
X464389Y478928D01*
Y481072D01*
X463569Y483053D01*
X462053Y484569D01*
X460072Y485389D01*
D02*
G37*
G36*
X392072D02*
X389928D01*
X387947Y484569D01*
X386431Y483053D01*
X385611Y481072D01*
Y478928D01*
X386431Y476947D01*
X387947Y475431D01*
X389928Y474611D01*
X392072D01*
X394053Y475431D01*
X395569Y476947D01*
X396389Y478928D01*
Y481072D01*
X395569Y483053D01*
X394053Y484569D01*
X392072Y485389D01*
D02*
G37*
G36*
X590200Y487779D02*
X587902Y487322D01*
X585954Y486021D01*
X584653Y484073D01*
X584196Y481775D01*
Y473775D01*
X584653Y471477D01*
X585954Y469529D01*
X587902Y468228D01*
X590200Y467771D01*
X592498Y468228D01*
X594446Y469529D01*
X595747Y471477D01*
X596204Y473775D01*
Y481775D01*
X595747Y484073D01*
X594446Y486021D01*
X592498Y487322D01*
X590200Y487779D01*
D02*
G37*
G36*
X503800D02*
X501502Y487322D01*
X499554Y486021D01*
X498253Y484073D01*
X497796Y481775D01*
Y473775D01*
X498253Y471477D01*
X499554Y469529D01*
X501502Y468228D01*
X503800Y467771D01*
X506098Y468228D01*
X508046Y469529D01*
X509347Y471477D01*
X509804Y473775D01*
Y481775D01*
X509347Y484073D01*
X508046Y486021D01*
X506098Y487322D01*
X503800Y487779D01*
D02*
G37*
G36*
X400374Y471639D02*
X399126D01*
X397972Y471161D01*
X397089Y470278D01*
X396611Y469124D01*
Y467876D01*
X397089Y466722D01*
X397972Y465839D01*
X399126Y465361D01*
X400374D01*
X401528Y465839D01*
X402411Y466722D01*
X402889Y467876D01*
Y469124D01*
X402411Y470278D01*
X401528Y471161D01*
X400374Y471639D01*
D02*
G37*
G36*
X274624Y462139D02*
X273376D01*
X272222Y461661D01*
X271339Y460778D01*
X270861Y459624D01*
Y458376D01*
X271339Y457222D01*
X272222Y456339D01*
X273376Y455861D01*
X274624D01*
X275778Y456339D01*
X276661Y457222D01*
X277139Y458376D01*
Y459624D01*
X276661Y460778D01*
X275778Y461661D01*
X274624Y462139D01*
D02*
G37*
G36*
X555624Y444389D02*
X554376D01*
X553222Y443911D01*
X552339Y443028D01*
X551861Y441874D01*
Y440626D01*
X552339Y439472D01*
X553222Y438589D01*
X554376Y438111D01*
X555624D01*
X556778Y438589D01*
X557661Y439472D01*
X558139Y440626D01*
Y441874D01*
X557661Y443028D01*
X556778Y443911D01*
X555624Y444389D01*
D02*
G37*
G36*
X544874D02*
X543626D01*
X542472Y443911D01*
X541589Y443028D01*
X541111Y441874D01*
Y440626D01*
X541589Y439472D01*
X542472Y438589D01*
X543626Y438111D01*
X544874D01*
X546028Y438589D01*
X546911Y439472D01*
X547389Y440626D01*
Y441874D01*
X546911Y443028D01*
X546028Y443911D01*
X544874Y444389D01*
D02*
G37*
G36*
X576723Y445114D02*
X575077D01*
X573555Y444484D01*
X572391Y443320D01*
X571761Y441798D01*
Y440152D01*
X572391Y438630D01*
X573555Y437466D01*
X575077Y436836D01*
X576723D01*
X578245Y437466D01*
X579409Y438630D01*
X580039Y440152D01*
Y441798D01*
X579409Y443320D01*
X578245Y444484D01*
X576723Y445114D01*
D02*
G37*
G36*
X518923D02*
X517277D01*
X515755Y444484D01*
X514591Y443320D01*
X513961Y441798D01*
Y440152D01*
X514591Y438630D01*
X515755Y437466D01*
X517277Y436836D01*
X518923D01*
X520444Y437466D01*
X521609Y438630D01*
X522239Y440152D01*
Y441798D01*
X521609Y443320D01*
X520444Y444484D01*
X518923Y445114D01*
D02*
G37*
G36*
X590200Y447479D02*
X587902Y447022D01*
X585954Y445721D01*
X584653Y443773D01*
X584196Y441475D01*
Y430475D01*
X584653Y428177D01*
X585954Y426229D01*
X587902Y424928D01*
X590200Y424471D01*
X592498Y424928D01*
X594446Y426229D01*
X595747Y428177D01*
X596204Y430475D01*
Y441475D01*
X595747Y443773D01*
X594446Y445721D01*
X592498Y447022D01*
X590200Y447479D01*
D02*
G37*
G36*
X503800D02*
X501502Y447022D01*
X499554Y445721D01*
X498253Y443773D01*
X497796Y441475D01*
Y430475D01*
X498253Y428177D01*
X499554Y426229D01*
X501502Y424928D01*
X503800Y424471D01*
X506098Y424928D01*
X508046Y426229D01*
X509347Y428177D01*
X509804Y430475D01*
Y441475D01*
X509347Y443773D01*
X508046Y445721D01*
X506098Y447022D01*
X503800Y447479D01*
D02*
G37*
G36*
X31110Y438429D02*
X28890D01*
X26746Y437855D01*
X24825Y436745D01*
X23255Y435176D01*
X22145Y433254D01*
X21571Y431110D01*
Y428890D01*
X22145Y426746D01*
X23255Y424824D01*
X24825Y423255D01*
X26746Y422145D01*
X28890Y421571D01*
X31110D01*
X33254Y422145D01*
X35175Y423255D01*
X36745Y424824D01*
X37855Y426746D01*
X38429Y428890D01*
Y431110D01*
X37855Y433254D01*
X36745Y435176D01*
X35175Y436745D01*
X33254Y437855D01*
X31110Y438429D01*
D02*
G37*
G36*
X515374Y422639D02*
X514126D01*
X512972Y422161D01*
X512089Y421278D01*
X511611Y420124D01*
Y418876D01*
X512089Y417722D01*
X512972Y416839D01*
X514126Y416361D01*
X515374D01*
X516528Y416839D01*
X517411Y417722D01*
X517514Y417971D01*
X520198Y417812D01*
X520339Y417472D01*
X521222Y416589D01*
X522376Y416111D01*
X522526D01*
X544799Y393838D01*
Y373488D01*
X544339Y373028D01*
X543861Y371874D01*
Y370626D01*
X544339Y369472D01*
X545222Y368589D01*
X546376Y368111D01*
X547624D01*
X548778Y368589D01*
X549661Y369472D01*
X550139Y370626D01*
Y371874D01*
X549661Y373028D01*
X549201Y373488D01*
Y393838D01*
X571327Y415964D01*
X571445Y416140D01*
X572528Y416589D01*
X573411Y417472D01*
X573514Y417721D01*
X576236D01*
X576339Y417472D01*
X577222Y416589D01*
X578376Y416111D01*
X579624D01*
X580778Y416589D01*
X581661Y417472D01*
X582139Y418626D01*
Y419874D01*
X581661Y421028D01*
X580778Y421911D01*
X579624Y422389D01*
X578376D01*
X577222Y421911D01*
X576339Y421028D01*
X576236Y420779D01*
X573514D01*
X573411Y421028D01*
X572528Y421911D01*
X571374Y422389D01*
X570126D01*
X568972Y421911D01*
X568089Y421028D01*
X567611Y419874D01*
Y418626D01*
X567655Y418518D01*
X547000Y397863D01*
X526139Y418724D01*
Y419874D01*
X525661Y421028D01*
X524778Y421911D01*
X523624Y422389D01*
X522376D01*
X521222Y421911D01*
X520339Y421028D01*
X520236Y420779D01*
X517552Y420938D01*
X517411Y421278D01*
X516528Y422161D01*
X515374Y422639D01*
D02*
G37*
G36*
X547624Y419889D02*
X546376D01*
X545222Y419411D01*
X544339Y418528D01*
X543861Y417374D01*
Y416126D01*
X544339Y414972D01*
X545222Y414089D01*
X546376Y413611D01*
X547624D01*
X548778Y414089D01*
X549661Y414972D01*
X550139Y416126D01*
Y417374D01*
X549661Y418528D01*
X548778Y419411D01*
X547624Y419889D01*
D02*
G37*
G36*
X343624Y403139D02*
X342376D01*
X341222Y402661D01*
X340339Y401778D01*
X339861Y400624D01*
Y399376D01*
X340339Y398222D01*
X340464Y398097D01*
X340961Y396500D01*
X340464Y394903D01*
X340339Y394778D01*
X339861Y393624D01*
Y392376D01*
X340339Y391222D01*
X341222Y390339D01*
X342376Y389861D01*
X343624D01*
X344778Y390339D01*
X345661Y391222D01*
X346139Y392376D01*
Y393624D01*
X345661Y394778D01*
X345536Y394903D01*
X345039Y396500D01*
X345536Y398097D01*
X345661Y398222D01*
X346139Y399376D01*
Y400624D01*
X345661Y401778D01*
X344778Y402661D01*
X343624Y403139D01*
D02*
G37*
G36*
X131796Y413639D02*
X128204D01*
X124736Y412710D01*
X121625Y410914D01*
X119086Y408374D01*
X117290Y405265D01*
X116361Y401796D01*
Y398204D01*
X117290Y394736D01*
X119086Y391626D01*
X121625Y389086D01*
X124736Y387290D01*
X128204Y386361D01*
X131796D01*
X135265Y387290D01*
X138375Y389086D01*
X140914Y391626D01*
X142710Y394736D01*
X143639Y398204D01*
Y401796D01*
X142710Y405265D01*
X140914Y408374D01*
X138375Y410914D01*
X135265Y412710D01*
X131796Y413639D01*
D02*
G37*
G36*
X475124Y384889D02*
X473876D01*
X472722Y384411D01*
X471839Y383528D01*
X471361Y382374D01*
Y381126D01*
X471839Y379972D01*
X472722Y379089D01*
X473876Y378611D01*
X475124D01*
X476278Y379089D01*
X477161Y379972D01*
X477639Y381126D01*
Y382374D01*
X477161Y383528D01*
X476278Y384411D01*
X475124Y384889D01*
D02*
G37*
G36*
X448616Y384870D02*
X447367D01*
X446213Y384392D01*
X445330Y383509D01*
X444852Y382355D01*
Y381106D01*
X445330Y379953D01*
X446213Y379070D01*
X447367Y378592D01*
X448616D01*
X449769Y379070D01*
X450652Y379953D01*
X451130Y381106D01*
Y382355D01*
X450652Y383509D01*
X449769Y384392D01*
X448616Y384870D01*
D02*
G37*
G36*
X396124Y379889D02*
X394876D01*
X393722Y379411D01*
X392839Y378528D01*
X392361Y377374D01*
Y376126D01*
X392839Y374972D01*
X393722Y374089D01*
X394876Y373611D01*
X396124D01*
X397278Y374089D01*
X398161Y374972D01*
X398639Y376126D01*
Y377374D01*
X398161Y378528D01*
X397278Y379411D01*
X396124Y379889D01*
D02*
G37*
G36*
X419874Y379139D02*
X418626D01*
X417472Y378661D01*
X416589Y377778D01*
X416111Y376624D01*
Y375376D01*
X416589Y374222D01*
X417472Y373339D01*
X418626Y372861D01*
X419874D01*
X421028Y373339D01*
X421911Y374222D01*
X422389Y375376D01*
Y376624D01*
X421911Y377778D01*
X421028Y378661D01*
X419874Y379139D01*
D02*
G37*
G36*
X577874Y378389D02*
X576626D01*
X575472Y377911D01*
X574589Y377028D01*
X574111Y375874D01*
Y374626D01*
X574589Y373472D01*
X575472Y372589D01*
X576626Y372111D01*
X577874D01*
X579028Y372589D01*
X579911Y373472D01*
X580389Y374626D01*
Y375874D01*
X579911Y377028D01*
X579028Y377911D01*
X577874Y378389D01*
D02*
G37*
G36*
X516874D02*
X515626D01*
X514472Y377911D01*
X513589Y377028D01*
X513111Y375874D01*
Y374626D01*
X513589Y373472D01*
X514472Y372589D01*
X515626Y372111D01*
X516874D01*
X518028Y372589D01*
X518911Y373472D01*
X519389Y374626D01*
Y375874D01*
X518911Y377028D01*
X518028Y377911D01*
X516874Y378389D01*
D02*
G37*
G36*
X343624Y378139D02*
X342376D01*
X341222Y377661D01*
X340339Y376778D01*
X339861Y375624D01*
Y374376D01*
X340339Y373222D01*
X340464Y373097D01*
X340961Y371500D01*
X340464Y369903D01*
X340339Y369778D01*
X339861Y368624D01*
Y367376D01*
X340339Y366222D01*
X341222Y365339D01*
X342376Y364861D01*
X343624D01*
X344778Y365339D01*
X345661Y366222D01*
X346139Y367376D01*
Y368624D01*
X345661Y369778D01*
X345536Y369903D01*
X345039Y371500D01*
X345536Y373097D01*
X345661Y373222D01*
X346139Y374376D01*
Y375624D01*
X345661Y376778D01*
X344778Y377661D01*
X343624Y378139D01*
D02*
G37*
G36*
X519124Y355389D02*
X517876D01*
X516722Y354911D01*
X515839Y354028D01*
X515361Y352874D01*
Y351626D01*
X515839Y350472D01*
X516722Y349589D01*
X517876Y349111D01*
X519124D01*
X520278Y349589D01*
X521161Y350472D01*
X521639Y351626D01*
Y352874D01*
X521161Y354028D01*
X520278Y354911D01*
X519124Y355389D01*
D02*
G37*
G36*
X508374Y355139D02*
X507126D01*
X505972Y354661D01*
X505089Y353778D01*
X504611Y352624D01*
Y351376D01*
X505089Y350222D01*
X505972Y349339D01*
X507126Y348861D01*
X508374D01*
X509528Y349339D01*
X510411Y350222D01*
X510889Y351376D01*
Y352624D01*
X510411Y353778D01*
X509528Y354661D01*
X508374Y355139D01*
D02*
G37*
G36*
X577624Y354639D02*
X576376D01*
X575222Y354161D01*
X574339Y353278D01*
X573861Y352124D01*
Y350876D01*
X574339Y349722D01*
X575222Y348839D01*
X576376Y348361D01*
X577624D01*
X578778Y348839D01*
X579661Y349722D01*
X580139Y350876D01*
Y352124D01*
X579661Y353278D01*
X578778Y354161D01*
X577624Y354639D01*
D02*
G37*
G36*
X547124Y353639D02*
X545876D01*
X544722Y353161D01*
X543839Y352278D01*
X543361Y351124D01*
Y349876D01*
X543839Y348722D01*
X544722Y347839D01*
X545876Y347361D01*
X547124D01*
X548278Y347839D01*
X549161Y348722D01*
X549639Y349876D01*
Y351124D01*
X549161Y352278D01*
X548278Y353161D01*
X547124Y353639D01*
D02*
G37*
G36*
X448624D02*
X447376D01*
X446222Y353161D01*
X445339Y352278D01*
X444861Y351124D01*
Y349876D01*
X445339Y348722D01*
X446222Y347839D01*
X447376Y347361D01*
X448624D01*
X449778Y347839D01*
X450661Y348722D01*
X451139Y349876D01*
Y351124D01*
X450661Y352278D01*
X449778Y353161D01*
X448624Y353639D01*
D02*
G37*
G36*
X475374Y353389D02*
X474126D01*
X472972Y352911D01*
X472089Y352028D01*
X471611Y350874D01*
Y349626D01*
X472089Y348472D01*
X472972Y347589D01*
X474126Y347111D01*
X475374D01*
X476528Y347589D01*
X477411Y348472D01*
X477889Y349626D01*
Y350874D01*
X477411Y352028D01*
X476528Y352911D01*
X475374Y353389D01*
D02*
G37*
G36*
X343624Y352139D02*
X342376D01*
X341222Y351661D01*
X340339Y350778D01*
X339861Y349624D01*
Y348376D01*
X340339Y347222D01*
X340464Y347096D01*
X340961Y345500D01*
X340464Y343903D01*
X340339Y343778D01*
X339861Y342624D01*
Y341376D01*
X340339Y340222D01*
X341222Y339339D01*
X342376Y338861D01*
X343624D01*
X344778Y339339D01*
X345661Y340222D01*
X346139Y341376D01*
Y342624D01*
X345661Y343778D01*
X345536Y343903D01*
X345039Y345500D01*
X345536Y347096D01*
X345661Y347222D01*
X346139Y348376D01*
Y349624D01*
X345661Y350778D01*
X344778Y351661D01*
X343624Y352139D01*
D02*
G37*
G36*
X131796Y363639D02*
X128204D01*
X124736Y362710D01*
X121625Y360914D01*
X119086Y358374D01*
X117290Y355265D01*
X116361Y351796D01*
Y348204D01*
X117290Y344736D01*
X119086Y341626D01*
X121625Y339086D01*
X124736Y337290D01*
X128204Y336361D01*
X131796D01*
X135265Y337290D01*
X138375Y339086D01*
X140914Y341626D01*
X142710Y344736D01*
X143639Y348204D01*
Y351796D01*
X142710Y355265D01*
X140914Y358374D01*
X138375Y360914D01*
X135265Y362710D01*
X131796Y363639D01*
D02*
G37*
G36*
X390624Y340389D02*
X389376D01*
X388222Y339911D01*
X387339Y339028D01*
X386861Y337874D01*
Y336626D01*
X387339Y335472D01*
X388222Y334589D01*
X389376Y334111D01*
X390624D01*
X391778Y334589D01*
X392661Y335472D01*
X393139Y336626D01*
Y337874D01*
X392661Y339028D01*
X391778Y339911D01*
X390624Y340389D01*
D02*
G37*
G36*
X280624Y333139D02*
X279376D01*
X278222Y332661D01*
X277339Y331778D01*
X276861Y330624D01*
Y329376D01*
X277339Y328222D01*
X278222Y327339D01*
X279376Y326861D01*
X280624D01*
X281778Y327339D01*
X282661Y328222D01*
X283139Y329376D01*
Y330624D01*
X282661Y331778D01*
X281778Y332661D01*
X280624Y333139D01*
D02*
G37*
G36*
X298154Y319779D02*
X296906D01*
X295752Y319301D01*
X294355Y319035D01*
X292958Y319301D01*
X292587Y319455D01*
X291804Y319779D01*
X290556D01*
X289402Y319301D01*
X288005Y319035D01*
X286608Y319301D01*
X286237Y319455D01*
X285454Y319779D01*
X284206D01*
X283052Y319301D01*
X282169Y318418D01*
X281691Y317264D01*
Y316016D01*
X282169Y314862D01*
X283052Y313979D01*
X284206Y313501D01*
X285454D01*
X286608Y313979D01*
X288005Y314245D01*
X289402Y313979D01*
X289773Y313825D01*
X290556Y313501D01*
X291804D01*
X292958Y313979D01*
X294355Y314245D01*
X295752Y313979D01*
X296123Y313825D01*
X296906Y313501D01*
X298154D01*
X299308Y313979D01*
X300191Y314862D01*
X300669Y316016D01*
Y317264D01*
X300191Y318418D01*
X299308Y319301D01*
X298154Y319779D01*
D02*
G37*
G36*
X272374Y319389D02*
X271126D01*
X269972Y318911D01*
X269089Y318028D01*
X268611Y316874D01*
Y315626D01*
X269089Y314472D01*
X269972Y313589D01*
X271126Y313111D01*
X272374D01*
X273528Y313589D01*
X274411Y314472D01*
X274889Y315626D01*
Y316874D01*
X274411Y318028D01*
X273528Y318911D01*
X272374Y319389D01*
D02*
G37*
G36*
X31110Y328429D02*
X28890D01*
X26746Y327855D01*
X24825Y326745D01*
X23255Y325176D01*
X22145Y323254D01*
X21571Y321110D01*
Y318890D01*
X22145Y316747D01*
X23255Y314825D01*
X24825Y313255D01*
X26746Y312146D01*
X28890Y311571D01*
X31110D01*
X33254Y312146D01*
X35175Y313255D01*
X36745Y314825D01*
X37855Y316747D01*
X38429Y318890D01*
Y321110D01*
X37855Y323254D01*
X36745Y325176D01*
X35175Y326745D01*
X33254Y327855D01*
X31110Y328429D01*
D02*
G37*
G36*
X533374Y317139D02*
X532126D01*
X530972Y316661D01*
X530089Y315778D01*
X529611Y314624D01*
Y313376D01*
X530089Y312222D01*
X530972Y311339D01*
X532126Y310861D01*
X533374D01*
X534528Y311339D01*
X535411Y312222D01*
X535889Y313376D01*
Y314624D01*
X535411Y315778D01*
X534528Y316661D01*
X533374Y317139D01*
D02*
G37*
G36*
X610124Y313889D02*
X608876D01*
X607722Y313411D01*
X606839Y312528D01*
X606361Y311374D01*
Y310126D01*
X606839Y308972D01*
X607722Y308089D01*
X608876Y307611D01*
X610124D01*
X611278Y308089D01*
X612161Y308972D01*
X612639Y310126D01*
Y311374D01*
X612161Y312528D01*
X611278Y313411D01*
X610124Y313889D01*
D02*
G37*
G36*
X211624D02*
X210376D01*
X209222Y313411D01*
X208339Y312528D01*
X207861Y311374D01*
Y310126D01*
X208339Y308972D01*
X209222Y308089D01*
X210376Y307611D01*
X211624D01*
X212778Y308089D01*
X213661Y308972D01*
X214139Y310126D01*
Y311374D01*
X213661Y312528D01*
X212778Y313411D01*
X211624Y313889D01*
D02*
G37*
G36*
X188874D02*
X187626D01*
X186472Y313411D01*
X185589Y312528D01*
X185111Y311374D01*
Y310126D01*
X185589Y308972D01*
X186472Y308089D01*
X187626Y307611D01*
X188874D01*
X190028Y308089D01*
X190911Y308972D01*
X191389Y310126D01*
Y311374D01*
X190911Y312528D01*
X190028Y313411D01*
X188874Y313889D01*
D02*
G37*
G36*
X455124Y299139D02*
X453876D01*
X452722Y298661D01*
X451839Y297778D01*
X451361Y296624D01*
Y295376D01*
X451839Y294222D01*
X452722Y293339D01*
X453876Y292861D01*
X455124D01*
X456278Y293339D01*
X457161Y294222D01*
X457639Y295376D01*
Y296624D01*
X457161Y297778D01*
X456278Y298661D01*
X455124Y299139D01*
D02*
G37*
G36*
X72124Y284389D02*
X70876D01*
X69722Y283911D01*
X68839Y283028D01*
X68361Y281874D01*
Y280626D01*
X68839Y279472D01*
X69722Y278589D01*
X70876Y278111D01*
X72124D01*
X73278Y278589D01*
X74161Y279472D01*
X74639Y280626D01*
Y281874D01*
X74161Y283028D01*
X73278Y283911D01*
X72124Y284389D01*
D02*
G37*
G36*
X559874Y284139D02*
X558626D01*
X557472Y283661D01*
X556589Y282778D01*
X556111Y281624D01*
Y280376D01*
X556589Y279222D01*
X557472Y278339D01*
X558626Y277861D01*
X559874D01*
X561028Y278339D01*
X561911Y279222D01*
X562389Y280376D01*
Y281624D01*
X561911Y282778D01*
X561028Y283661D01*
X559874Y284139D01*
D02*
G37*
G36*
X546774Y284889D02*
X545226D01*
X543797Y284297D01*
X542703Y283203D01*
X542111Y281774D01*
Y280226D01*
X542703Y278797D01*
X543797Y277703D01*
X545226Y277111D01*
X546774D01*
X548203Y277703D01*
X549297Y278797D01*
X549889Y280226D01*
Y281774D01*
X549297Y283203D01*
X548203Y284297D01*
X546774Y284889D01*
D02*
G37*
G36*
X535774D02*
X534226D01*
X532797Y284297D01*
X531703Y283203D01*
X531111Y281774D01*
Y280226D01*
X531703Y278797D01*
X532797Y277703D01*
X534226Y277111D01*
X535774D01*
X537203Y277703D01*
X538297Y278797D01*
X538889Y280226D01*
Y281774D01*
X538297Y283203D01*
X537203Y284297D01*
X535774Y284889D01*
D02*
G37*
G36*
X524774D02*
X523226D01*
X521797Y284297D01*
X520703Y283203D01*
X520111Y281774D01*
Y280226D01*
X520703Y278797D01*
X521797Y277703D01*
X523226Y277111D01*
X524774D01*
X526203Y277703D01*
X527297Y278797D01*
X527889Y280226D01*
Y281774D01*
X527297Y283203D01*
X526203Y284297D01*
X524774Y284889D01*
D02*
G37*
G36*
X349374Y276889D02*
X348126D01*
X346972Y276411D01*
X346089Y275528D01*
X345611Y274374D01*
Y273126D01*
X346089Y271972D01*
X346972Y271089D01*
X348126Y270611D01*
X349374D01*
X350528Y271089D01*
X351411Y271972D01*
X351889Y273126D01*
Y274374D01*
X351411Y275528D01*
X350528Y276411D01*
X349374Y276889D01*
D02*
G37*
G36*
X210374Y271639D02*
X209126D01*
X207972Y271161D01*
X207909Y271098D01*
X206516Y270435D01*
X204778Y270911D01*
X204628Y270973D01*
X203624Y271389D01*
X202376D01*
X201222Y270911D01*
X200339Y270028D01*
X199861Y268874D01*
Y267626D01*
X200339Y266472D01*
X201222Y265589D01*
X202376Y265111D01*
X203624D01*
X204778Y265589D01*
X204841Y265651D01*
X206234Y266315D01*
X207972Y265839D01*
X208122Y265777D01*
X209126Y265361D01*
X210374D01*
X211528Y265839D01*
X212411Y266722D01*
X212889Y267876D01*
Y269124D01*
X212411Y270278D01*
X211528Y271161D01*
X210374Y271639D01*
D02*
G37*
G36*
X546774Y273889D02*
X545226D01*
X543797Y273297D01*
X542703Y272203D01*
X542111Y270774D01*
Y269226D01*
X542703Y267797D01*
X543797Y266703D01*
X545226Y266111D01*
X546774D01*
X548203Y266703D01*
X549297Y267797D01*
X549889Y269226D01*
Y270774D01*
X549297Y272203D01*
X548203Y273297D01*
X546774Y273889D01*
D02*
G37*
G36*
X535774D02*
X534226D01*
X532797Y273297D01*
X531703Y272203D01*
X531111Y270774D01*
Y269226D01*
X531703Y267797D01*
X532797Y266703D01*
X534226Y266111D01*
X535774D01*
X537203Y266703D01*
X538297Y267797D01*
X538889Y269226D01*
Y270774D01*
X538297Y272203D01*
X537203Y273297D01*
X535774Y273889D01*
D02*
G37*
G36*
X524774D02*
X523226D01*
X521797Y273297D01*
X520703Y272203D01*
X520111Y270774D01*
Y269226D01*
X520703Y267797D01*
X521797Y266703D01*
X523226Y266111D01*
X524774D01*
X526203Y266703D01*
X527297Y267797D01*
X527889Y269226D01*
Y270774D01*
X527297Y272203D01*
X526203Y273297D01*
X524774Y273889D01*
D02*
G37*
G36*
X139624Y265139D02*
X138376D01*
X137222Y264661D01*
X136339Y263778D01*
X135861Y262624D01*
Y261376D01*
X136339Y260222D01*
X137222Y259339D01*
X138376Y258861D01*
X139624D01*
X140778Y259339D01*
X141661Y260222D01*
X142139Y261376D01*
Y262624D01*
X141661Y263778D01*
X140778Y264661D01*
X139624Y265139D01*
D02*
G37*
G36*
X559624Y262139D02*
X558376D01*
X557222Y261661D01*
X556339Y260778D01*
X555861Y259624D01*
Y258376D01*
X556339Y257222D01*
X557222Y256339D01*
X558376Y255861D01*
X559624D01*
X560778Y256339D01*
X561661Y257222D01*
X562139Y258376D01*
Y259624D01*
X561661Y260778D01*
X560778Y261661D01*
X559624Y262139D01*
D02*
G37*
G36*
X285874Y261889D02*
X284626D01*
X283472Y261411D01*
X282589Y260528D01*
X282111Y259374D01*
Y258126D01*
X282589Y256972D01*
X283472Y256089D01*
X284626Y255611D01*
X285874D01*
X287028Y256089D01*
X287911Y256972D01*
X288389Y258126D01*
Y259374D01*
X287911Y260528D01*
X287028Y261411D01*
X285874Y261889D01*
D02*
G37*
G36*
X272124Y261639D02*
X270876D01*
X269722Y261161D01*
X268839Y260278D01*
X268361Y259124D01*
Y257876D01*
X268839Y256722D01*
X269722Y255839D01*
X270876Y255361D01*
X272124D01*
X273278Y255839D01*
X274161Y256722D01*
X274639Y257876D01*
Y259124D01*
X274161Y260278D01*
X273278Y261161D01*
X272124Y261639D01*
D02*
G37*
G36*
X546774Y262889D02*
X545226D01*
X543797Y262297D01*
X542703Y261203D01*
X542111Y259774D01*
Y258226D01*
X542703Y256797D01*
X543797Y255703D01*
X545226Y255111D01*
X546774D01*
X548203Y255703D01*
X549297Y256797D01*
X549889Y258226D01*
Y259774D01*
X549297Y261203D01*
X548203Y262297D01*
X546774Y262889D01*
D02*
G37*
G36*
X535774D02*
X534226D01*
X532797Y262297D01*
X531703Y261203D01*
X531111Y259774D01*
Y258226D01*
X531703Y256797D01*
X532797Y255703D01*
X534226Y255111D01*
X535774D01*
X537203Y255703D01*
X538297Y256797D01*
X538889Y258226D01*
Y259774D01*
X538297Y261203D01*
X537203Y262297D01*
X535774Y262889D01*
D02*
G37*
G36*
X524774D02*
X523226D01*
X521797Y262297D01*
X520703Y261203D01*
X520111Y259774D01*
Y258226D01*
X520703Y256797D01*
X521797Y255703D01*
X523226Y255111D01*
X524774D01*
X526203Y255703D01*
X527297Y256797D01*
X527889Y258226D01*
Y259774D01*
X527297Y261203D01*
X526203Y262297D01*
X524774Y262889D01*
D02*
G37*
G36*
X206874Y252639D02*
X205626D01*
X204472Y252161D01*
X203589Y251278D01*
X200911D01*
X200028Y252161D01*
X198874Y252639D01*
X197626D01*
X196472Y252161D01*
X195589Y251278D01*
X195111Y250124D01*
Y248876D01*
X195589Y247722D01*
X196245Y247066D01*
X196368Y245625D01*
X196245Y244184D01*
X195589Y243528D01*
X195111Y242374D01*
Y241126D01*
X195589Y239972D01*
X196472Y239089D01*
X197626Y238611D01*
X198874D01*
X200028Y239089D01*
X200911Y239972D01*
X203589D01*
X204472Y239089D01*
X205626Y238611D01*
X206874D01*
X208028Y239089D01*
X208911Y239972D01*
X209389Y241126D01*
Y242374D01*
X208911Y243528D01*
X208255Y244184D01*
X208132Y245625D01*
X208255Y247066D01*
X208911Y247722D01*
X209389Y248876D01*
Y250124D01*
X208911Y251278D01*
X208028Y252161D01*
X206874Y252639D01*
D02*
G37*
G36*
X229124Y256389D02*
X227876D01*
X226722Y255911D01*
X225839Y255028D01*
X225361Y253874D01*
Y252626D01*
X225839Y251472D01*
X226722Y250589D01*
X227876Y250111D01*
X229124D01*
X230278Y250589D01*
X231161Y251472D01*
X231639Y252626D01*
Y253874D01*
X231161Y255028D01*
X230278Y255911D01*
X229124Y256389D01*
D02*
G37*
G36*
X348874Y249389D02*
X347626D01*
X346472Y248911D01*
X345589Y248028D01*
X345111Y246874D01*
Y245626D01*
X345589Y244472D01*
X346472Y243589D01*
X347626Y243111D01*
X348874D01*
X350028Y243589D01*
X350911Y244472D01*
X351389Y245626D01*
Y246874D01*
X350911Y248028D01*
X350028Y248911D01*
X348874Y249389D01*
D02*
G37*
G36*
X224624Y245889D02*
X223376D01*
X222222Y245411D01*
X221339Y244528D01*
X220861Y243374D01*
Y242126D01*
X221339Y240972D01*
X222222Y240089D01*
X223376Y239611D01*
X224624D01*
X225778Y240089D01*
X226661Y240972D01*
X227139Y242126D01*
Y243374D01*
X226661Y244528D01*
X225778Y245411D01*
X224624Y245889D01*
D02*
G37*
G36*
X154671Y248889D02*
X152329D01*
X150164Y247992D01*
X148508Y246336D01*
X147611Y244171D01*
Y241829D01*
X148508Y239664D01*
X150164Y238008D01*
X152329Y237111D01*
X154671D01*
X156836Y238008D01*
X158492Y239664D01*
X159389Y241829D01*
Y244171D01*
X158492Y246336D01*
X156836Y247992D01*
X154671Y248889D01*
D02*
G37*
G36*
X133671Y248389D02*
X131329D01*
X129164Y247492D01*
X127508Y245836D01*
X126611Y243671D01*
Y241329D01*
X127508Y239164D01*
X129164Y237508D01*
X131329Y236611D01*
X133671D01*
X135836Y237508D01*
X137493Y239164D01*
X138389Y241329D01*
Y243671D01*
X137493Y245836D01*
X135836Y247492D01*
X133671Y248389D01*
D02*
G37*
G36*
X180124Y251139D02*
X178876D01*
X177722Y250661D01*
X176839Y249778D01*
X176361Y248624D01*
Y248522D01*
X175229Y246899D01*
X174020Y246389D01*
X173626D01*
X172472Y245911D01*
X171589Y245028D01*
X171111Y243874D01*
Y242626D01*
X171589Y241472D01*
X172472Y240589D01*
X173626Y240111D01*
X174124D01*
X175345Y239436D01*
X176361Y237978D01*
Y237626D01*
X176839Y236472D01*
X177722Y235589D01*
X178876Y235111D01*
X180124D01*
X181278Y235589D01*
X182161Y236472D01*
X182639Y237626D01*
Y238874D01*
X182161Y240028D01*
X181278Y240911D01*
X180124Y241389D01*
X179329Y243098D01*
X180124Y244861D01*
X181278Y245339D01*
X182161Y246222D01*
X182639Y247376D01*
Y248624D01*
X182161Y249778D01*
X181278Y250661D01*
X180124Y251139D01*
D02*
G37*
G36*
X455624Y238139D02*
X454376D01*
X453222Y237661D01*
X452339Y236778D01*
X451861Y235624D01*
Y234376D01*
X452339Y233222D01*
X453222Y232339D01*
X454376Y231861D01*
X455624D01*
X456778Y232339D01*
X457661Y233222D01*
X458139Y234376D01*
Y235624D01*
X457661Y236778D01*
X456778Y237661D01*
X455624Y238139D01*
D02*
G37*
G36*
X575624Y233139D02*
X574376D01*
X573222Y232661D01*
X572339Y231778D01*
X571861Y230624D01*
Y229376D01*
X572339Y228222D01*
X573222Y227339D01*
X574376Y226861D01*
X575624D01*
X576778Y227339D01*
X577661Y228222D01*
X578139Y229376D01*
Y230624D01*
X577661Y231778D01*
X576778Y232661D01*
X575624Y233139D01*
D02*
G37*
G36*
X539374Y231389D02*
X538126D01*
X536972Y230911D01*
X536089Y230028D01*
X535611Y228874D01*
Y227626D01*
X536089Y226472D01*
X536972Y225589D01*
X538126Y225111D01*
X539374D01*
X540528Y225589D01*
X541411Y226472D01*
X541889Y227626D01*
Y228874D01*
X541411Y230028D01*
X540528Y230911D01*
X539374Y231389D01*
D02*
G37*
G36*
X212874Y226639D02*
X211626D01*
X210472Y226161D01*
X209589Y225278D01*
X209111Y224124D01*
Y222876D01*
X209589Y221722D01*
X210472Y220839D01*
X211626Y220361D01*
X212874D01*
X214028Y220839D01*
X214911Y221722D01*
X215389Y222876D01*
Y224124D01*
X214911Y225278D01*
X214028Y226161D01*
X212874Y226639D01*
D02*
G37*
G36*
X514624Y214389D02*
X513376D01*
X512222Y213911D01*
X511339Y213028D01*
X510861Y211874D01*
Y210626D01*
X511339Y209472D01*
X512222Y208589D01*
X513376Y208111D01*
X514624D01*
X515778Y208589D01*
X516661Y209472D01*
X517139Y210626D01*
Y211874D01*
X516661Y213028D01*
X515778Y213911D01*
X514624Y214389D01*
D02*
G37*
G36*
X111171Y218389D02*
X108829D01*
X106664Y217493D01*
X105008Y215836D01*
X104111Y213671D01*
Y211329D01*
X105008Y209164D01*
X106664Y207508D01*
X108829Y206611D01*
X111171D01*
X113336Y207508D01*
X114993Y209164D01*
X115889Y211329D01*
Y213671D01*
X114993Y215836D01*
X113336Y217493D01*
X111171Y218389D01*
D02*
G37*
G36*
X529124Y205889D02*
X527876D01*
X526722Y205411D01*
X525839Y204528D01*
X525361Y203374D01*
Y202126D01*
X525839Y200972D01*
X526722Y200089D01*
X527876Y199611D01*
X529124D01*
X530278Y200089D01*
X531161Y200972D01*
X531639Y202126D01*
Y203374D01*
X531161Y204528D01*
X530278Y205411D01*
X529124Y205889D01*
D02*
G37*
G36*
X320624Y190639D02*
X319376D01*
X318222Y190161D01*
X317743Y189682D01*
X316250Y189449D01*
X314757Y189682D01*
X314278Y190161D01*
X313124Y190639D01*
X311876D01*
X310722Y190161D01*
X309839Y189278D01*
X309361Y188124D01*
Y186876D01*
X309839Y185722D01*
X310722Y184839D01*
X311876Y184361D01*
X313124D01*
X314278Y184839D01*
X314757Y185318D01*
X316250Y185551D01*
X317743Y185318D01*
X318222Y184839D01*
X319376Y184361D01*
X320624D01*
X321778Y184839D01*
X322661Y185722D01*
X323139Y186876D01*
Y188124D01*
X322661Y189278D01*
X321778Y190161D01*
X320624Y190639D01*
D02*
G37*
G36*
X295624D02*
X294376D01*
X293222Y190161D01*
X292743Y189682D01*
X291250Y189449D01*
X289757Y189682D01*
X289278Y190161D01*
X288124Y190639D01*
X286876D01*
X285722Y190161D01*
X284839Y189278D01*
X284361Y188124D01*
Y186876D01*
X284839Y185722D01*
X285722Y184839D01*
X286876Y184361D01*
X288124D01*
X289278Y184839D01*
X289757Y185318D01*
X291250Y185551D01*
X292743Y185318D01*
X293222Y184839D01*
X294376Y184361D01*
X295624D01*
X296778Y184839D01*
X297661Y185722D01*
X298139Y186876D01*
Y188124D01*
X297661Y189278D01*
X296778Y190161D01*
X295624Y190639D01*
D02*
G37*
G36*
X270624D02*
X269376D01*
X268222Y190161D01*
X267743Y189682D01*
X266250Y189449D01*
X264757Y189682D01*
X264278Y190161D01*
X263124Y190639D01*
X261876D01*
X260722Y190161D01*
X259839Y189278D01*
X259361Y188124D01*
Y186876D01*
X259839Y185722D01*
X260722Y184839D01*
X261876Y184361D01*
X263124D01*
X264278Y184839D01*
X264757Y185318D01*
X266250Y185551D01*
X267743Y185318D01*
X268222Y184839D01*
X269376Y184361D01*
X270624D01*
X271778Y184839D01*
X272661Y185722D01*
X273139Y186876D01*
Y188124D01*
X272661Y189278D01*
X271778Y190161D01*
X270624Y190639D01*
D02*
G37*
G36*
X210624Y175889D02*
X209376D01*
X208222Y175411D01*
X207339Y174528D01*
X206861Y173374D01*
Y172126D01*
X207339Y170972D01*
X208222Y170089D01*
X209376Y169611D01*
X210624D01*
X211778Y170089D01*
X212661Y170972D01*
X213139Y172126D01*
Y173374D01*
X212661Y174528D01*
X211778Y175411D01*
X210624Y175889D01*
D02*
G37*
G36*
X188124Y175639D02*
X186876D01*
X185722Y175161D01*
X184839Y174278D01*
X184361Y173124D01*
Y171876D01*
X184839Y170722D01*
X185722Y169839D01*
X186876Y169361D01*
X188124D01*
X189278Y169839D01*
X190161Y170722D01*
X190639Y171876D01*
Y173124D01*
X190161Y174278D01*
X189278Y175161D01*
X188124Y175639D01*
D02*
G37*
G36*
X27624Y165139D02*
X26376D01*
X25222Y164661D01*
X24339Y163778D01*
X23861Y162624D01*
Y161376D01*
X24339Y160222D01*
X25222Y159339D01*
X26376Y158861D01*
X27624D01*
X28778Y159339D01*
X29661Y160222D01*
X30139Y161376D01*
Y162624D01*
X29661Y163778D01*
X28778Y164661D01*
X27624Y165139D01*
D02*
G37*
G36*
X500374Y160889D02*
X499126D01*
X497972Y160411D01*
X497089Y159528D01*
X496611Y158374D01*
Y157126D01*
X497089Y155972D01*
X497972Y155089D01*
X499126Y154611D01*
X500374D01*
X501528Y155089D01*
X502411Y155972D01*
X502889Y157126D01*
Y158374D01*
X502411Y159528D01*
X501528Y160411D01*
X500374Y160889D01*
D02*
G37*
G36*
X485874Y160389D02*
X484626D01*
X483472Y159911D01*
X482589Y159028D01*
X482111Y157874D01*
Y156626D01*
X482589Y155472D01*
X483472Y154589D01*
X484626Y154111D01*
X485874D01*
X487028Y154589D01*
X487911Y155472D01*
X488389Y156626D01*
Y157874D01*
X487911Y159028D01*
X487028Y159911D01*
X485874Y160389D01*
D02*
G37*
G36*
X232124Y149139D02*
X230876D01*
X229722Y148661D01*
X228839Y147778D01*
X228361Y146624D01*
Y145376D01*
X228839Y144222D01*
X229722Y143339D01*
X230876Y142861D01*
X232124D01*
X233278Y143339D01*
X234161Y144222D01*
X234639Y145376D01*
Y146624D01*
X234161Y147778D01*
X233278Y148661D01*
X232124Y149139D01*
D02*
G37*
G36*
X500374Y148139D02*
X499126D01*
X497972Y147661D01*
X497089Y146778D01*
X496611Y145624D01*
Y144376D01*
X497089Y143222D01*
X497972Y142339D01*
X499126Y141861D01*
X500374D01*
X501528Y142339D01*
X502411Y143222D01*
X502889Y144376D01*
Y145624D01*
X502411Y146778D01*
X501528Y147661D01*
X500374Y148139D01*
D02*
G37*
G36*
X174874Y145389D02*
X173626D01*
X172472Y144911D01*
X171589Y144028D01*
X171111Y142874D01*
Y141626D01*
X171589Y140472D01*
X172472Y139589D01*
X173626Y139111D01*
X174874D01*
X176028Y139589D01*
X176911Y140472D01*
X177389Y141626D01*
Y142874D01*
X176911Y144028D01*
X176028Y144911D01*
X174874Y145389D01*
D02*
G37*
G36*
X27624Y143139D02*
X26376D01*
X25222Y142661D01*
X24339Y141778D01*
X23861Y140624D01*
Y139376D01*
X24339Y138222D01*
X25222Y137339D01*
X26376Y136861D01*
X27624D01*
X28778Y137339D01*
X29661Y138222D01*
X30139Y139376D01*
Y140624D01*
X29661Y141778D01*
X28778Y142661D01*
X27624Y143139D01*
D02*
G37*
G36*
X276874Y142889D02*
X275626D01*
X274472Y142411D01*
X273589Y141528D01*
X273111Y140374D01*
Y139126D01*
X273589Y137972D01*
X274472Y137089D01*
X275626Y136611D01*
X276874D01*
X278028Y137089D01*
X278911Y137972D01*
X279389Y139126D01*
Y140374D01*
X278911Y141528D01*
X278028Y142411D01*
X276874Y142889D01*
D02*
G37*
G36*
X253124Y141889D02*
X251876D01*
X250722Y141411D01*
X249839Y140528D01*
X249361Y139374D01*
Y138126D01*
X249839Y136972D01*
X250722Y136089D01*
X251876Y135611D01*
X253124D01*
X254278Y136089D01*
X255161Y136972D01*
X255639Y138126D01*
Y139374D01*
X255161Y140528D01*
X254278Y141411D01*
X253124Y141889D01*
D02*
G37*
G36*
X238124Y133139D02*
X236876D01*
X235722Y132661D01*
X234839Y131778D01*
X234361Y130624D01*
Y129376D01*
X234839Y128222D01*
X235722Y127339D01*
X236876Y126861D01*
X238124D01*
X239278Y127339D01*
X240161Y128222D01*
X240639Y129376D01*
Y130624D01*
X240161Y131778D01*
X239278Y132661D01*
X238124Y133139D01*
D02*
G37*
G36*
X214374Y132639D02*
X213126D01*
X211972Y132161D01*
X211089Y131278D01*
X210611Y130124D01*
Y128876D01*
X211089Y127722D01*
X211972Y126839D01*
X213126Y126361D01*
X214374D01*
X215528Y126839D01*
X216411Y127722D01*
X216889Y128876D01*
Y130124D01*
X216411Y131278D01*
X215528Y132161D01*
X214374Y132639D01*
D02*
G37*
G36*
X165424Y132889D02*
X164076D01*
X162830Y132373D01*
X161877Y131420D01*
X161361Y130174D01*
Y128826D01*
X161877Y127580D01*
X162830Y126627D01*
X164076Y126111D01*
X165424D01*
X166670Y126627D01*
X167623Y127580D01*
X168139Y128826D01*
Y130174D01*
X167623Y131420D01*
X166670Y132373D01*
X165424Y132889D01*
D02*
G37*
G36*
X143374Y126139D02*
X142126D01*
X140972Y125661D01*
X140089Y124778D01*
X139611Y123624D01*
Y122376D01*
X140089Y121222D01*
X140972Y120339D01*
X142126Y119861D01*
X143374D01*
X144528Y120339D01*
X145411Y121222D01*
X145889Y122376D01*
Y123624D01*
X145411Y124778D01*
X144528Y125661D01*
X143374Y126139D01*
D02*
G37*
G36*
X220124Y123139D02*
X218876D01*
X217722Y122661D01*
X216839Y121778D01*
X216361Y120624D01*
Y119376D01*
X216839Y118222D01*
X217722Y117339D01*
X218876Y116861D01*
X220124D01*
X221278Y117339D01*
X222161Y118222D01*
X222639Y119376D01*
Y120624D01*
X222161Y121778D01*
X221278Y122661D01*
X220124Y123139D01*
D02*
G37*
G36*
X208624D02*
X207376D01*
X206222Y122661D01*
X205339Y121778D01*
X204861Y120624D01*
Y119376D01*
X205339Y118222D01*
X206222Y117339D01*
X207376Y116861D01*
X208624D01*
X209778Y117339D01*
X210661Y118222D01*
X211139Y119376D01*
Y120624D01*
X210661Y121778D01*
X209778Y122661D01*
X208624Y123139D01*
D02*
G37*
G36*
X171174Y123389D02*
X169826D01*
X168580Y122873D01*
X167627Y121920D01*
X167111Y120674D01*
Y119326D01*
X167627Y118080D01*
X168580Y117127D01*
X169826Y116611D01*
X171174D01*
X172420Y117127D01*
X173373Y118080D01*
X173889Y119326D01*
Y120674D01*
X173373Y121920D01*
X172420Y122873D01*
X171174Y123389D01*
D02*
G37*
G36*
X159674D02*
X158326D01*
X157080Y122873D01*
X156127Y121920D01*
X155611Y120674D01*
Y119326D01*
X156127Y118080D01*
X157080Y117127D01*
X158326Y116611D01*
X159674D01*
X160920Y117127D01*
X161873Y118080D01*
X162389Y119326D01*
Y120674D01*
X161873Y121920D01*
X160920Y122873D01*
X159674Y123389D01*
D02*
G37*
G36*
X27624Y116139D02*
X26376D01*
X25222Y115661D01*
X24339Y114778D01*
X23861Y113624D01*
Y112376D01*
X24339Y111222D01*
X25222Y110339D01*
X26376Y109861D01*
X27624D01*
X28778Y110339D01*
X29661Y111222D01*
X30139Y112376D01*
Y113624D01*
X29661Y114778D01*
X28778Y115661D01*
X27624Y116139D01*
D02*
G37*
G36*
X92259Y114317D02*
X91010D01*
X89856Y113839D01*
X88973Y112956D01*
X88495Y111802D01*
Y110553D01*
X88973Y109400D01*
X89856Y108517D01*
X91010Y108039D01*
X92259D01*
X93413Y108517D01*
X94296Y109400D01*
X94773Y110553D01*
Y111802D01*
X94296Y112956D01*
X93413Y113839D01*
X92259Y114317D01*
D02*
G37*
G36*
X214374Y113639D02*
X213126D01*
X211972Y113161D01*
X211089Y112278D01*
X210611Y111124D01*
Y109876D01*
X211089Y108722D01*
X211972Y107839D01*
X213126Y107361D01*
X214374D01*
X215528Y107839D01*
X216411Y108722D01*
X216889Y109876D01*
Y111124D01*
X216411Y112278D01*
X215528Y113161D01*
X214374Y113639D01*
D02*
G37*
G36*
X165424Y113889D02*
X164076D01*
X162830Y113373D01*
X161877Y112420D01*
X161361Y111174D01*
Y109826D01*
X161877Y108580D01*
X162830Y107627D01*
X164076Y107111D01*
X165424D01*
X166670Y107627D01*
X167623Y108580D01*
X168139Y109826D01*
Y111174D01*
X167623Y112420D01*
X166670Y113373D01*
X165424Y113889D01*
D02*
G37*
G36*
X186874Y119889D02*
X185626D01*
X184472Y119411D01*
X183589Y118528D01*
X183111Y117374D01*
Y116126D01*
X183589Y114972D01*
X184472Y114089D01*
X184511Y114073D01*
X184722Y111411D01*
X183839Y110528D01*
X183361Y109374D01*
Y108126D01*
X183839Y106972D01*
X184722Y106089D01*
X185876Y105611D01*
X187124D01*
X188278Y106089D01*
X189161Y106972D01*
X189639Y108126D01*
Y109374D01*
X189161Y110528D01*
X188278Y111411D01*
X188239Y111427D01*
X188028Y114089D01*
X188911Y114972D01*
X189389Y116126D01*
Y117374D01*
X188911Y118528D01*
X188028Y119411D01*
X186874Y119889D01*
D02*
G37*
G36*
X939124Y404139D02*
X937876D01*
X936722Y403661D01*
X935839Y402778D01*
X935361Y401624D01*
Y400376D01*
X935839Y399222D01*
X936722Y398339D01*
X937876Y397861D01*
X939124D01*
X940278Y398339D01*
X941161Y399222D01*
X941639Y400376D01*
Y401624D01*
X941161Y402778D01*
X940278Y403661D01*
X939124Y404139D01*
D02*
G37*
G36*
X885874Y403889D02*
X884626D01*
X883472Y403411D01*
X882589Y402528D01*
X882111Y401374D01*
Y400126D01*
X882589Y398972D01*
X883472Y398089D01*
X884626Y397611D01*
X885874D01*
X887028Y398089D01*
X887911Y398972D01*
X888389Y400126D01*
Y401374D01*
X887911Y402528D01*
X887028Y403411D01*
X885874Y403889D01*
D02*
G37*
G36*
X826374Y403389D02*
X825126D01*
X823972Y402911D01*
X823089Y402028D01*
X822611Y400874D01*
Y399626D01*
X823089Y398472D01*
X823972Y397589D01*
X825126Y397111D01*
X826374D01*
X827528Y397589D01*
X828411Y398472D01*
X828889Y399626D01*
Y400874D01*
X828411Y402028D01*
X827528Y402911D01*
X826374Y403389D01*
D02*
G37*
G36*
X765124Y403139D02*
X763876D01*
X762722Y402661D01*
X761839Y401778D01*
X761361Y400624D01*
Y399376D01*
X761839Y398222D01*
X762722Y397339D01*
X763876Y396861D01*
X765124D01*
X766278Y397339D01*
X767161Y398222D01*
X767639Y399376D01*
Y400624D01*
X767161Y401778D01*
X766278Y402661D01*
X765124Y403139D01*
D02*
G37*
G36*
X705124D02*
X703876D01*
X702722Y402661D01*
X701839Y401778D01*
X701361Y400624D01*
Y399376D01*
X701839Y398222D01*
X702722Y397339D01*
X703876Y396861D01*
X705124D01*
X706278Y397339D01*
X707161Y398222D01*
X707639Y399376D01*
Y400624D01*
X707161Y401778D01*
X706278Y402661D01*
X705124Y403139D01*
D02*
G37*
G36*
X651624D02*
X650376D01*
X649222Y402661D01*
X648339Y401778D01*
X647861Y400624D01*
Y399376D01*
X648339Y398222D01*
X649222Y397339D01*
X650376Y396861D01*
X651624D01*
X652778Y397339D01*
X653661Y398222D01*
X654139Y399376D01*
Y400624D01*
X653661Y401778D01*
X652778Y402661D01*
X651624Y403139D01*
D02*
G37*
G36*
X946624Y396639D02*
X945376D01*
X944222Y396161D01*
X943339Y395278D01*
X942861Y394124D01*
Y392876D01*
X943339Y391722D01*
X944222Y390839D01*
X945376Y390361D01*
X946624D01*
X947778Y390839D01*
X948661Y391722D01*
X949139Y392876D01*
Y394124D01*
X948661Y395278D01*
X947778Y396161D01*
X946624Y396639D01*
D02*
G37*
G36*
X645374Y394889D02*
X644126D01*
X642972Y394411D01*
X642089Y393528D01*
X641611Y392374D01*
Y391126D01*
X642089Y389972D01*
X642972Y389089D01*
X644126Y388611D01*
X645374D01*
X646528Y389089D01*
X647411Y389972D01*
X647889Y391126D01*
Y392374D01*
X647411Y393528D01*
X646528Y394411D01*
X645374Y394889D01*
D02*
G37*
G36*
X906624Y392139D02*
X905376D01*
X904222Y391661D01*
X903339Y390778D01*
X902861Y389624D01*
Y388376D01*
X903339Y387222D01*
X904222Y386339D01*
X905376Y385861D01*
X906624D01*
X907778Y386339D01*
X908661Y387222D01*
X909139Y388376D01*
Y389624D01*
X908661Y390778D01*
X907778Y391661D01*
X906624Y392139D01*
D02*
G37*
G36*
X836874Y380889D02*
X835626D01*
X834472Y380411D01*
X833589Y379528D01*
X833111Y378374D01*
Y377126D01*
X833589Y375972D01*
X834472Y375089D01*
X835626Y374611D01*
X836874D01*
X838028Y375089D01*
X838911Y375972D01*
X839389Y377126D01*
Y378374D01*
X838911Y379528D01*
X838028Y380411D01*
X836874Y380889D01*
D02*
G37*
G36*
X906624Y380639D02*
X905376D01*
X904222Y380161D01*
X903339Y379278D01*
X902861Y378124D01*
Y376876D01*
X903339Y375722D01*
X904222Y374839D01*
X905376Y374361D01*
X906624D01*
X907778Y374839D01*
X908661Y375722D01*
X909139Y376876D01*
Y378124D01*
X908661Y379278D01*
X907778Y380161D01*
X906624Y380639D01*
D02*
G37*
G36*
X917124Y380139D02*
X915876D01*
X914722Y379661D01*
X913839Y378778D01*
X913361Y377624D01*
Y376376D01*
X913839Y375222D01*
X914722Y374339D01*
X915876Y373861D01*
X917124D01*
X918278Y374339D01*
X919161Y375222D01*
X919639Y376376D01*
Y377624D01*
X919161Y378778D01*
X918278Y379661D01*
X917124Y380139D01*
D02*
G37*
G36*
X709265Y357127D02*
X708016D01*
X706862Y356649D01*
X705979Y355766D01*
X705501Y354612D01*
Y353364D01*
X705979Y352210D01*
X706862Y351327D01*
X708016Y350849D01*
X709265D01*
X710419Y351327D01*
X711302Y352210D01*
X711779Y353364D01*
Y354612D01*
X711302Y355766D01*
X710419Y356649D01*
X709265Y357127D01*
D02*
G37*
G36*
X782374Y355639D02*
X781126D01*
X779972Y355161D01*
X779089Y354278D01*
X778611Y353124D01*
Y351876D01*
X779089Y350722D01*
X779972Y349839D01*
X781126Y349361D01*
X782374D01*
X783528Y349839D01*
X784411Y350722D01*
X784889Y351876D01*
Y353124D01*
X784411Y354278D01*
X783528Y355161D01*
X782374Y355639D01*
D02*
G37*
G36*
X945624Y342639D02*
X944376D01*
X943222Y342161D01*
X942339Y341278D01*
X941861Y340124D01*
Y338876D01*
X942339Y337722D01*
X943222Y336839D01*
X944376Y336361D01*
X945624D01*
X946778Y336839D01*
X947661Y337722D01*
X948139Y338876D01*
Y340124D01*
X947661Y341278D01*
X946778Y342161D01*
X945624Y342639D01*
D02*
G37*
G36*
X645374D02*
X644126D01*
X642972Y342161D01*
X642089Y341278D01*
X641611Y340124D01*
Y338876D01*
X642089Y337722D01*
X642972Y336839D01*
X644126Y336361D01*
X645374D01*
X646528Y336839D01*
X647411Y337722D01*
X647889Y338876D01*
Y340124D01*
X647411Y341278D01*
X646528Y342161D01*
X645374Y342639D01*
D02*
G37*
G36*
X699124Y338889D02*
X697876D01*
X696722Y338411D01*
X695839Y337528D01*
X695361Y336374D01*
Y335126D01*
X695839Y333972D01*
X696722Y333089D01*
X697876Y332611D01*
X699124D01*
X700278Y333089D01*
X701161Y333972D01*
X701639Y335126D01*
Y336374D01*
X701161Y337528D01*
X700278Y338411D01*
X699124Y338889D01*
D02*
G37*
G36*
X875624Y335389D02*
X874376D01*
X873222Y334911D01*
X872339Y334028D01*
X871861Y332874D01*
Y331626D01*
X872339Y330472D01*
X873222Y329589D01*
X874376Y329111D01*
X875624D01*
X876778Y329589D01*
X877661Y330472D01*
X878139Y331626D01*
Y332874D01*
X877661Y334028D01*
X876778Y334911D01*
X875624Y335389D01*
D02*
G37*
G36*
X687124Y334639D02*
X685876D01*
X684722Y334161D01*
X683839Y333278D01*
X683361Y332124D01*
Y330876D01*
X683839Y329722D01*
X684722Y328839D01*
X685876Y328361D01*
X687124D01*
X688278Y328839D01*
X689161Y329722D01*
X689639Y330876D01*
Y332124D01*
X689161Y333278D01*
X688278Y334161D01*
X687124Y334639D01*
D02*
G37*
G36*
X708874Y329889D02*
X707626D01*
X706472Y329411D01*
X705589Y328528D01*
X705111Y327374D01*
Y326126D01*
X705589Y324972D01*
X706472Y324089D01*
X707626Y323611D01*
X708874D01*
X710028Y324089D01*
X710911Y324972D01*
X711389Y326126D01*
Y327374D01*
X710911Y328528D01*
X710028Y329411D01*
X708874Y329889D01*
D02*
G37*
G36*
X740874Y329389D02*
X739626D01*
X738472Y328911D01*
X737589Y328028D01*
X737111Y326874D01*
Y325626D01*
X737589Y324472D01*
X738472Y323589D01*
X739626Y323111D01*
X740874D01*
X742028Y323589D01*
X742911Y324472D01*
X743389Y325626D01*
Y326874D01*
X742911Y328028D01*
X742028Y328911D01*
X740874Y329389D01*
D02*
G37*
G36*
X663078Y321889D02*
X661829D01*
X660676Y321411D01*
X659793Y320528D01*
X659315Y319374D01*
Y318126D01*
X659793Y316972D01*
X660676Y316089D01*
X661829Y315611D01*
X663078D01*
X664232Y316089D01*
X665115Y316972D01*
X665593Y318126D01*
Y319374D01*
X665115Y320528D01*
X664232Y321411D01*
X663078Y321889D01*
D02*
G37*
G36*
X901124Y314389D02*
X899876D01*
X898722Y313911D01*
X897839Y313028D01*
X897361Y311874D01*
Y310626D01*
X897839Y309472D01*
X898722Y308589D01*
X899876Y308111D01*
X901124D01*
X902278Y308589D01*
X903161Y309472D01*
X903639Y310626D01*
Y311874D01*
X903161Y313028D01*
X902278Y313911D01*
X901124Y314389D01*
D02*
G37*
G36*
X645124Y304139D02*
X643876D01*
X642722Y303661D01*
X641839Y302778D01*
X641361Y301624D01*
Y300376D01*
X641839Y299222D01*
X642722Y298339D01*
X643876Y297861D01*
X645124D01*
X646278Y298339D01*
X647161Y299222D01*
X647639Y300376D01*
Y301624D01*
X647161Y302778D01*
X646278Y303661D01*
X645124Y304139D01*
D02*
G37*
G36*
X655374Y302389D02*
X654126D01*
X652972Y301911D01*
X652089Y301028D01*
X651611Y299874D01*
Y298626D01*
X652089Y297472D01*
X652972Y296589D01*
X654126Y296111D01*
X655374D01*
X656528Y296589D01*
X657411Y297472D01*
X657889Y298626D01*
Y299874D01*
X657411Y301028D01*
X656528Y301911D01*
X655374Y302389D01*
D02*
G37*
G36*
X732124Y296389D02*
X730876D01*
X729722Y295911D01*
X728839Y295028D01*
X728361Y293874D01*
Y292626D01*
X728839Y291472D01*
X729722Y290589D01*
X730876Y290111D01*
X732124D01*
X733278Y290589D01*
X734161Y291472D01*
X734639Y292626D01*
Y293874D01*
X734161Y295028D01*
X733278Y295911D01*
X732124Y296389D01*
D02*
G37*
G36*
X901374Y289389D02*
X900126D01*
X898972Y288911D01*
X898089Y288028D01*
X897611Y286874D01*
Y285626D01*
X898089Y284472D01*
X898972Y283589D01*
X900126Y283111D01*
X901374D01*
X902528Y283589D01*
X903411Y284472D01*
X903889Y285626D01*
Y286874D01*
X903411Y288028D01*
X902528Y288911D01*
X901374Y289389D01*
D02*
G37*
G36*
X662624Y288639D02*
X661376D01*
X660222Y288161D01*
X659339Y287278D01*
X658861Y286124D01*
Y284876D01*
X659339Y283722D01*
X660222Y282839D01*
X661376Y282361D01*
X662624D01*
X663778Y282839D01*
X664661Y283722D01*
X665139Y284876D01*
Y286124D01*
X664661Y287278D01*
X663778Y288161D01*
X662624Y288639D01*
D02*
G37*
G36*
X644874Y284639D02*
X643626D01*
X642472Y284161D01*
X641589Y283278D01*
X641111Y282124D01*
Y280876D01*
X641589Y279722D01*
X642472Y278839D01*
X643626Y278361D01*
X644874D01*
X646028Y278839D01*
X646911Y279722D01*
X647389Y280876D01*
Y282124D01*
X646911Y283278D01*
X646028Y284161D01*
X644874Y284639D01*
D02*
G37*
G36*
X945624Y283139D02*
X944376D01*
X943222Y282661D01*
X942339Y281778D01*
X941861Y280624D01*
Y279376D01*
X942339Y278222D01*
X943222Y277339D01*
X944376Y276861D01*
X945624D01*
X946778Y277339D01*
X947661Y278222D01*
X948139Y279376D01*
Y280624D01*
X947661Y281778D01*
X946778Y282661D01*
X945624Y283139D01*
D02*
G37*
G36*
X717874Y281639D02*
X716626D01*
X715472Y281161D01*
X714589Y280278D01*
X714111Y279124D01*
Y277876D01*
X714589Y276722D01*
X715472Y275839D01*
X716626Y275361D01*
X717874D01*
X719028Y275839D01*
X719911Y276722D01*
X720389Y277876D01*
Y279124D01*
X719911Y280278D01*
X719028Y281161D01*
X717874Y281639D01*
D02*
G37*
G36*
X788736Y277948D02*
X787488D01*
X786334Y277470D01*
X785451Y276587D01*
X784973Y275433D01*
Y274184D01*
X785451Y273031D01*
X786334Y272148D01*
X787488Y271670D01*
X788736D01*
X789890Y272148D01*
X790773Y273031D01*
X791251Y274184D01*
Y275433D01*
X790773Y276587D01*
X789890Y277470D01*
X788736Y277948D01*
D02*
G37*
G36*
X754124Y274639D02*
X752876D01*
X751722Y274161D01*
X750839Y273278D01*
X750361Y272124D01*
Y270876D01*
X750839Y269722D01*
X751722Y268839D01*
X752876Y268361D01*
X754124D01*
X755278Y268839D01*
X756161Y269722D01*
X756428Y270367D01*
X757472Y270478D01*
X758960Y270327D01*
X759065Y270134D01*
X759186Y269841D01*
X759339Y269472D01*
X760222Y268589D01*
X761376Y268111D01*
X762624D01*
X763778Y268589D01*
X764661Y269472D01*
X765139Y270626D01*
Y271874D01*
X764661Y273028D01*
X763778Y273911D01*
X762624Y274389D01*
X761376D01*
X760222Y273911D01*
X759339Y273028D01*
X759072Y272383D01*
X758028Y272272D01*
X756540Y272423D01*
X756435Y272616D01*
X756314Y272909D01*
X756161Y273278D01*
X755278Y274161D01*
X754124Y274639D01*
D02*
G37*
G36*
X735348Y274564D02*
X734099D01*
X732945Y274086D01*
X732062Y273203D01*
X731584Y272049D01*
Y270801D01*
X732062Y269647D01*
X732945Y268764D01*
X734099Y268286D01*
X735348D01*
X736501Y268764D01*
X737384Y269647D01*
X737514Y269961D01*
X740200Y269807D01*
X740339Y269472D01*
X741222Y268589D01*
X742376Y268111D01*
X743624D01*
X744778Y268589D01*
X745661Y269472D01*
X746139Y270626D01*
Y271874D01*
X745661Y273028D01*
X744778Y273911D01*
X743624Y274389D01*
X742376D01*
X741222Y273911D01*
X740339Y273028D01*
X740209Y272714D01*
X737523Y272868D01*
X737384Y273203D01*
X736501Y274086D01*
X735348Y274564D01*
D02*
G37*
G36*
X782019Y271230D02*
X780770D01*
X779616Y270752D01*
X778734Y269869D01*
X778256Y268715D01*
Y267467D01*
X778734Y266313D01*
X779616Y265430D01*
X780770Y264952D01*
X782019D01*
X783173Y265430D01*
X784056Y266313D01*
X784534Y267467D01*
Y268715D01*
X784056Y269869D01*
X783173Y270752D01*
X782019Y271230D01*
D02*
G37*
G36*
X726662Y270715D02*
X725413D01*
X724260Y270237D01*
X723377Y269354D01*
X722899Y268201D01*
Y266952D01*
X723377Y265798D01*
X724260Y264915D01*
X725413Y264437D01*
X726662D01*
X727816Y264915D01*
X728699Y265798D01*
X729177Y266952D01*
Y268201D01*
X728699Y269354D01*
X727816Y270237D01*
X726662Y270715D01*
D02*
G37*
G36*
X705638Y267573D02*
X704389D01*
X703235Y267095D01*
X702352Y266212D01*
X701874Y265058D01*
Y263810D01*
X702352Y262656D01*
X703235Y261773D01*
X704389Y261295D01*
X705638D01*
X706791Y261773D01*
X707674Y262656D01*
X708152Y263810D01*
Y265058D01*
X707674Y266212D01*
X706791Y267095D01*
X705638Y267573D01*
D02*
G37*
G36*
X892124Y264639D02*
X890876D01*
X889722Y264161D01*
X888839Y263278D01*
X888361Y262124D01*
Y260876D01*
X888839Y259722D01*
X889722Y258839D01*
X890876Y258361D01*
X892124D01*
X893278Y258839D01*
X894161Y259722D01*
X894639Y260876D01*
Y262124D01*
X894161Y263278D01*
X893278Y264161D01*
X892124Y264639D01*
D02*
G37*
G36*
X705638Y258073D02*
X704389D01*
X703235Y257595D01*
X702352Y256712D01*
X701874Y255558D01*
Y254310D01*
X702352Y253156D01*
X703235Y252273D01*
X704389Y251795D01*
X705638D01*
X706791Y252273D01*
X707674Y253156D01*
X708152Y254310D01*
Y255558D01*
X707674Y256712D01*
X706791Y257595D01*
X705638Y258073D01*
D02*
G37*
G36*
X732140Y255471D02*
X730891D01*
X729737Y254993D01*
X728854Y254110D01*
X728376Y252956D01*
Y251707D01*
X728854Y250554D01*
X729737Y249671D01*
X730891Y249193D01*
X732140D01*
X733294Y249671D01*
X734176Y250554D01*
X734654Y251707D01*
Y252956D01*
X734176Y254110D01*
X733294Y254993D01*
X732140Y255471D01*
D02*
G37*
G36*
X741556Y254214D02*
X740307D01*
X739154Y253736D01*
X738271Y252853D01*
X737793Y251699D01*
Y250451D01*
X738271Y249297D01*
X739154Y248414D01*
X740307Y247936D01*
X741556D01*
X742710Y248414D01*
X743593Y249297D01*
X744071Y250451D01*
Y251699D01*
X743593Y252853D01*
X742710Y253736D01*
X741556Y254214D01*
D02*
G37*
G36*
X723583Y251344D02*
X722334D01*
X721180Y250866D01*
X720297Y249983D01*
X719819Y248830D01*
Y247581D01*
X720297Y246427D01*
X721180Y245544D01*
X722334Y245066D01*
X723583D01*
X724737Y245544D01*
X725620Y246427D01*
X726097Y247581D01*
Y248830D01*
X725620Y249983D01*
X724737Y250866D01*
X723583Y251344D01*
D02*
G37*
G36*
X705149Y248585D02*
X703900D01*
X702746Y248108D01*
X701863Y247225D01*
X701385Y246071D01*
Y244822D01*
X701863Y243668D01*
X702746Y242785D01*
X703900Y242307D01*
X705149D01*
X706303Y242785D01*
X707186Y243668D01*
X707663Y244822D01*
Y246071D01*
X707186Y247225D01*
X706303Y248108D01*
X705149Y248585D01*
D02*
G37*
G36*
X748767Y248029D02*
X747518D01*
X746365Y247551D01*
X745482Y246668D01*
X745004Y245515D01*
Y244266D01*
X745482Y243112D01*
X746365Y242229D01*
X747518Y241751D01*
X748767D01*
X749921Y242229D01*
X750804Y243112D01*
X751282Y244266D01*
Y245515D01*
X750804Y246668D01*
X749921Y247551D01*
X748767Y248029D01*
D02*
G37*
G36*
X724052Y241856D02*
X722803D01*
X721649Y241378D01*
X720766Y240495D01*
X720288Y239341D01*
Y238092D01*
X720766Y236939D01*
X721649Y236056D01*
X722803Y235578D01*
X724052D01*
X725206Y236056D01*
X726088Y236939D01*
X726566Y238092D01*
Y239341D01*
X726088Y240495D01*
X725206Y241378D01*
X724052Y241856D01*
D02*
G37*
G36*
X748491Y238533D02*
X747242D01*
X746088Y238055D01*
X745205Y237172D01*
X744727Y236019D01*
Y234770D01*
X745205Y233616D01*
X746088Y232733D01*
X747242Y232255D01*
X748491D01*
X749644Y232733D01*
X750527Y233616D01*
X751005Y234770D01*
Y236019D01*
X750527Y237172D01*
X749644Y238055D01*
X748491Y238533D01*
D02*
G37*
G36*
X723617Y232366D02*
X722369D01*
X721215Y231888D01*
X720332Y231005D01*
X719854Y229851D01*
Y228602D01*
X720332Y227449D01*
X721215Y226566D01*
X722369Y226088D01*
X723617D01*
X724771Y226566D01*
X725654Y227449D01*
X726132Y228602D01*
Y229851D01*
X725654Y231005D01*
X724771Y231888D01*
X723617Y232366D01*
D02*
G37*
G36*
X705109Y230219D02*
X703861D01*
X702707Y229741D01*
X701824Y228858D01*
X701346Y227704D01*
Y226455D01*
X701824Y225302D01*
X702707Y224419D01*
X703861Y223941D01*
X705109D01*
X706263Y224419D01*
X707146Y225302D01*
X707624Y226455D01*
Y227704D01*
X707146Y228858D01*
X706263Y229741D01*
X705109Y230219D01*
D02*
G37*
G36*
X714578Y229445D02*
X713329D01*
X712175Y228967D01*
X711292Y228084D01*
X710814Y226930D01*
Y225681D01*
X711292Y224527D01*
X712175Y223644D01*
X713329Y223167D01*
X714578D01*
X715732Y223644D01*
X716615Y224527D01*
X717092Y225681D01*
Y226930D01*
X716615Y228084D01*
X715732Y228967D01*
X714578Y229445D01*
D02*
G37*
G36*
X748491Y229033D02*
X747242D01*
X746088Y228555D01*
X745205Y227672D01*
X744727Y226519D01*
Y225270D01*
X745205Y224116D01*
X746088Y223233D01*
X747242Y222755D01*
X748491D01*
X749644Y223233D01*
X750527Y224116D01*
X751005Y225270D01*
Y226519D01*
X750527Y227672D01*
X749644Y228555D01*
X748491Y229033D01*
D02*
G37*
G36*
X645874Y223389D02*
X644626D01*
X643472Y222911D01*
X642589Y222028D01*
X642111Y220874D01*
Y219626D01*
X642589Y218472D01*
X643472Y217589D01*
X644626Y217111D01*
X645874D01*
X647028Y217589D01*
X647911Y218472D01*
X648389Y219626D01*
Y220874D01*
X647911Y222028D01*
X647028Y222911D01*
X645874Y223389D01*
D02*
G37*
G36*
X946124Y222889D02*
X944876D01*
X943722Y222411D01*
X942839Y221528D01*
X942361Y220374D01*
Y219126D01*
X942839Y217972D01*
X943722Y217089D01*
X944876Y216611D01*
X946124D01*
X947278Y217089D01*
X948161Y217972D01*
X948639Y219126D01*
Y220374D01*
X948161Y221528D01*
X947278Y222411D01*
X946124Y222889D01*
D02*
G37*
G36*
X845997Y220833D02*
X844748D01*
X843595Y220356D01*
X842712Y219473D01*
X842234Y218319D01*
Y217070D01*
X842712Y215916D01*
X843595Y215033D01*
X844748Y214555D01*
X845997D01*
X847151Y215033D01*
X848034Y215916D01*
X848512Y217070D01*
Y218319D01*
X848034Y219473D01*
X847151Y220356D01*
X845997Y220833D01*
D02*
G37*
G36*
X836497Y220820D02*
X835248D01*
X834095Y220342D01*
X833212Y219459D01*
X832734Y218306D01*
Y217057D01*
X833212Y215903D01*
X834095Y215020D01*
X835248Y214542D01*
X836497D01*
X837651Y215020D01*
X838534Y215903D01*
X839012Y217057D01*
Y218306D01*
X838534Y219459D01*
X837651Y220342D01*
X836497Y220820D01*
D02*
G37*
G36*
X744048Y220636D02*
X742799D01*
X741646Y220158D01*
X740763Y219275D01*
X740285Y218121D01*
Y216873D01*
X740763Y215719D01*
X741646Y214836D01*
X742799Y214358D01*
X744048D01*
X745202Y214836D01*
X746085Y215719D01*
X746563Y216873D01*
Y218121D01*
X746085Y219275D01*
X745202Y220158D01*
X744048Y220636D01*
D02*
G37*
G36*
X827374Y225889D02*
X826126D01*
X824972Y225411D01*
X824089Y224528D01*
X823611Y223374D01*
Y222126D01*
X824089Y220972D01*
X824972Y220089D01*
Y217411D01*
X824089Y216528D01*
X823611Y215374D01*
Y214126D01*
X824089Y212972D01*
X824972Y212089D01*
X826126Y211611D01*
X827374D01*
X828528Y212089D01*
X829411Y212972D01*
X829889Y214126D01*
Y215374D01*
X829411Y216528D01*
X828528Y217411D01*
Y220089D01*
X829411Y220972D01*
X829889Y222126D01*
Y223374D01*
X829411Y224528D01*
X828528Y225411D01*
X827374Y225889D01*
D02*
G37*
G36*
X851569Y213139D02*
X850320D01*
X849166Y212661D01*
X848283Y211778D01*
X847805Y210624D01*
Y209376D01*
X848283Y208222D01*
X849166Y207339D01*
X850320Y206861D01*
X851569D01*
X852723Y207339D01*
X853606Y208222D01*
X854083Y209376D01*
Y210624D01*
X853606Y211778D01*
X852723Y212661D01*
X851569Y213139D01*
D02*
G37*
G36*
X734012Y212523D02*
X732764D01*
X731610Y212045D01*
X730727Y211162D01*
X730249Y210008D01*
Y208759D01*
X730727Y207606D01*
X731610Y206723D01*
X732764Y206245D01*
X734012D01*
X735166Y206723D01*
X736049Y207606D01*
X736527Y208759D01*
Y210008D01*
X736049Y211162D01*
X735166Y212045D01*
X734012Y212523D01*
D02*
G37*
G36*
X724124Y211639D02*
X722876D01*
X721722Y211161D01*
X720839Y210278D01*
X720361Y209124D01*
Y207876D01*
X720839Y206722D01*
X721722Y205839D01*
X722876Y205361D01*
X724124D01*
X725278Y205839D01*
X726161Y206722D01*
X726639Y207876D01*
Y209124D01*
X726161Y210278D01*
X725278Y211161D01*
X724124Y211639D01*
D02*
G37*
G36*
X743414Y211157D02*
X742165D01*
X741011Y210679D01*
X740128Y209796D01*
X739650Y208643D01*
Y207394D01*
X740128Y206240D01*
X741011Y205357D01*
X742165Y204879D01*
X743414D01*
X744567Y205357D01*
X745450Y206240D01*
X745928Y207394D01*
Y208643D01*
X745450Y209796D01*
X744567Y210679D01*
X743414Y211157D01*
D02*
G37*
G36*
X851425Y203640D02*
X850176D01*
X849023Y203162D01*
X848140Y202279D01*
X847662Y201125D01*
Y199877D01*
X848140Y198723D01*
X849023Y197840D01*
X850176Y197362D01*
X851425D01*
X852579Y197840D01*
X853462Y198723D01*
X853940Y199877D01*
Y201125D01*
X853462Y202279D01*
X852579Y203162D01*
X851425Y203640D01*
D02*
G37*
G36*
X722741Y202048D02*
X721492D01*
X720338Y201570D01*
X719455Y200687D01*
X718977Y199533D01*
Y198284D01*
X719455Y197131D01*
X720338Y196248D01*
X721492Y195770D01*
X722741D01*
X723894Y196248D01*
X724777Y197131D01*
X725255Y198284D01*
Y199533D01*
X724777Y200687D01*
X723894Y201570D01*
X722741Y202048D01*
D02*
G37*
G36*
X830374Y201389D02*
X829126D01*
X827972Y200911D01*
X827089Y200028D01*
X826611Y198874D01*
Y197626D01*
X827089Y196472D01*
X827972Y195589D01*
X829126Y195111D01*
X830374D01*
X831528Y195589D01*
X832411Y196472D01*
X832889Y197626D01*
Y198874D01*
X832411Y200028D01*
X831528Y200911D01*
X830374Y201389D01*
D02*
G37*
G36*
X722741Y192548D02*
X721492D01*
X720338Y192070D01*
X719455Y191187D01*
X718977Y190033D01*
Y188785D01*
X719455Y187631D01*
X720338Y186748D01*
X721492Y186270D01*
X722741D01*
X723894Y186748D01*
X724777Y187631D01*
X725255Y188785D01*
Y190033D01*
X724777Y191187D01*
X723894Y192070D01*
X722741Y192548D01*
D02*
G37*
G36*
X830624Y189639D02*
X829376D01*
X828222Y189161D01*
X827339Y188278D01*
X826861Y187124D01*
Y185876D01*
X827339Y184722D01*
X828222Y183839D01*
X829376Y183361D01*
X830624D01*
X831778Y183839D01*
X832661Y184722D01*
X833139Y185876D01*
Y187124D01*
X832661Y188278D01*
X831778Y189161D01*
X830624Y189639D01*
D02*
G37*
G36*
X781624D02*
X780376D01*
X779222Y189161D01*
X778339Y188278D01*
X777861Y187124D01*
Y185876D01*
X778339Y184722D01*
X779222Y183839D01*
X780376Y183361D01*
X781624D01*
X782778Y183839D01*
X783661Y184722D01*
X784139Y185876D01*
Y187124D01*
X783661Y188278D01*
X782778Y189161D01*
X781624Y189639D01*
D02*
G37*
G36*
X811976Y189563D02*
X810727D01*
X809574Y189085D01*
X808691Y188202D01*
X808213Y187048D01*
Y185799D01*
X808691Y184646D01*
X809574Y183763D01*
X810727Y183285D01*
X811976D01*
X813130Y183763D01*
X814013Y184646D01*
X814491Y185799D01*
Y187048D01*
X814013Y188202D01*
X813130Y189085D01*
X811976Y189563D01*
D02*
G37*
G36*
X821303Y187755D02*
X820054D01*
X818900Y187277D01*
X818017Y186394D01*
X817539Y185240D01*
Y183992D01*
X818017Y182838D01*
X818900Y181955D01*
X820054Y181477D01*
X821303D01*
X822456Y181955D01*
X823339Y182838D01*
X823817Y183992D01*
Y185240D01*
X823339Y186394D01*
X822456Y187277D01*
X821303Y187755D01*
D02*
G37*
G36*
X841374Y184639D02*
X840126D01*
X838972Y184161D01*
X838089Y183278D01*
X837611Y182124D01*
Y180876D01*
X838089Y179722D01*
X838972Y178839D01*
X840126Y178361D01*
X841374D01*
X842528Y178839D01*
X843411Y179722D01*
X843889Y180876D01*
Y182124D01*
X843411Y183278D01*
X842528Y184161D01*
X841374Y184639D01*
D02*
G37*
G36*
X742450Y183414D02*
X741201D01*
X740048Y182936D01*
X739165Y182053D01*
X738687Y180899D01*
Y179650D01*
X739165Y178496D01*
X740048Y177613D01*
X741201Y177136D01*
X742450D01*
X743604Y177613D01*
X744487Y178496D01*
X744965Y179650D01*
Y180899D01*
X744487Y182053D01*
X743604Y182936D01*
X742450Y183414D01*
D02*
G37*
G36*
X723624Y182889D02*
X722376D01*
X721222Y182411D01*
X720339Y181528D01*
X719861Y180374D01*
Y179126D01*
X720339Y177972D01*
X721222Y177089D01*
X722376Y176611D01*
X723624D01*
X724778Y177089D01*
X725661Y177972D01*
X726139Y179126D01*
Y180374D01*
X725661Y181528D01*
X724778Y182411D01*
X723624Y182889D01*
D02*
G37*
G36*
X733199Y181255D02*
X731950D01*
X730796Y180777D01*
X729913Y179894D01*
X729435Y178741D01*
Y177492D01*
X729913Y176338D01*
X730796Y175455D01*
X731950Y174977D01*
X733199D01*
X734352Y175455D01*
X735235Y176338D01*
X735713Y177492D01*
Y178741D01*
X735235Y179894D01*
X734352Y180777D01*
X733199Y181255D01*
D02*
G37*
G36*
X807951Y180958D02*
X806702D01*
X805548Y180480D01*
X804665Y179597D01*
X804187Y178443D01*
Y177194D01*
X804665Y176041D01*
X805548Y175158D01*
X806702Y174680D01*
X807951D01*
X809104Y175158D01*
X809987Y176041D01*
X810465Y177194D01*
Y178443D01*
X809987Y179597D01*
X809104Y180480D01*
X807951Y180958D01*
D02*
G37*
G36*
X740485Y174119D02*
X739237D01*
X738083Y173641D01*
X737200Y172758D01*
X736722Y171604D01*
Y170356D01*
X737200Y169202D01*
X738083Y168319D01*
X739237Y167841D01*
X740485D01*
X741639Y168319D01*
X742522Y169202D01*
X743000Y170356D01*
Y171604D01*
X742522Y172758D01*
X741639Y173641D01*
X740485Y174119D01*
D02*
G37*
G36*
X810143Y171714D02*
X808895D01*
X807741Y171236D01*
X806858Y170354D01*
X806380Y169200D01*
Y167951D01*
X806858Y166797D01*
X807741Y165914D01*
X808895Y165436D01*
X810143D01*
X811297Y165914D01*
X812180Y166797D01*
X812658Y167951D01*
Y169200D01*
X812180Y170354D01*
X811297Y171236D01*
X810143Y171714D01*
D02*
G37*
G36*
X739913Y164636D02*
X738664D01*
X737510Y164158D01*
X736627Y163275D01*
X736150Y162122D01*
Y160873D01*
X736627Y159719D01*
X737510Y158836D01*
X738664Y158358D01*
X739913D01*
X741067Y158836D01*
X741950Y159719D01*
X742428Y160873D01*
Y162122D01*
X741950Y163275D01*
X741067Y164158D01*
X739913Y164636D01*
D02*
G37*
G36*
X645124Y163389D02*
X643876D01*
X642722Y162911D01*
X641839Y162028D01*
X641361Y160874D01*
Y159626D01*
X641839Y158472D01*
X642722Y157589D01*
X643876Y157111D01*
X645124D01*
X646278Y157589D01*
X647161Y158472D01*
X647639Y159626D01*
Y160874D01*
X647161Y162028D01*
X646278Y162911D01*
X645124Y163389D01*
D02*
G37*
G36*
X946124Y162889D02*
X944876D01*
X943722Y162411D01*
X942839Y161528D01*
X942361Y160374D01*
Y159126D01*
X942839Y157972D01*
X943722Y157089D01*
X944876Y156611D01*
X946124D01*
X947278Y157089D01*
X948161Y157972D01*
X948639Y159126D01*
Y160374D01*
X948161Y161528D01*
X947278Y162411D01*
X946124Y162889D01*
D02*
G37*
G36*
X810273Y162215D02*
X809024D01*
X807870Y161737D01*
X806987Y160854D01*
X806510Y159701D01*
Y158452D01*
X806987Y157298D01*
X807870Y156415D01*
X809024Y155937D01*
X810273D01*
X811427Y156415D01*
X812310Y157298D01*
X812787Y158452D01*
Y159701D01*
X812310Y160854D01*
X811427Y161737D01*
X810273Y162215D01*
D02*
G37*
G36*
X783053Y157818D02*
X781804D01*
X780651Y157340D01*
X779768Y156457D01*
X779290Y155304D01*
Y154055D01*
X779768Y152901D01*
X780651Y152018D01*
X781804Y151540D01*
X783053D01*
X784207Y152018D01*
X785090Y152901D01*
X785568Y154055D01*
Y155304D01*
X785090Y156457D01*
X784207Y157340D01*
X783053Y157818D01*
D02*
G37*
G36*
X802046Y157464D02*
X800798D01*
X799644Y156986D01*
X798761Y156103D01*
X798283Y154949D01*
Y153701D01*
X798761Y152547D01*
X799644Y151664D01*
X800798Y151186D01*
X802046D01*
X803200Y151664D01*
X804083Y152547D01*
X804561Y153701D01*
Y154949D01*
X804083Y156103D01*
X803200Y156986D01*
X802046Y157464D01*
D02*
G37*
G36*
X792546D02*
X791298D01*
X790144Y156986D01*
X789261Y156103D01*
X788783Y154949D01*
Y153701D01*
X789261Y152547D01*
X790144Y151664D01*
X791298Y151186D01*
X792546D01*
X793700Y151664D01*
X794583Y152547D01*
X795061Y153701D01*
Y154949D01*
X794583Y156103D01*
X793700Y156986D01*
X792546Y157464D01*
D02*
G37*
G36*
X773582Y157077D02*
X772333D01*
X771180Y156599D01*
X770297Y155716D01*
X769819Y154562D01*
Y153313D01*
X770297Y152160D01*
X771180Y151277D01*
X772333Y150799D01*
X773582D01*
X774736Y151277D01*
X775619Y152160D01*
X776097Y153313D01*
Y154562D01*
X775619Y155716D01*
X774736Y156599D01*
X773582Y157077D01*
D02*
G37*
G36*
X764083Y156945D02*
X762834D01*
X761681Y156467D01*
X760798Y155584D01*
X760320Y154430D01*
Y153181D01*
X760798Y152027D01*
X761681Y151144D01*
X762834Y150667D01*
X764083D01*
X765237Y151144D01*
X766120Y152027D01*
X766598Y153181D01*
Y154430D01*
X766120Y155584D01*
X765237Y156467D01*
X764083Y156945D01*
D02*
G37*
G36*
X744048Y156083D02*
X742799D01*
X741646Y155606D01*
X740763Y154723D01*
X740285Y153569D01*
Y152320D01*
X740763Y151166D01*
X741646Y150283D01*
X742799Y149805D01*
X744048D01*
X745202Y150283D01*
X746085Y151166D01*
X746563Y152320D01*
Y153569D01*
X746085Y154723D01*
X745202Y155606D01*
X744048Y156083D01*
D02*
G37*
G36*
X729374Y154639D02*
X728126D01*
X726972Y154161D01*
X726089Y153278D01*
X725611Y152124D01*
Y150876D01*
X726089Y149722D01*
X726972Y148839D01*
X728126Y148361D01*
X729374D01*
X730528Y148839D01*
X731411Y149722D01*
X731889Y150876D01*
Y152124D01*
X731411Y153278D01*
X730528Y154161D01*
X729374Y154639D01*
D02*
G37*
G36*
X759799Y148465D02*
X758551D01*
X757397Y147987D01*
X756514Y147104D01*
X756036Y145950D01*
Y144702D01*
X756514Y143548D01*
X757397Y142665D01*
X758551Y142187D01*
X759799D01*
X760953Y142665D01*
X761836Y143548D01*
X762314Y144702D01*
Y145950D01*
X761836Y147104D01*
X760953Y147987D01*
X759799Y148465D01*
D02*
G37*
G36*
X741450Y146946D02*
X740201D01*
X739047Y146468D01*
X738164Y145585D01*
X737686Y144431D01*
Y143182D01*
X738164Y142029D01*
X739047Y141146D01*
X740201Y140668D01*
X741450D01*
X742603Y141146D01*
X743486Y142029D01*
X743964Y143182D01*
Y144431D01*
X743486Y145585D01*
X742603Y146468D01*
X741450Y146946D01*
D02*
G37*
G36*
X785573Y141814D02*
X784324D01*
X783170Y141336D01*
X782287Y140453D01*
X781809Y139299D01*
Y138050D01*
X782287Y136897D01*
X783170Y136014D01*
X784324Y135536D01*
X785573D01*
X786726Y136014D01*
X787609Y136897D01*
X788087Y138050D01*
Y139299D01*
X787609Y140453D01*
X786726Y141336D01*
X785573Y141814D01*
D02*
G37*
G36*
X766582D02*
X765334D01*
X764180Y141336D01*
X763297Y140453D01*
X762819Y139299D01*
Y138050D01*
X763297Y136897D01*
X764180Y136014D01*
X765334Y135536D01*
X766582D01*
X767736Y136014D01*
X768619Y136897D01*
X769097Y138050D01*
Y139299D01*
X768619Y140453D01*
X767736Y141336D01*
X766582Y141814D01*
D02*
G37*
G36*
X776077Y141508D02*
X774829D01*
X773675Y141030D01*
X772792Y140147D01*
X772314Y138993D01*
Y137745D01*
X772792Y136591D01*
X773675Y135708D01*
X774829Y135230D01*
X776077D01*
X777231Y135708D01*
X778114Y136591D01*
X778592Y137745D01*
Y138993D01*
X778114Y140147D01*
X777231Y141030D01*
X776077Y141508D01*
D02*
G37*
G36*
X790560Y133729D02*
X789311D01*
X788158Y133251D01*
X787275Y132368D01*
X786797Y131214D01*
Y129965D01*
X787275Y128811D01*
X788158Y127928D01*
X789311Y127451D01*
X790560D01*
X791714Y127928D01*
X792597Y128811D01*
X793075Y129965D01*
Y131214D01*
X792597Y132368D01*
X791714Y133251D01*
X790560Y133729D01*
D02*
G37*
G36*
X720241Y132968D02*
X718992D01*
X717838Y132491D01*
X716955Y131608D01*
X716477Y130454D01*
Y129205D01*
X716955Y128051D01*
X717838Y127168D01*
X718992Y126691D01*
X720241D01*
X721394Y127168D01*
X722277Y128051D01*
X722755Y129205D01*
Y130454D01*
X722277Y131608D01*
X721394Y132491D01*
X720241Y132968D01*
D02*
G37*
G36*
X742270Y126057D02*
X741021D01*
X739868Y125579D01*
X738985Y124696D01*
X738507Y123543D01*
Y122294D01*
X738985Y121140D01*
X739868Y120257D01*
X741021Y119779D01*
X742270D01*
X743424Y120257D01*
X744307Y121140D01*
X744785Y122294D01*
Y123543D01*
X744307Y124696D01*
X743424Y125579D01*
X742270Y126057D01*
D02*
G37*
G36*
X788478Y124459D02*
X787230D01*
X786076Y123982D01*
X785193Y123098D01*
X784715Y121945D01*
Y120696D01*
X785193Y119542D01*
X786076Y118659D01*
X787230Y118181D01*
X788478D01*
X789632Y118659D01*
X790515Y119542D01*
X790993Y120696D01*
Y121945D01*
X790515Y123098D01*
X789632Y123982D01*
X788478Y124459D01*
D02*
G37*
G36*
X723558Y124067D02*
X722310D01*
X721156Y123589D01*
X720273Y122706D01*
X719795Y121552D01*
Y120303D01*
X720273Y119150D01*
X721156Y118266D01*
X722310Y117789D01*
X723558D01*
X724712Y118266D01*
X725595Y119150D01*
X726073Y120303D01*
Y121552D01*
X725595Y122706D01*
X724712Y123589D01*
X723558Y124067D01*
D02*
G37*
G36*
X733053Y123755D02*
X731804D01*
X730651Y123277D01*
X729768Y122394D01*
X729290Y121241D01*
Y119992D01*
X729768Y118838D01*
X730651Y117955D01*
X731804Y117477D01*
X733053D01*
X734207Y117955D01*
X735090Y118838D01*
X735568Y119992D01*
Y121241D01*
X735090Y122394D01*
X734207Y123277D01*
X733053Y123755D01*
D02*
G37*
G36*
X751477Y123714D02*
X750228D01*
X749074Y123236D01*
X748191Y122353D01*
X747713Y121200D01*
Y119951D01*
X748191Y118797D01*
X749074Y117914D01*
X750228Y117436D01*
X751477D01*
X752630Y117914D01*
X753513Y118797D01*
X753571Y118936D01*
X755773Y118667D01*
X756151Y118528D01*
X756589Y117472D01*
X757472Y116589D01*
X758626Y116111D01*
X759874D01*
X761028Y116589D01*
X761911Y117472D01*
X762389Y118626D01*
Y119874D01*
X761911Y121028D01*
X761028Y121911D01*
X759874Y122389D01*
X758626D01*
X757472Y121911D01*
X756589Y121028D01*
X756531Y120889D01*
X754329Y121158D01*
X753951Y121297D01*
X753513Y122353D01*
X752630Y123236D01*
X751477Y123714D01*
D02*
G37*
G36*
X759991Y112800D02*
X758742D01*
X757588Y112322D01*
X756705Y111439D01*
X756227Y110285D01*
Y109036D01*
X756705Y107883D01*
X757588Y107000D01*
X758742Y106522D01*
X759991D01*
X761144Y107000D01*
X762027Y107883D01*
X762505Y109036D01*
Y110285D01*
X762027Y111439D01*
X761144Y112322D01*
X759991Y112800D01*
D02*
G37*
G36*
X946124Y110639D02*
X944876D01*
X943722Y110161D01*
X942839Y109278D01*
X942361Y108124D01*
Y106876D01*
X942839Y105722D01*
X943722Y104839D01*
X944876Y104361D01*
X946124D01*
X947278Y104839D01*
X948161Y105722D01*
X948639Y106876D01*
Y108124D01*
X948161Y109278D01*
X947278Y110161D01*
X946124Y110639D01*
D02*
G37*
G36*
X645624D02*
X644376D01*
X643222Y110161D01*
X642339Y109278D01*
X641861Y108124D01*
Y106876D01*
X642339Y105722D01*
X643222Y104839D01*
X644376Y104361D01*
X645624D01*
X646778Y104839D01*
X647661Y105722D01*
X648139Y106876D01*
Y108124D01*
X647661Y109278D01*
X646778Y110161D01*
X645624Y110639D01*
D02*
G37*
G36*
X791258Y115375D02*
X790010D01*
X788856Y114897D01*
X787973Y114014D01*
X787495Y112861D01*
Y111612D01*
X787973Y110458D01*
X788856Y109575D01*
X790010Y109097D01*
X790532D01*
X792648Y107133D01*
X792606Y106697D01*
X792517Y106355D01*
X792443Y106176D01*
X792111Y105374D01*
Y104126D01*
X792589Y102972D01*
X793472Y102089D01*
X794626Y101611D01*
X795874D01*
X797028Y102089D01*
X797911Y102972D01*
X798389Y104126D01*
Y105374D01*
X797911Y106528D01*
X797028Y107411D01*
X795874Y107889D01*
X795352D01*
X793235Y109853D01*
X793278Y110289D01*
X793367Y110631D01*
X793441Y110811D01*
X793773Y111612D01*
Y112861D01*
X793295Y114014D01*
X792412Y114897D01*
X791258Y115375D01*
D02*
G37*
G36*
X766364Y105755D02*
X765115D01*
X763962Y105277D01*
X763079Y104394D01*
X762601Y103241D01*
Y101992D01*
X763079Y100838D01*
X763962Y99955D01*
X765115Y99477D01*
X766364D01*
X767518Y99955D01*
X768401Y100838D01*
X768879Y101992D01*
Y103241D01*
X768401Y104394D01*
X767518Y105277D01*
X766364Y105755D01*
D02*
G37*
G36*
X775798Y104637D02*
X774549D01*
X773396Y104159D01*
X772513Y103276D01*
X772035Y102123D01*
Y100874D01*
X772513Y99720D01*
X773396Y98837D01*
X774549Y98359D01*
X775798D01*
X776952Y98837D01*
X777835Y99720D01*
X778313Y100874D01*
Y102123D01*
X777835Y103276D01*
X776952Y104159D01*
X775798Y104637D01*
D02*
G37*
G36*
X651874Y103139D02*
X650626D01*
X649472Y102661D01*
X648589Y101778D01*
X648111Y100624D01*
Y99376D01*
X648589Y98222D01*
X649472Y97339D01*
X650626Y96861D01*
X651874D01*
X653028Y97339D01*
X653911Y98222D01*
X654389Y99376D01*
Y100624D01*
X653911Y101778D01*
X653028Y102661D01*
X651874Y103139D01*
D02*
G37*
G36*
X825874Y102889D02*
X824626D01*
X823472Y102411D01*
X822589Y101528D01*
X822111Y100374D01*
Y99126D01*
X822589Y97972D01*
X823472Y97089D01*
X824626Y96611D01*
X825874D01*
X827028Y97089D01*
X827911Y97972D01*
X828389Y99126D01*
Y100374D01*
X827911Y101528D01*
X827028Y102411D01*
X825874Y102889D01*
D02*
G37*
G36*
X706124Y102139D02*
X704876D01*
X703722Y101661D01*
X702839Y100778D01*
X702361Y99624D01*
Y98376D01*
X702839Y97222D01*
X703722Y96339D01*
X704876Y95861D01*
X706124D01*
X707278Y96339D01*
X708161Y97222D01*
X708639Y98376D01*
Y99624D01*
X708161Y100778D01*
X707278Y101661D01*
X706124Y102139D01*
D02*
G37*
G36*
X938624Y101889D02*
X937376D01*
X936222Y101411D01*
X935339Y100528D01*
X934861Y99374D01*
Y98126D01*
X935339Y96972D01*
X936222Y96089D01*
X937376Y95611D01*
X938624D01*
X939778Y96089D01*
X940661Y96972D01*
X941139Y98126D01*
Y99374D01*
X940661Y100528D01*
X939778Y101411D01*
X938624Y101889D01*
D02*
G37*
G36*
X885374D02*
X884126D01*
X882972Y101411D01*
X882089Y100528D01*
X881611Y99374D01*
Y98126D01*
X882089Y96972D01*
X882972Y96089D01*
X884126Y95611D01*
X885374D01*
X886528Y96089D01*
X887411Y96972D01*
X887889Y98126D01*
Y99374D01*
X887411Y100528D01*
X886528Y101411D01*
X885374Y101889D01*
D02*
G37*
G36*
X796124Y98639D02*
X794876D01*
X793722Y98161D01*
X792839Y97278D01*
X792361Y96124D01*
Y94876D01*
X792839Y93722D01*
X793722Y92839D01*
X794876Y92361D01*
X796124D01*
X797278Y92839D01*
X798161Y93722D01*
X798639Y94876D01*
Y96124D01*
X798161Y97278D01*
X797278Y98161D01*
X796124Y98639D01*
D02*
G37*
G36*
X92124Y92389D02*
X90876D01*
X89722Y91911D01*
X88839Y91028D01*
X88361Y89874D01*
Y88626D01*
X88839Y87472D01*
X89722Y86589D01*
X90876Y86111D01*
X92124D01*
X93278Y86589D01*
X94161Y87472D01*
X94639Y88626D01*
Y89874D01*
X94161Y91028D01*
X93278Y91911D01*
X92124Y92389D01*
D02*
G37*
G36*
X73124D02*
X71876D01*
X70722Y91911D01*
X69839Y91028D01*
X69361Y89874D01*
Y88626D01*
X69839Y87472D01*
X70722Y86589D01*
X71876Y86111D01*
X73124D01*
X74278Y86589D01*
X75161Y87472D01*
X75639Y88626D01*
Y89874D01*
X75161Y91028D01*
X74278Y91911D01*
X73124Y92389D01*
D02*
G37*
G36*
X185624Y90639D02*
X184376D01*
X183222Y90161D01*
X182339Y89278D01*
X181861Y88124D01*
Y86876D01*
X182339Y85722D01*
X183222Y84839D01*
X184376Y84361D01*
X185624D01*
X186778Y84839D01*
X187661Y85722D01*
X188139Y86876D01*
Y88124D01*
X187661Y89278D01*
X186778Y90161D01*
X185624Y90639D01*
D02*
G37*
G36*
X796125Y89267D02*
X794877D01*
X793723Y88789D01*
X792840Y87906D01*
X792362Y86753D01*
Y85504D01*
X792840Y84350D01*
X793723Y83467D01*
X794877Y82989D01*
X796125D01*
X797279Y83467D01*
X798162Y84350D01*
X798640Y85504D01*
Y86753D01*
X798162Y87906D01*
X797279Y88789D01*
X796125Y89267D01*
D02*
G37*
G36*
X783124Y87639D02*
X781876D01*
X780722Y87161D01*
X779839Y86278D01*
X779361Y85124D01*
Y83876D01*
X779839Y82722D01*
X780722Y81839D01*
X781876Y81361D01*
X783124D01*
X784278Y81839D01*
X785161Y82722D01*
X785639Y83876D01*
Y85124D01*
X785161Y86278D01*
X784278Y87161D01*
X783124Y87639D01*
D02*
G37*
G36*
X82624Y86639D02*
X81376D01*
X80222Y86161D01*
X79339Y85278D01*
X78861Y84124D01*
Y82876D01*
X79339Y81722D01*
X80222Y80839D01*
X81376Y80361D01*
X82624D01*
X83778Y80839D01*
X84661Y81722D01*
X85139Y82876D01*
Y84124D01*
X84661Y85278D01*
X83778Y86161D01*
X82624Y86639D01*
D02*
G37*
G36*
X214624Y81639D02*
X213376D01*
X212222Y81161D01*
X211339Y80278D01*
X210861Y79124D01*
Y77876D01*
X211339Y76722D01*
X212222Y75839D01*
X213376Y75361D01*
X214624D01*
X215778Y75839D01*
X216661Y76722D01*
X217139Y77876D01*
Y79124D01*
X216661Y80278D01*
X215778Y81161D01*
X214624Y81639D01*
D02*
G37*
G36*
X796201Y79767D02*
X794952D01*
X793798Y79290D01*
X792915Y78407D01*
X792437Y77253D01*
Y76004D01*
X792915Y74850D01*
X793798Y73967D01*
X794952Y73489D01*
X796201D01*
X797354Y73967D01*
X798237Y74850D01*
X798715Y76004D01*
Y77253D01*
X798237Y78407D01*
X797354Y79290D01*
X796201Y79767D01*
D02*
G37*
G36*
X783548Y78368D02*
X782299D01*
X781146Y77890D01*
X780263Y77007D01*
X779785Y75853D01*
Y74605D01*
X780263Y73451D01*
X781146Y72568D01*
X782299Y72090D01*
X783548D01*
X784702Y72568D01*
X785585Y73451D01*
X786063Y74605D01*
Y75853D01*
X785585Y77007D01*
X784702Y77890D01*
X783548Y78368D01*
D02*
G37*
G36*
X128124Y75639D02*
X126876D01*
X125722Y75161D01*
X124839Y74278D01*
X124361Y73124D01*
Y71876D01*
X124839Y70722D01*
X125722Y69839D01*
X126876Y69361D01*
X128124D01*
X129278Y69839D01*
X130161Y70722D01*
X130639Y71876D01*
Y73124D01*
X130161Y74278D01*
X129278Y75161D01*
X128124Y75639D01*
D02*
G37*
G36*
X92624Y71139D02*
X91376D01*
X90222Y70661D01*
X89339Y69778D01*
X88861Y68624D01*
Y67376D01*
X89339Y66222D01*
X90222Y65339D01*
X91376Y64861D01*
X92624D01*
X93778Y65339D01*
X94661Y66222D01*
X95139Y67376D01*
Y68624D01*
X94661Y69778D01*
X93778Y70661D01*
X92624Y71139D01*
D02*
G37*
G36*
X796201Y70268D02*
X794952D01*
X793798Y69790D01*
X792915Y68907D01*
X792437Y67753D01*
Y66504D01*
X792915Y65350D01*
X793798Y64467D01*
X794952Y63990D01*
X796201D01*
X797354Y64467D01*
X798237Y65350D01*
X798715Y66504D01*
Y67753D01*
X798237Y68907D01*
X797354Y69790D01*
X796201Y70268D01*
D02*
G37*
G36*
X825874Y65139D02*
X824626D01*
X823472Y64661D01*
X822993Y64182D01*
X821500Y63948D01*
X820007Y64182D01*
X819528Y64661D01*
X818374Y65139D01*
X817126D01*
X815972Y64661D01*
X815316Y64005D01*
X813875Y63882D01*
X812434Y64005D01*
X811778Y64661D01*
X810624Y65139D01*
X809376D01*
X808222Y64661D01*
X807339Y63778D01*
X806861Y62624D01*
Y61376D01*
X807339Y60222D01*
X808222Y59339D01*
X809376Y58861D01*
X810624D01*
X811778Y59339D01*
X812434Y59995D01*
X813875Y60118D01*
X815316Y59995D01*
X815972Y59339D01*
X817126Y58861D01*
X818374D01*
X819528Y59339D01*
X820007Y59818D01*
X821500Y60051D01*
X822993Y59818D01*
X823472Y59339D01*
X824626Y58861D01*
X825874D01*
X827028Y59339D01*
X827911Y60222D01*
X828389Y61376D01*
Y62624D01*
X827911Y63778D01*
X827028Y64661D01*
X825874Y65139D01*
D02*
G37*
G36*
X770624Y64139D02*
X769376D01*
X768222Y63661D01*
X767743Y63182D01*
X766250Y62948D01*
X764757Y63182D01*
X764278Y63661D01*
X763124Y64139D01*
X761876D01*
X760722Y63661D01*
X759839Y62778D01*
X759736Y62529D01*
X757014D01*
X756911Y62778D01*
X756028Y63661D01*
X754874Y64139D01*
X753626D01*
X752472Y63661D01*
X751589Y62778D01*
X751111Y61624D01*
Y60376D01*
X751589Y59222D01*
X752472Y58339D01*
X753626Y57861D01*
X754874D01*
X756028Y58339D01*
X756911Y59222D01*
X757014Y59471D01*
X759736D01*
X759839Y59222D01*
X760722Y58339D01*
X761876Y57861D01*
X763124D01*
X764278Y58339D01*
X764757Y58818D01*
X766250Y59051D01*
X767743Y58818D01*
X768222Y58339D01*
X769376Y57861D01*
X770624D01*
X771778Y58339D01*
X772661Y59222D01*
X773139Y60376D01*
Y61624D01*
X772661Y62778D01*
X771778Y63661D01*
X770624Y64139D01*
D02*
G37*
G36*
X783548Y68868D02*
X782299D01*
X781146Y68390D01*
X780263Y67507D01*
X779785Y66353D01*
Y65105D01*
X780263Y63951D01*
X781146Y63068D01*
X782299Y62590D01*
X783548D01*
X784702Y63068D01*
X785585Y63951D01*
X786063Y65105D01*
Y66353D01*
X785585Y67507D01*
X784702Y68390D01*
X783548Y68868D01*
D02*
G37*
G36*
X545401Y72989D02*
X543100D01*
X540877Y72393D01*
X538884Y71243D01*
X537257Y69616D01*
X536107Y67623D01*
X535511Y65401D01*
Y63099D01*
X536107Y60877D01*
X537257Y58884D01*
X538884Y57257D01*
X540877Y56107D01*
X543100Y55511D01*
X545401D01*
X547623Y56107D01*
X549616Y57257D01*
X551243Y58884D01*
X552393Y60877D01*
X552989Y63099D01*
Y65401D01*
X552393Y67623D01*
X551243Y69616D01*
X549616Y71243D01*
X547623Y72393D01*
X545401Y72989D01*
D02*
G37*
G36*
X797124Y59639D02*
X795876D01*
X794722Y59161D01*
X793839Y58278D01*
X793361Y57124D01*
Y55876D01*
X793839Y54722D01*
X794722Y53839D01*
X795876Y53361D01*
X797124D01*
X798278Y53839D01*
X799161Y54722D01*
X799639Y55876D01*
Y57124D01*
X799161Y58278D01*
X798278Y59161D01*
X797124Y59639D01*
D02*
G37*
G36*
X782530Y59423D02*
X781281D01*
X780127Y58945D01*
X779244Y58062D01*
X778766Y56908D01*
Y55659D01*
X779244Y54506D01*
X780127Y53623D01*
X781281Y53145D01*
X782530D01*
X783683Y53623D01*
X784566Y54506D01*
X785044Y55659D01*
Y56908D01*
X784566Y58062D01*
X783683Y58945D01*
X782530Y59423D01*
D02*
G37*
G36*
X104624Y55139D02*
X103376D01*
X102222Y54661D01*
X101339Y53778D01*
X100861Y52624D01*
Y51376D01*
X101339Y50222D01*
X102222Y49339D01*
X103376Y48861D01*
X104624D01*
X105778Y49339D01*
X106661Y50222D01*
X107139Y51376D01*
Y52624D01*
X106661Y53778D01*
X105778Y54661D01*
X104624Y55139D01*
D02*
G37*
G36*
X115874Y54889D02*
X114626D01*
X113472Y54411D01*
X112589Y53528D01*
X112111Y52374D01*
Y51126D01*
X112589Y49972D01*
X113472Y49089D01*
X114626Y48611D01*
X115874D01*
X117028Y49089D01*
X117911Y49972D01*
X118389Y51126D01*
Y52374D01*
X117911Y53528D01*
X117028Y54411D01*
X115874Y54889D01*
D02*
G37*
G36*
X777624Y47889D02*
X776376D01*
X775222Y47411D01*
X774339Y46528D01*
X773861Y45374D01*
Y44126D01*
X774339Y42972D01*
X775222Y42089D01*
X776376Y41611D01*
X777624D01*
X778778Y42089D01*
X779661Y42972D01*
X780139Y44126D01*
Y45374D01*
X779661Y46528D01*
X778778Y47411D01*
X777624Y47889D01*
D02*
G37*
G36*
X803374Y47639D02*
X802126D01*
X800972Y47161D01*
X800089Y46278D01*
X799611Y45124D01*
Y43876D01*
X800089Y42722D01*
X800972Y41839D01*
X802126Y41361D01*
X803374D01*
X804528Y41839D01*
X805411Y42722D01*
X805889Y43876D01*
Y45124D01*
X805411Y46278D01*
X804528Y47161D01*
X803374Y47639D01*
D02*
G37*
G36*
X777624Y38389D02*
X776376D01*
X775222Y37911D01*
X774339Y37028D01*
X773861Y35874D01*
Y34626D01*
X774339Y33472D01*
X775222Y32589D01*
X776376Y32111D01*
X777624D01*
X778778Y32589D01*
X779661Y33472D01*
X780139Y34626D01*
Y35874D01*
X779661Y37028D01*
X778778Y37911D01*
X777624Y38389D01*
D02*
G37*
G36*
X803374Y38139D02*
X802126D01*
X800972Y37661D01*
X800089Y36778D01*
X799611Y35624D01*
Y34376D01*
X800089Y33222D01*
X800972Y32339D01*
X802126Y31861D01*
X803374D01*
X804528Y32339D01*
X805411Y33222D01*
X805889Y34376D01*
Y35624D01*
X805411Y36778D01*
X804528Y37661D01*
X803374Y38139D01*
D02*
G37*
G36*
X545401Y47589D02*
X543100D01*
X540877Y46993D01*
X538884Y45843D01*
X537257Y44216D01*
X536107Y42223D01*
X535511Y40001D01*
Y37699D01*
X536107Y35477D01*
X537257Y33484D01*
X538884Y31857D01*
X540877Y30707D01*
X543100Y30111D01*
X545401D01*
X547623Y30707D01*
X549616Y31857D01*
X551243Y33484D01*
X552393Y35477D01*
X552989Y37699D01*
Y40001D01*
X552393Y42223D01*
X551243Y44216D01*
X549616Y45843D01*
X547623Y46993D01*
X545401Y47589D01*
D02*
G37*
G36*
X777624Y28889D02*
X776376D01*
X775222Y28411D01*
X774339Y27528D01*
X773861Y26374D01*
Y25126D01*
X774339Y23972D01*
X775222Y23089D01*
X776376Y22611D01*
X777624D01*
X778778Y23089D01*
X779661Y23972D01*
X780139Y25126D01*
Y26374D01*
X779661Y27528D01*
X778778Y28411D01*
X777624Y28889D01*
D02*
G37*
G36*
X803374Y28639D02*
X802126D01*
X800972Y28161D01*
X800089Y27278D01*
X799611Y26124D01*
Y24876D01*
X800089Y23722D01*
X800972Y22839D01*
X802126Y22361D01*
X803374D01*
X804528Y22839D01*
X805411Y23722D01*
X805889Y24876D01*
Y26124D01*
X805411Y27278D01*
X804528Y28161D01*
X803374Y28639D01*
D02*
G37*
G36*
X777624Y19389D02*
X776376D01*
X775222Y18911D01*
X774339Y18028D01*
X773861Y16874D01*
Y15626D01*
X774339Y14472D01*
X775222Y13589D01*
X776376Y13111D01*
X777624D01*
X778778Y13589D01*
X779661Y14472D01*
X780139Y15626D01*
Y16874D01*
X779661Y18028D01*
X778778Y18911D01*
X777624Y19389D01*
D02*
G37*
G36*
X803374Y19139D02*
X802126D01*
X800972Y18661D01*
X800089Y17778D01*
X799611Y16624D01*
Y15376D01*
X800089Y14222D01*
X800972Y13339D01*
X802126Y12861D01*
X803374D01*
X804528Y13339D01*
X805411Y14222D01*
X805889Y15376D01*
Y16624D01*
X805411Y17778D01*
X804528Y18661D01*
X803374Y19139D01*
D02*
G37*
G36*
X777624Y9889D02*
X776376D01*
X775222Y9411D01*
X774339Y8528D01*
X773861Y7374D01*
Y6126D01*
X774339Y4972D01*
X775222Y4089D01*
X776376Y3611D01*
X777624D01*
X778778Y4089D01*
X779661Y4972D01*
X780139Y6126D01*
Y7374D01*
X779661Y8528D01*
X778778Y9411D01*
X777624Y9889D01*
D02*
G37*
G36*
X803374Y9639D02*
X802126D01*
X800972Y9161D01*
X800089Y8278D01*
X799611Y7124D01*
Y5876D01*
X800089Y4722D01*
X800972Y3839D01*
X802126Y3361D01*
X803374D01*
X804528Y3839D01*
X805411Y4722D01*
X805889Y5876D01*
Y7124D01*
X805411Y8278D01*
X804528Y9161D01*
X803374Y9639D01*
D02*
G37*
%LPD*%
D96*
X544250Y38850D02*
D03*
Y64250D02*
D03*
D97*
Y89650D02*
D03*
D102*
X391000Y480000D02*
D03*
X459000D02*
D03*
D107*
X547000Y371250D02*
Y394750D01*
X569770Y417520D02*
Y417740D01*
X570750Y418720D02*
Y419250D01*
X569770Y417740D02*
X570750Y418720D01*
X547000Y394750D02*
X569770Y417520D01*
X523000Y418750D02*
X547000Y394750D01*
X523000Y418750D02*
Y419250D01*
D113*
X130000Y350000D02*
D03*
Y400000D02*
D03*
D114*
X30000Y430000D02*
D03*
Y320000D02*
D03*
D115*
X72500Y89250D02*
D03*
X82000Y83500D02*
D03*
Y95000D02*
D03*
X91500Y89250D02*
D03*
X213750Y110500D02*
D03*
X219500Y120000D02*
D03*
X208000D02*
D03*
X213750Y129500D02*
D03*
X779250Y276000D02*
D03*
X753500Y271500D02*
D03*
X174250Y142250D02*
D03*
X708641Y353988D02*
D03*
X708250Y326750D02*
D03*
X448000Y350500D02*
D03*
X474500Y381750D02*
D03*
X447991Y381731D02*
D03*
X115250Y51750D02*
D03*
X210000Y172750D02*
D03*
X252500Y138750D02*
D03*
X559000Y259000D02*
D03*
X559250Y281000D02*
D03*
X644500Y160250D02*
D03*
X645250Y220250D02*
D03*
X644250Y281500D02*
D03*
X644750Y339500D02*
D03*
Y391750D02*
D03*
X651000Y400000D02*
D03*
X704500D02*
D03*
X764500D02*
D03*
X825750Y400250D02*
D03*
X885250Y400750D02*
D03*
X938500Y401000D02*
D03*
X946000Y393500D02*
D03*
X945000Y339500D02*
D03*
Y280000D02*
D03*
X945500Y219750D02*
D03*
Y159750D02*
D03*
Y107500D02*
D03*
X938000Y98750D02*
D03*
X884750D02*
D03*
X825250Y99750D02*
D03*
X705500Y99000D02*
D03*
X645000Y107500D02*
D03*
X651250Y100000D02*
D03*
X544250Y441250D02*
D03*
X555000D02*
D03*
X188250Y310750D02*
D03*
X271500Y258500D02*
D03*
X278250D02*
D03*
X285250Y258750D02*
D03*
X802750Y6500D02*
D03*
X770000Y61000D02*
D03*
X762500D02*
D03*
X795500Y95500D02*
D03*
X795250Y104750D02*
D03*
X390000Y337250D02*
D03*
X231500Y146000D02*
D03*
X348750Y273750D02*
D03*
X209750Y268500D02*
D03*
X343000Y342000D02*
D03*
X190000Y440000D02*
D03*
X280000Y330000D02*
D03*
X781750Y352500D02*
D03*
X683750Y236250D02*
D03*
X781000Y186500D02*
D03*
X826750Y222750D02*
D03*
X788112Y274809D02*
D03*
X781395Y268091D02*
D03*
X762000Y271250D02*
D03*
X734723Y271425D02*
D03*
X726038Y267576D02*
D03*
X705013Y264434D02*
D03*
Y254934D02*
D03*
X704525Y245446D02*
D03*
X704485Y227080D02*
D03*
X713953Y226306D02*
D03*
X722993Y229227D02*
D03*
X723427Y238717D02*
D03*
X722959Y248205D02*
D03*
X731515Y252332D02*
D03*
X740932Y251075D02*
D03*
X748143Y244890D02*
D03*
X747866Y235394D02*
D03*
Y225894D02*
D03*
X743424Y217497D02*
D03*
X742789Y208018D02*
D03*
X733388Y209384D02*
D03*
X723500Y208500D02*
D03*
X722116Y198909D02*
D03*
Y189409D02*
D03*
X723000Y179750D02*
D03*
X732574Y178116D02*
D03*
X741826Y180275D02*
D03*
X739861Y170980D02*
D03*
X739288Y161497D02*
D03*
X743424Y152944D02*
D03*
X740825Y143807D02*
D03*
X719616Y129830D02*
D03*
X722934Y120928D02*
D03*
X732429Y120616D02*
D03*
X741646Y122918D02*
D03*
X750852Y120575D02*
D03*
X759250Y119250D02*
D03*
X759366Y109661D02*
D03*
X765740Y102616D02*
D03*
X775174Y101498D02*
D03*
X782500Y84500D02*
D03*
X782924Y75229D02*
D03*
Y65729D02*
D03*
X781905Y56284D02*
D03*
X777000Y44750D02*
D03*
Y35250D02*
D03*
Y25750D02*
D03*
Y16250D02*
D03*
Y6750D02*
D03*
X802750Y16000D02*
D03*
Y25500D02*
D03*
Y35000D02*
D03*
Y44500D02*
D03*
X796500Y56500D02*
D03*
X795576Y67129D02*
D03*
Y76628D02*
D03*
X795501Y86128D02*
D03*
X790634Y112236D02*
D03*
X787854Y121320D02*
D03*
X789936Y130590D02*
D03*
X784948Y138675D02*
D03*
X775453Y138369D02*
D03*
X765958Y138675D02*
D03*
X759175Y145326D02*
D03*
X763459Y153806D02*
D03*
X772958Y153938D02*
D03*
X782429Y154679D02*
D03*
X791922Y154325D02*
D03*
X801422D02*
D03*
X809649Y159076D02*
D03*
X809519Y168575D02*
D03*
X807326Y177819D02*
D03*
X811352Y186424D02*
D03*
X820678Y184616D02*
D03*
X830000Y186500D02*
D03*
X829750Y198250D02*
D03*
X850801Y200501D02*
D03*
X850945Y210000D02*
D03*
X845373Y217694D02*
D03*
X835873Y217681D02*
D03*
X826750Y214750D02*
D03*
X214000Y78500D02*
D03*
X514000Y211250D02*
D03*
X528500Y202750D02*
D03*
X840750Y181500D02*
D03*
X817750Y62000D02*
D03*
X825250D02*
D03*
X810000D02*
D03*
X754250Y61000D02*
D03*
X728750Y151500D02*
D03*
X683250Y213000D02*
D03*
X686250Y259500D02*
D03*
X687500Y279000D02*
D03*
X717250Y278500D02*
D03*
X781250Y303250D02*
D03*
X743000Y271250D02*
D03*
X731500Y293250D02*
D03*
X740250Y326250D02*
D03*
X834250Y335000D02*
D03*
X814000D02*
D03*
X836250Y377750D02*
D03*
X849750Y298500D02*
D03*
X900500Y311250D02*
D03*
X900750Y286250D02*
D03*
X891500Y261500D02*
D03*
X849750Y283500D02*
D03*
X824000Y267250D02*
D03*
X906000Y377500D02*
D03*
Y389000D02*
D03*
X916500Y377000D02*
D03*
X875000Y332250D02*
D03*
X686500Y331500D02*
D03*
X698500Y335750D02*
D03*
X644500Y301000D02*
D03*
X609500Y310750D02*
D03*
X619500Y259750D02*
D03*
X662000Y285500D02*
D03*
X662454Y318750D02*
D03*
X580750Y260162D02*
D03*
X654750Y299250D02*
D03*
X555000Y227500D02*
D03*
X455000Y235000D02*
D03*
X546500Y350500D02*
D03*
X538750Y228250D02*
D03*
X534750Y245750D02*
D03*
X518500Y352250D02*
D03*
X507750Y352000D02*
D03*
X577000Y351500D02*
D03*
X492000Y295750D02*
D03*
X495000Y234250D02*
D03*
X539250Y296750D02*
D03*
X532750Y314000D02*
D03*
X510000Y260000D02*
D03*
X454500Y296000D02*
D03*
X556750Y313750D02*
D03*
X577000Y313500D02*
D03*
X580750Y296000D02*
D03*
X575000Y230000D02*
D03*
X348250Y246250D02*
D03*
X547000Y371250D02*
D03*
Y416750D02*
D03*
X474750Y350250D02*
D03*
X64750Y61250D02*
D03*
X439250Y125500D02*
D03*
X388250Y131750D02*
D03*
X399750Y468500D02*
D03*
X450000Y468750D02*
D03*
X579000Y419250D02*
D03*
X570750D02*
D03*
X523000D02*
D03*
X514750Y419500D02*
D03*
X577250Y375250D02*
D03*
X516250D02*
D03*
X419250Y417500D02*
D03*
X395500Y376750D02*
D03*
X419250Y376000D02*
D03*
X395500Y417250D02*
D03*
X442500Y418250D02*
D03*
X499750Y145000D02*
D03*
Y157750D02*
D03*
X485250Y157250D02*
D03*
X187500Y172500D02*
D03*
X104000Y52000D02*
D03*
X26500Y61750D02*
D03*
X74000Y63750D02*
D03*
X92000Y68000D02*
D03*
X91634Y111178D02*
D03*
X27000Y162000D02*
D03*
Y140000D02*
D03*
Y113000D02*
D03*
Y88000D02*
D03*
X276250Y139750D02*
D03*
X237500Y130000D02*
D03*
Y110000D02*
D03*
X185000Y87500D02*
D03*
X127500Y72500D02*
D03*
X142750Y123000D02*
D03*
X186500Y108750D02*
D03*
X186250Y116750D02*
D03*
X343000Y400000D02*
D03*
Y393000D02*
D03*
Y375000D02*
D03*
Y368000D02*
D03*
Y349000D02*
D03*
X274000Y459000D02*
D03*
X71500Y281250D02*
D03*
X211000Y310750D02*
D03*
X139000Y262000D02*
D03*
X224000Y242750D02*
D03*
X198250Y241750D02*
D03*
X206250D02*
D03*
Y249500D02*
D03*
X228500Y253250D02*
D03*
X179500Y238250D02*
D03*
X174250Y243250D02*
D03*
X179500Y248000D02*
D03*
X212250Y223500D02*
D03*
X198250Y249500D02*
D03*
X203000Y268250D02*
D03*
X320000Y187500D02*
D03*
X287500D02*
D03*
X262500D02*
D03*
X270000D02*
D03*
X295000D02*
D03*
X312500D02*
D03*
X271750Y316250D02*
D03*
X297530Y316640D02*
D03*
X291180D02*
D03*
X284830D02*
D03*
D116*
X960000Y25000D02*
D03*
Y475000D02*
D03*
X25000D02*
D03*
Y25000D02*
D03*
D117*
X503800Y435975D02*
D03*
X590200D02*
D03*
D118*
X575900Y440975D02*
D03*
X518100D02*
D03*
D119*
X590200Y477775D02*
D03*
X503800D02*
D03*
D120*
X110000Y212500D02*
D03*
X132500Y242500D02*
D03*
X153500Y243000D02*
D03*
D121*
X159000Y120000D02*
D03*
X170500D02*
D03*
X164750Y129500D02*
D03*
Y110500D02*
D03*
D122*
X524000Y281000D02*
D03*
X535000D02*
D03*
X546000D02*
D03*
X524000Y270000D02*
D03*
X535000D02*
D03*
X546000D02*
D03*
X524000Y259000D02*
D03*
X535000D02*
D03*
X546000D02*
D03*
M02*
